<?xml version="1.0" encoding="utf-8"?>
<!-- Generator: Adobe Illustrator 26.0.1, SVG Export Plug-In . SVG Version: 6.00 Build 0)  -->
<svg version="1.1" id="Layer_1" xmlns="http://www.w3.org/2000/svg" xmlns:xlink="http://www.w3.org/1999/xlink" x="0px" y="0px"
	 viewBox="0 0 120 180" style="enable-background:new 0 0 120 180;" xml:space="preserve">
<style type="text/css">
	.st0{fill:#D3BD8C;}
	.st1{fill:url(#SVGID_1_);}
	.st2{fill:url(#SVGID_00000065760884139987927240000016707032020940872094_);}
	.st3{fill:url(#SVGID_00000173133456610118523070000005960670268976075180_);}
	.st4{fill:#D1AC62;}
	.st5{opacity:6.000000e-02;fill:#CECECE;}
	.st6{opacity:0.7;fill:#CECECE;}
	.st7{opacity:8.000000e-02;fill:#CECECE;}
</style>
<g>
	<path class="st0" d="M57.9,177.6L57.9,177.6c-0.7,0-1.4-0.6-1.4-1.4V8.6c0-0.7,0.6-1.4,1.4-1.4l0,0c0.7,0,1.4,0.6,1.4,1.4v167.6
		C59.2,177,58.6,177.6,57.9,177.6z"/>
	<linearGradient id="SVGID_1_" gradientUnits="userSpaceOnUse" x1="37.4784" y1="24.1466" x2="78.2293" y2="24.1466">
		<stop  offset="0" style="stop-color:#FFB5C9"/>
		<stop  offset="1" style="stop-color:#E9777B"/>
	</linearGradient>
	<circle class="st1" cx="57.9" cy="24.1" r="20.4"/>
	
		<linearGradient id="SVGID_00000119832917753570304410000014797213977264289164_" gradientUnits="userSpaceOnUse" x1="37.4784" y1="63.8064" x2="78.2293" y2="63.8064">
		<stop  offset="0" style="stop-color:#F5F4F0"/>
		<stop  offset="1" style="stop-color:#B4A88C"/>
	</linearGradient>
	<circle style="fill:url(#SVGID_00000119832917753570304410000014797213977264289164_);" cx="57.9" cy="63.8" r="20.4"/>
	
		<linearGradient id="SVGID_00000026122395615937423120000010793082438415632318_" gradientUnits="userSpaceOnUse" x1="37.4784" y1="104.5572" x2="78.2293" y2="104.5572">
		<stop  offset="0" style="stop-color:#BAC16B"/>
		<stop  offset="1" style="stop-color:#4F4F13"/>
	</linearGradient>
	<circle style="fill:url(#SVGID_00000026122395615937423120000010793082438415632318_);" cx="57.9" cy="104.6" r="20.4"/>
	<path class="st4" d="M57.2,177.6L57.2,177.6c-0.4,0-0.7-0.3-0.7-0.7v-51.4c0-0.4,0.3-0.7,0.7-0.7h0c0.4,0,0.7,0.3,0.7,0.7v51.4
		C57.9,177.3,57.5,177.6,57.2,177.6z"/>
	<ellipse transform="matrix(0.739 -0.6737 0.6737 0.739 -47.9003 69.4437)" class="st5" cx="65.7" cy="96.5" rx="6" ry="8.5"/>
	<ellipse transform="matrix(0.739 -0.6737 0.6737 0.739 -20.6144 59.4703)" class="st6" cx="66.4" cy="56.3" rx="6" ry="8.5"/>
	<ellipse transform="matrix(0.739 -0.6737 0.6737 0.739 6.2691 48.4579)" class="st7" cx="65.7" cy="16.1" rx="6" ry="8.5"/>
</g>
</svg>
