<?xml version="1.0" encoding="utf-8"?>
<!-- Generator: Adobe Illustrator 26.0.1, SVG Export Plug-In . SVG Version: 6.00 Build 0)  -->
<svg version="1.1" id="Layer_1" xmlns="http://www.w3.org/2000/svg" xmlns:xlink="http://www.w3.org/1999/xlink" x="0px" y="0px"
	 viewBox="0 0 120 180" style="enable-background:new 0 0 120 180;" xml:space="preserve">
<style type="text/css">
	.st0{fill:#E9D59A;}
	.st1{fill:#B3794E;}
	.st2{fill:#B25D24;}
	.st3{fill:#E9D59A;stroke:#B25D24;stroke-width:3;stroke-miterlimit:10;}
	.st4{fill:#AF5214;}
	.st5{fill:#E9D59A;stroke:#B25D24;stroke-width:4;stroke-miterlimit:10;}
	.st6{fill:url(#SVGID_1_);}
</style>
<g>
	<circle class="st0" cx="96.4" cy="120.9" r="1"/>
	<g>
		<g>
			<path class="st1" d="M42.3,81.8l-19.8,9.5c-0.7,0.4-0.6,1.4,0.3,1.5l40.8,4.9c0.1,0,0.3,0,0.4-0.1L87.2,88
				c0.8-0.3,0.6-1.5-0.2-1.6c-9.7-1-38.5-4-44.1-4.7C42.6,81.7,42.5,81.7,42.3,81.8z"/>
			<path class="st2" d="M20,92.5c0,0-5.1,23.7-0.4,24.6s44,1.8,44,1.8l0.2-21.1L20,92.5z"/>
			<path class="st3" d="M86.9,89.4c0.2-0.1,0.3,0.1,0.3,0.2c0,2.4-0.3,15.5-1.7,17.9c-1.5,2.7-17.5,11.3-21.5,10.2
				c-0.1,0-0.2-0.1-0.2-0.2L64,99.2c0-0.1,0.1-0.2,0.1-0.2L86.9,89.4z"/>
		</g>
		<path class="st4" d="M7.2,99.2c-1.5,0.6-2.2,2.3-1.7,3.8c2.1,6,7.5,20.1,11,18.9c3.3-1.2,22.8-11.6,32.9-17.1
			c3.4-1.8,4.6-6.1,2.7-9.4L46.3,85c-0.6-1.1-2-1.6-3.2-1.1L7.2,99.2z"/>
		<path class="st5" d="M59.3,66.8c0.3-0.4,0.9-0.4,1.1,0.1c1.6,3,6.5,12.4,6.5,14.9c0,3-9,18-12.6,18.6L46,84.9L59.3,66.8z"/>
		<linearGradient id="SVGID_1_" gradientUnits="userSpaceOnUse" x1="4.3298" y1="82.5573" x2="59.5396" y2="82.5573">
			<stop  offset="0" style="stop-color:#B3794E"/>
			<stop  offset="1" style="stop-color:#AF5214"/>
		</linearGradient>
		<path class="st6" d="M15,84.6L4.5,100.2c-0.7,1,0.4,2.3,1.5,1.8l37.8-16.4l15.4-20.4c0.9-1.2-0.4-2.7-1.7-2.1
			C48.3,67.3,27.3,77.5,19.4,81C17.6,81.8,16.1,83,15,84.6z"/>
		<path class="st0" d="M75.5,109.9c3.6,0,8.9,1.2,14.4-1.4c5.5-2.7,25.6-0.9,25.2,4.3c-0.4,5.2-7.8,8.1-14.9,5.6s-8.7,0.5-15.1-3.9
			C78.8,110.1,75.5,109.9,75.5,109.9z"/>
		<path class="st0" d="M55.1,90.5c1.7-0.4,4.5-0.5,6.8-2.5c2.3-2,12.3-3.6,12.8-1c0.5,2.6-2.8,4.9-6.5,4.6s-4.2,1.3-7.8,0
			C56.7,90.2,55.1,90.5,55.1,90.5z"/>
		<circle class="st0" cx="84.4" cy="119.9" r="2"/>
		<circle class="st0" cx="90.1" cy="126.9" r="2"/>
		<circle class="st0" cx="78.2" cy="88.9" r="0.7"/>
		<circle class="st0" cx="74.4" cy="122.1" r="1.2"/>
		<ellipse class="st0" cx="67.5" cy="93.7" rx="2" ry="0.5"/>
		<ellipse class="st0" cx="77.9" cy="86.2" rx="1" ry="0.5"/>
	</g>
</g>
</svg>
