<?xml version="1.0" encoding="utf-8"?>
<!-- Generator: Adobe Illustrator 26.0.1, SVG Export Plug-In . SVG Version: 6.00 Build 0)  -->
<svg version="1.1" id="Layer_1" xmlns="http://www.w3.org/2000/svg" xmlns:xlink="http://www.w3.org/1999/xlink" x="0px" y="0px"
	 viewBox="0 0 120 180" style="enable-background:new 0 0 120 180;" xml:space="preserve">
<style type="text/css">
	.st0{fill:#6DAABF;}
	.st1{fill:#F3EEDD;}
	.st2{fill:#F0DEB8;}
	.st3{opacity:0.15;fill:#B3B3B3;}
	.st4{fill:url(#SVGID_1_);}
	.st5{fill:none;stroke:#EFD29E;stroke-miterlimit:10;}
	.st6{fill:url(#SVGID_00000147919551037715497430000005157112735160479397_);}
</style>
<g>
	<path class="st0" d="M15.6,72.1c0,0,30.5-27.5,76.2-6.6c0,0,17.5,6.6,19.6,22.3s-12.6,22.8-12.6,22.8s-15.5,14.8-40.5,10.8
		s-32-7.1-32-7.1s-11.4-5-16.5-16.8S11.1,75.2,15.6,72.1z"/>
	<path class="st1" d="M7.8,87.6c-0.1-0.2,4.3-11.6,7.6-11.9s9,0.2,11.1,0c5.9-0.5,1.7-5.3,7.7-6.9c2.3-0.6,11.4-2.6,12.4-2.9
		s5.7,1.2,8,0c2.4-1.2,7.5,2.1,9.1,2.8c1.7,0.8,5.4-2.9,9.4-0.7s5.5,9.8,11.2,8.4c4.9-1.2,8.6-3.3,12-0.4c3.4,3,5.4,5.4,6.7,8.8
		c1.3,3.4,2.2,3.8,4,8.3s-1.6,9.5-1.6,9.5s-21.7,22.6-51.5,17.3C24.3,114.5,24.4,111,7.8,87.6z"/>
	<path class="st2" d="M10.2,93.6c-0.1-0.2,4.1-11.4,7.3-11.7c3.2-0.3,8.6,0.2,10.6,0c5.6-0.5,1.6-5.2,7.4-6.8
		c2.2-0.6,10.9-2.5,11.9-2.8c1-0.3,5.5,1.2,7.7,0c2.3-1.2,7.2,2,8.8,2.8c1.6,0.7,5.2-2.9,9-0.7c3.9,2.1,5.3,9.6,10.7,8.3
		c4.7-1.2,8.3-3.3,11.5-0.4c3.2,2.9,5.2,5.3,6.4,8.6c1.3,3.3,2.1,3.7,3.9,8.1c1.8,4.4-1.5,9.4-1.5,9.4s-20.8,22.2-49.4,17
		C26,120.1,26.1,116.6,10.2,93.6z"/>
	<path class="st3" d="M9.2,89.2c0,0,31.7-4.4,38.4-2.1c6.7,2.2,5.6,10.9,12.4,12s24.1,3.6,28.7,1.5c4.6-2.1,19-2.5,19-2.5
		s-3.8,22.5-39.8,26.5C38.5,128,14.1,106.8,9.2,89.2z"/>
	<linearGradient id="SVGID_1_" gradientUnits="userSpaceOnUse" x1="7.8781" y1="116.3025" x2="112.2098" y2="116.3025">
		<stop  offset="0" style="stop-color:#B8BDC1"/>
		<stop  offset="1" style="stop-color:#81ADC1"/>
	</linearGradient>
	<path class="st4" d="M11.6,108.6C9.3,100.6,7.4,92.2,8,87c0,0,15.5,32.4,47.3,32.8c26.5,0.3,34.8-4.1,38.8-7.1
		c0.8-0.6,17.5-12.4,17.5-21.5c0,0,5.3,22-18,42.4c-2.3,2-5.3,4.1-8.9,6C56.2,154.8,20.8,139.6,11.6,108.6z"/>
	<path class="st5" d="M46.1,80.5c4.5,1.5,12.8-0.9,18.6,0s10.3,6.3,13,8.7"/>
	<path class="st5" d="M24.7,100.6c4.7-0.7,11-6.5,16.6-8.3s12.1,1,15.6,2"/>
	<path class="st5" d="M59.8,108c4.7-0.7,11-6.5,16.6-8.3c5.6-1.8,12.1,1,15.6,2"/>
	<path class="st5" d="M34.3,105.1c3.3,1.7,10,0.7,14.4,2.1c4.4,1.3,7.3,6.1,9.1,8.2"/>
	
		<linearGradient id="SVGID_00000114768354306117814890000016741896983012432768_" gradientUnits="userSpaceOnUse" x1="87.986" y1="71.45" x2="111.8435" y2="71.45">
		<stop  offset="0" style="stop-color:#F5F4F0"/>
		<stop  offset="1" style="stop-color:#B4A88C"/>
	</linearGradient>
	<path style="fill:url(#SVGID_00000114768354306117814890000016741896983012432768_);" d="M88,90.4l18-37.3c0,0,7-5.3,5.7,1.7
		C110.4,61.7,92,91.7,92,91.7L88,90.4z"/>
</g>
</svg>
