<?xml version="1.0" encoding="utf-8"?>
<!-- Generator: Adobe Illustrator 26.0.1, SVG Export Plug-In . SVG Version: 6.00 Build 0)  -->
<svg version="1.1" id="Layer_1" xmlns="http://www.w3.org/2000/svg" xmlns:xlink="http://www.w3.org/1999/xlink" x="0px" y="0px"
	 viewBox="0 0 120 180" style="enable-background:new 0 0 120 180;" xml:space="preserve">
<style type="text/css">
	.st0{fill:url(#SVGID_1_);}
	.st1{fill:#DB9349;stroke:#8E6C47;stroke-width:0.5;stroke-miterlimit:10;}
	.st2{fill:url(#SVGID_00000116225843914784285320000011360304650111364767_);}
	.st3{fill:url(#SVGID_00000031897517135060819520000014082939644905619343_);}
	.st4{fill:#CE6B11;}
	.st5{fill:url(#SVGID_00000174593197544946913830000006634980662723417255_);}
	.st6{fill:url(#SVGID_00000149374883444231326430000005870234767619692712_);}
	.st7{fill:url(#SVGID_00000122717749233238052680000001951991334078916508_);}
	.st8{fill:url(#SVGID_00000039103148770978136340000008121142677367046805_);}
	.st9{fill:url(#SVGID_00000063608438764136451740000010573825343371372934_);}
	.st10{fill:url(#SVGID_00000162313725901238985240000004812141014131634359_);}
	.st11{fill:#D89B64;}
	.st12{fill:url(#SVGID_00000134940885408289426180000015928952364737390769_);}
	.st13{fill:url(#SVGID_00000053523515681310542490000006269745460708710828_);}
	.st14{fill:#331C04;}
	.st15{fill:#281200;}
	.st16{opacity:6.000000e-02;fill:#281200;}
</style>
<g>
	<linearGradient id="SVGID_1_" gradientUnits="userSpaceOnUse" x1="11.4942" y1="72.4016" x2="26.7704" y2="72.4016">
		<stop  offset="5.624588e-02" style="stop-color:#DA730B"/>
		<stop  offset="1" style="stop-color:#C25300"/>
	</linearGradient>
	<path class="st0" d="M15.1,59.3c0,0-4.4,3.7-3.4,10.2c1.2,7.6,8.2,12.3,9.6,13.3c1.4,1,5.5,2.6,5.5,2.6L15.1,59.3z"/>
	<path class="st1" d="M107.1,44c0,0,3.2-10.7-6-15c0,0-1-9.3-14.2-10.1c0,0-5.8-6.2-17.9-4.5c0,0-2.8-18.2-19.7-7.4
		S31.6,19.7,31.6,19.7S18,31.6,18.4,34.9c0.4,3.3-6.6,16.5-4.8,19c1.9,2.5,1.9,11.3,1.9,11.3s12.1,24.4,13.7,26.1
		c1.6,1.8,13.9,19.9,16.8,21.1s11.2,9.9,11.2,9.9s8.2-12.8,11.7-12c3.5,0.8,0.6-9.1,3.1-12c2.5-2.9,12-16.1,12.4-18.6
		c0.4-2.5,11.6-15.3,14-20.2C100.9,54.7,107.1,44,107.1,44z"/>
	
		<linearGradient id="SVGID_00000110434330206390166130000012644561283932762809_" gradientUnits="userSpaceOnUse" x1="34.1443" y1="77.1335" x2="50.9025" y2="77.1335">
		<stop  offset="5.624588e-02" style="stop-color:#DA730B"/>
		<stop  offset="1" style="stop-color:#9C2F00"/>
	</linearGradient>
	<path style="fill:url(#SVGID_00000110434330206390166130000012644561283932762809_);" d="M36.1,69.1c0,0,7.3-10.6,12.6,0
		s-0.4,17.4-2.4,18.1c-2,0.6-5.7,6.7-10.2-2.2S36.1,69.1,36.1,69.1z"/>
	
		<linearGradient id="SVGID_00000047062066153622017420000012697284207608305048_" gradientUnits="userSpaceOnUse" x1="18.5277" y1="77.4835" x2="37.7023" y2="77.4835">
		<stop  offset="5.624588e-02" style="stop-color:#DA730B"/>
		<stop  offset="1" style="stop-color:#C25300"/>
	</linearGradient>
	<path style="fill:url(#SVGID_00000047062066153622017420000012697284207608305048_);" d="M18.5,64.2c0,0,14.7-5.6,17.6,6.4
		s1.5,21.9-2,21.4C30.6,91.4,18.5,64.2,18.5,64.2z"/>
	<path class="st4" d="M26.8,85.5L15.1,59.3c0,0-1.8-6.2-1-8.5c0.8-2.4,16,38.3,16,38.3L45.6,100l1.3,3.5L26.8,85.5z"/>
	
		<linearGradient id="SVGID_00000132810305082580722270000008159772930667381684_" gradientUnits="userSpaceOnUse" x1="23.8608" y1="45.6796" x2="42.2152" y2="45.6796">
		<stop  offset="5.624588e-02" style="stop-color:#DA730B"/>
		<stop  offset="1" style="stop-color:#C25300"/>
	</linearGradient>
	<path style="fill:url(#SVGID_00000132810305082580722270000008159772930667381684_);" d="M26.4,53.8c0,0-6.9-18.7,2-22.3
		s16.2,15.8,13,22.3S39.8,64.4,26.4,53.8z"/>
	
		<linearGradient id="SVGID_00000096757184723525563050000009348527218607717551_" gradientUnits="userSpaceOnUse" x1="47.0324" y1="28.5665" x2="68.6493" y2="28.5665">
		<stop  offset="5.624588e-02" style="stop-color:#DA730B"/>
		<stop  offset="1" style="stop-color:#C25300"/>
	</linearGradient>
	<path style="fill:url(#SVGID_00000096757184723525563050000009348527218607717551_);" d="M50.4,18.3c0,0,8-7.6,15.4,0
		c3.7,3.8,3.8,19.6,0,21c-2.7,1-10.6,7.8-18.3-3.6C47.6,35.7,45.2,21.5,50.4,18.3z"/>
	
		<linearGradient id="SVGID_00000041276979713947650920000005427976799990065053_" gradientUnits="userSpaceOnUse" x1="47.0324" y1="59.3378" x2="68.6493" y2="59.3378">
		<stop  offset="5.624588e-02" style="stop-color:#DA730B"/>
		<stop  offset="1" style="stop-color:#C25300"/>
	</linearGradient>
	<path style="fill:url(#SVGID_00000041276979713947650920000005427976799990065053_);" d="M50.4,49c0,0,8-7.6,15.4,0
		c3.7,3.8,3.8,19.6,0,21c-2.7,1-10.6,7.8-18.3-3.6C47.6,66.5,45.2,52.2,50.4,49z"/>
	
		<linearGradient id="SVGID_00000166665481340823330220000017487649134672743552_" gradientUnits="userSpaceOnUse" x1="47.0324" y1="92.0217" x2="68.6493" y2="92.0217">
		<stop  offset="5.624588e-02" style="stop-color:#DA730B"/>
		<stop  offset="1" style="stop-color:#C25300"/>
	</linearGradient>
	<path style="fill:url(#SVGID_00000166665481340823330220000017487649134672743552_);" d="M50.4,81.7c0,0,8-7.6,15.4,0
		c3.7,3.8,3.8,19.6,0,21c-2.7,1-10.6,7.8-18.3-3.6C47.6,99.2,45.2,84.9,50.4,81.7z"/>
	
		<linearGradient id="SVGID_00000084532262473179466620000006578569288219666602_" gradientUnits="userSpaceOnUse" x1="75.5409" y1="41.7882" x2="94.0851" y2="41.7882">
		<stop  offset="5.624588e-02" style="stop-color:#DA730B"/>
		<stop  offset="1" style="stop-color:#C25300"/>
	</linearGradient>
	<path style="fill:url(#SVGID_00000084532262473179466620000006578569288219666602_);" d="M94.1,42c0,0-2.7-25.3-14.9-8.1
		c0,0-8.1,15.4,0,20.8S94.1,42,94.1,42z"/>
	
		<linearGradient id="SVGID_00000078727335243200181980000000182739477884071316_" gradientUnits="userSpaceOnUse" x1="68.6493" y1="72.2617" x2="87.1935" y2="72.2617">
		<stop  offset="5.624588e-02" style="stop-color:#DA730B"/>
		<stop  offset="1" style="stop-color:#C25300"/>
	</linearGradient>
	<path style="fill:url(#SVGID_00000078727335243200181980000000182739477884071316_);" d="M87.2,72.5c0,0-2.7-25.3-14.9-8.1
		c0,0-8.1,15.4,0,20.8S87.2,72.5,87.2,72.5z"/>
	<path class="st11" d="M58.3,115.8c0,0,5.3-9.5,9.6-10.3s6.8-26.8,11.9-30.1s25-35.1,27-36.3s0.5,1.1,1.7,2.8s3.7,4.7,2.4,8.4
		s-11,21.5-11,21.5s2.6,5,0,9.1c-2.6,4.1-5.1,4-5.1,4s2.2,19.9-20.8,17.8c0,0,8.8,2.1,8.8,5C83,110.4,69.5,118.3,58.3,115.8z"/>
	
		<linearGradient id="SVGID_00000158024117491741668090000002285412077672763296_" gradientUnits="userSpaceOnUse" x1="-142.9983" y1="-2764.0557" x2="-127.7221" y2="-2764.0557" gradientTransform="matrix(-0.6887 -0.7251 0.7251 -0.6887 2009.7649 -1937.4056)">
		<stop  offset="5.624588e-02" style="stop-color:#DA730B"/>
		<stop  offset="1" style="stop-color:#C25300"/>
	</linearGradient>
	<path style="fill:url(#SVGID_00000158024117491741668090000002285412077672763296_);" d="M92.1,76.2c0,0,5.7,0.7,9.8-4.6
		c4.7-6.1,3.2-14.4,3-16.1c-0.2-1.7-1.9-5.8-1.9-5.8L92.1,76.2z"/>
	
		<linearGradient id="SVGID_00000141455867171295501840000005893235836413135036_" gradientUnits="userSpaceOnUse" x1="-150.2677" y1="-2790.1152" x2="-134.9915" y2="-2790.1152" gradientTransform="matrix(-0.6887 -0.7251 0.7251 -0.6887 2009.7649 -1937.4056)">
		<stop  offset="5.624588e-02" style="stop-color:#DA730B"/>
		<stop  offset="1" style="stop-color:#C25300"/>
	</linearGradient>
	<path style="fill:url(#SVGID_00000141455867171295501840000005893235836413135036_);" d="M78.2,99.4c0,0,5.7,0.7,9.8-4.6
		c4.7-6.1,3.2-14.4,3-16.1s-1.9-5.8-1.9-5.8L78.2,99.4z"/>
	<polygon class="st4" points="67.9,105.5 79.8,75.4 106.9,39.1 108.6,41.8 81.3,75.7 69.6,105.5 	"/>
	<path class="st14" d="M13.3,75.6l34.6,96.9c0,0,6.6,8.3,13.6,0S100,80.7,100,80.7l-42.3,31.5C57.8,112.3,19.5,72.5,13.3,75.6z"/>
	<path class="st15" d="M13.3,75.6l44.5,36.6L55,176.2c0,0-5.1,2-7.1-3.7S13.3,75.6,13.3,75.6z"/>
	<path class="st16" d="M18.4,34.9c0,0,25.9,26.1,43.3,22.9C79.2,54.7,101,29,101,29s7,1.5,5.8,10.1S82.1,72.3,82.1,72.3l-14.2,33.2
		l-10.1,6.8L27.2,81.6L14,50.8L18.4,34.9z"/>
</g>
</svg>
