<?xml version="1.0" encoding="utf-8"?>
<!-- Generator: Adobe Illustrator 26.0.1, SVG Export Plug-In . SVG Version: 6.00 Build 0)  -->
<svg version="1.1" id="Layer_1" xmlns="http://www.w3.org/2000/svg" xmlns:xlink="http://www.w3.org/1999/xlink" x="0px" y="0px"
	 viewBox="0 0 120 180" style="enable-background:new 0 0 120 180;" xml:space="preserve">
<style type="text/css">
	.st0{fill:url(#SVGID_1_);}
	.st1{fill:#F4B822;}
	.st2{opacity:0.3;fill:#FFF6F5;}
	.st3{fill:#F2AE16;}
	.st4{fill:#00D805;}
	.st5{fill:url(#SVGID_00000167397369265112029380000006026877292105252797_);}
	.st6{fill:#9BC617;}
	.st7{opacity:0.11;fill:#E0DAD5;}
	.st8{fill:#7CBA04;}
	.st9{fill:url(#SVGID_00000052801393835692225720000017633843988708271263_);}
	.st10{fill:#E0DAD5;}
	.st11{fill:#D1CFCF;}
</style>
<g>
	<g>
		<g>
			<linearGradient id="SVGID_1_" gradientUnits="userSpaceOnUse" x1="56.6117" y1="87.9975" x2="116.6508" y2="87.9975">
				<stop  offset="1.209400e-03" style="stop-color:#FFEBA9"/>
				<stop  offset="1" style="stop-color:#E7C760"/>
			</linearGradient>
			<path class="st0" d="M61,103.8c9.4,1.9,31.3,5.2,51.5,0.1c2.5-0.6,4.2-2.9,4.1-5.5c-0.3-8.6-3.9-27.3-28.6-28.8
				C63.5,68,57.9,88.1,56.7,97.7C56.3,100.6,58.2,103.2,61,103.8z"/>
			<path class="st1" d="M70.9,99.1c5.7,1.2,19.2,3.2,31.6,0c1.5-0.4,2.6-1.8,2.5-3.4c-0.2-5.3-2.4-16.7-17.5-17.6
				c-15.1-1-18.5,11.4-19.2,17.3C68.1,97.1,69.2,98.7,70.9,99.1z"/>
		</g>
		<path class="st2" d="M69.9,77.2c2.9-2.2,9.6-6.7,14.8-4.9c0.3,0.1,0.6,0.3,0.9,0.6l0.7,0.6c0.7,0.7,0.4,2-0.6,2.3
			c-3.8,1.1-11.3,3.4-13.9,5.8c-1.9,1.8-2.7,0.4-3.1-1.1C68.4,79.2,68.9,77.9,69.9,77.2z"/>
		<path class="st3" d="M93.5,79.2c0.5,0.2,3.4,11,1.2,13.8c-2.5,3.2-15.3,7.3-15.3,7.3s25.1,3.6,25.6-4.6
			C105.8,83.3,93.5,79.2,93.5,79.2z"/>
	</g>
	<g>
		<path class="st4" d="M36.9,111.3"/>
		<g>
			
				<linearGradient id="SVGID_00000044167314560545083040000003497937190436850335_" gradientUnits="userSpaceOnUse" x1="3.3492" y1="86.1299" x2="63.3249" y2="86.1299">
				<stop  offset="0" style="stop-color:#B0C970"/>
				<stop  offset="1" style="stop-color:#7A9E34"/>
			</linearGradient>
			<path style="fill:url(#SVGID_00000044167314560545083040000003497937190436850335_);" d="M8.1,102c9.6,1.9,31,5,50.8,0.1
				c2.7-0.7,4.6-3.2,4.4-6c-0.4-8.8-4.2-26.9-28.6-28.4c-24.2-1.5-30,17.9-31.3,27.7C3,98.5,5,101.4,8.1,102z"/>
			<path class="st6" d="M16.9,98.3c6.2,1.2,20.1,3.2,33,0.1c1.8-0.4,3-2.1,2.9-3.9C52.6,88.7,50.1,77,34.3,76
				c-15.8-1-19.5,11.7-20.4,18C13.6,96,14.9,97.9,16.9,98.3z"/>
		</g>
		<path class="st7" d="M16.6,76c2.9-2.2,9.6-6.7,14.8-4.9c0.3,0.1,0.6,0.3,0.9,0.6l0.7,0.6c0.7,0.7,0.4,2-0.6,2.3
			c-3.8,1.1-11.3,3.4-13.9,5.8c-1.9,1.8-2.7,0.4-3.1-1.1C15.1,78.1,15.6,76.8,16.6,76z"/>
		<path class="st8" d="M42.4,77.8c0.5,0.2,2.3,11.3,0.1,14.2c-2.5,3.2-15.3,7.3-15.3,7.3s25.1,3.6,25.6-4.6
			C53.6,82.2,42.4,77.8,42.4,77.8z"/>
	</g>
	<g>
		<g>
			
				<linearGradient id="SVGID_00000073688817032614706660000017646710100639086488_" gradientUnits="userSpaceOnUse" x1="33.4065" y1="100.0494" x2="93.2434" y2="100.0494">
				<stop  offset="0" style="stop-color:#E1B188"/>
				<stop  offset="0.9988" style="stop-color:#E09B68"/>
			</linearGradient>
			<path style="fill:url(#SVGID_00000073688817032614706660000017646710100639086488_);" d="M38.8,116c9.8,1.9,30.2,4.6,49.3,0.1
				c3.2-0.8,5.3-3.7,5.1-6.9c-0.6-9-4.9-26.2-28.5-27.6c-23.5-1.5-29.6,16.8-31.2,26.9C32.9,112,35.3,115.4,38.8,116z"/>
			<path class="st10" d="M47.3,113.1c6.4,1.2,19.7,3,32.1,0.1c2.1-0.5,3.5-2.4,3.3-4.5c-0.4-5.9-3.2-17.1-18.6-18
				c-15.3-1-19.3,11-20.4,17.5C43.5,110.5,45,112.7,47.3,113.1z"/>
		</g>
		<path class="st7" d="M44.3,89.6c2.9-2.2,9.6-6.7,14.8-4.9c0.3,0.1,0.6,0.3,0.9,0.6l0.7,0.6c0.7,0.7,0.4,2-0.6,2.3
			c-3.8,1.1-11.3,3.4-13.9,5.8c-1.9,1.8-2.7,0.4-3.1-1.1C42.9,91.7,43.3,90.4,44.3,89.6z"/>
		<path class="st11" d="M72.4,92.5c0.5,0.2,2.4,11.4,0.1,14.2c-2.5,3.2-15.3,8.1-15.3,8.1s25.1,2.8,25.6-5.4
			C83.6,97,72.4,92.5,72.4,92.5z"/>
	</g>
</g>
</svg>
