<?xml version="1.0" encoding="utf-8"?>
<!-- Generator: Adobe Illustrator 26.0.1, SVG Export Plug-In . SVG Version: 6.00 Build 0)  -->
<svg version="1.1" id="Layer_1" xmlns="http://www.w3.org/2000/svg" xmlns:xlink="http://www.w3.org/1999/xlink" x="0px" y="0px"
	 viewBox="0 0 120 180" style="enable-background:new 0 0 120 180;" xml:space="preserve">
<style type="text/css">
	.st0{fill:#011C00;}
	.st1{fill:#FF6F00;}
	.st2{fill:#FF5B00;}
	.st3{fill:url(#SVGID_1_);}
	.st4{fill:url(#SVGID_00000031900032590963724310000003257704057312541887_);}
	.st5{fill:url(#SVGID_00000173863631971419040230000012230271043951905714_);}
	.st6{fill:url(#SVGID_00000022558914590034330220000012143533748746821785_);}
	.st7{fill:url(#SVGID_00000075870281088189606230000005763967083030910649_);}
	.st8{fill:url(#SVGID_00000165930373777819122610000004351979844474655423_);}
	.st9{fill:url(#SVGID_00000095335048443140162520000015597480503266348694_);}
	.st10{fill:url(#SVGID_00000114038456558186011460000008248334263388047532_);}
	.st11{fill:url(#SVGID_00000180356610341960639120000002019749621159086001_);}
	.st12{fill:url(#SVGID_00000067206677510659958850000010553656957660537275_);}
	.st13{fill:url(#SVGID_00000053534289239609908200000015743792545494545835_);}
	.st14{fill:url(#SVGID_00000012431526659543748900000012974433483831077771_);}
	.st15{fill:url(#SVGID_00000150099914966383438130000017076034714793977985_);}
	.st16{fill:url(#SVGID_00000167382619979575515950000008558829254844150962_);}
	.st17{fill:url(#SVGID_00000085929836193231656560000000901114424664880266_);}
	.st18{fill:url(#SVGID_00000144310680467819084600000012227940692316237493_);}
	.st19{fill:url(#SVGID_00000138569522192001105920000001248927450199428507_);}
	.st20{fill:url(#SVGID_00000118383548381086956760000016253955088647253645_);}
	.st21{fill:url(#SVGID_00000178204614534810763850000016392119702771027131_);}
	.st22{fill:url(#SVGID_00000002376264914466920790000003195425861469766063_);}
	.st23{fill:url(#SVGID_00000134230776351754001770000016615347862248075421_);}
	.st24{fill:url(#SVGID_00000021113664198576023850000009085335578142170260_);}
	.st25{fill:url(#SVGID_00000157274735550970236210000016898032287989648796_);}
	.st26{fill:url(#SVGID_00000070815340040489670690000000833615112419110564_);}
	.st27{fill:#002300;}
	.st28{fill:#002800;}
	.st29{opacity:3.000000e-02;fill:#FFFFFF;}
	.st30{opacity:6.000000e-02;fill:#FFFFFF;}
</style>
<g>
	<path class="st0" d="M14.8,75.9l90.1-8.9h4.4L39.7,82.2C39.7,82.2,19.6,77.9,14.8,75.9z"/>
	<g>
		<g>
			<g>
				<ellipse class="st1" cx="35.7" cy="99.1" rx="9" ry="8.6"/>
			</g>
			<g>
				<ellipse transform="matrix(0.5407 -0.8412 0.8412 0.5407 -68.4139 68.7763)" class="st1" cx="28.8" cy="97" rx="8.6" ry="9"/>
			</g>
			<g>
				<ellipse transform="matrix(0.9096 -0.4154 0.4154 0.9096 -35.86 18.2525)" class="st1" cx="24" cy="91.6" rx="8.6" ry="9"/>
			</g>
			<g>
				<ellipse transform="matrix(0.1423 -0.9898 0.9898 0.1423 -63.7937 95.1272)" class="st1" cx="23" cy="84.4" rx="9" ry="8.6"/>
			</g>
			<g>
				<ellipse transform="matrix(0.6549 -0.7557 0.7557 0.6549 -49.8038 46.5007)" class="st1" cx="26" cy="77.8" rx="9" ry="8.6"/>
			</g>
			<g>
				<ellipse transform="matrix(0.9595 -0.2817 0.2817 0.9595 -19.5065 12.0378)" class="st1" cx="32.1" cy="73.9" rx="9" ry="8.6"/>
			</g>
			<g>
				<ellipse transform="matrix(0.2818 -0.9595 0.9595 0.2818 -42.5975 90.8222)" class="st1" cx="39.4" cy="73.9" rx="8.6" ry="9"/>
			</g>
			<g>
				<ellipse transform="matrix(0.7558 -0.6548 0.6548 0.7558 -39.8337 48.7697)" class="st1" cx="45.5" cy="77.8" rx="8.6" ry="9"/>
			</g>
			<g>
				<ellipse transform="matrix(0.9898 -0.1423 0.1423 0.9898 -11.5136 7.7559)" class="st1" cx="48.5" cy="84.4" rx="8.6" ry="9"/>
			</g>
			<g>
				<ellipse transform="matrix(0.4154 -0.9096 0.9096 0.4154 -55.5552 96.6755)" class="st1" cx="47.4" cy="91.6" rx="9" ry="8.6"/>
			</g>
			<g>
				<ellipse transform="matrix(0.8413 -0.5406 0.5406 0.8413 -45.6859 38.4822)" class="st1" cx="42.7" cy="97" rx="9" ry="8.6"/>
			</g>
		</g>
		<g>
			<g>
				<ellipse class="st1" cx="81.2" cy="98.9" rx="12.1" ry="11.5"/>
			</g>
			<g>
				<ellipse transform="matrix(0.5 -0.866 0.866 0.5 -47.4224 111.1129)" class="st1" cx="72.5" cy="96.6" rx="11.5" ry="12.1"/>
			</g>
			<g>
				<ellipse transform="matrix(0.866 -0.5 0.5 0.866 -36.2817 45.1952)" class="st1" cx="66.2" cy="90.3" rx="11.5" ry="12.1"/>
			</g>
			<g>
				<ellipse class="st1" cx="63.9" cy="81.7" rx="11.5" ry="12.1"/>
			</g>
			<g>
				<ellipse transform="matrix(0.5 -0.866 0.866 0.5 -30.1483 93.8503)" class="st1" cx="66.2" cy="73" rx="12.1" ry="11.5"/>
			</g>
			<g>
				<ellipse transform="matrix(0.866 -0.5 0.5 0.866 -23.6404 45.1996)" class="st1" cx="72.5" cy="66.7" rx="12.1" ry="11.5"/>
			</g>
			<g>
				<ellipse class="st1" cx="81.2" cy="64.4" rx="12.1" ry="11.5"/>
			</g>
			<g>
				<ellipse transform="matrix(0.5 -0.866 0.866 0.5 -12.8856 111.125)" class="st1" cx="89.8" cy="66.7" rx="11.5" ry="12.1"/>
			</g>
			<g>
				<ellipse transform="matrix(0.866 -0.5 0.5 0.866 -23.645 57.8409)" class="st1" cx="96.1" cy="73" rx="11.5" ry="12.1"/>
			</g>
			<g>
				<ellipse class="st1" cx="98.4" cy="81.7" rx="11.5" ry="12.1"/>
			</g>
			<g>
				<ellipse transform="matrix(0.5 -0.866 0.866 0.5 -30.1601 128.3884)" class="st1" cx="96.1" cy="90.3" rx="12.1" ry="11.5"/>
			</g>
			<g>
				<ellipse transform="matrix(0.866 -0.5 0.5 0.866 -36.2862 57.836)" class="st1" cx="89.8" cy="96.6" rx="12.1" ry="11.5"/>
			</g>
		</g>
		<g>
			<g>
				<ellipse class="st1" cx="43.2" cy="103.1" rx="12.1" ry="11.5"/>
			</g>
			<g>
				<ellipse transform="matrix(0.5 -0.866 0.866 0.5 -70.0289 80.3264)" class="st1" cx="34.6" cy="100.8" rx="11.5" ry="12.1"/>
			</g>
			<g>
				<ellipse transform="matrix(0.866 -0.5 0.5 0.866 -43.4603 26.774)" class="st1" cx="28.2" cy="94.5" rx="11.5" ry="12.1"/>
			</g>
			<g>
				<ellipse class="st1" cx="25.9" cy="85.9" rx="11.5" ry="12.1"/>
			</g>
			<g>
				<ellipse transform="matrix(0.5 -0.866 0.866 0.5 -52.7546 63.0644)" class="st1" cx="28.2" cy="77.2" rx="12.1" ry="11.5"/>
			</g>
			<g>
				<ellipse transform="matrix(0.866 -0.5 0.5 0.866 -30.8188 26.7785)" class="st1" cx="34.6" cy="70.9" rx="12.1" ry="11.5"/>
			</g>
			<g>
				<ellipse class="st1" cx="43.2" cy="68.6" rx="12.1" ry="11.5"/>
			</g>
			<g>
				<ellipse transform="matrix(0.5 -0.866 0.866 0.5 -35.4919 80.3393)" class="st1" cx="51.8" cy="70.9" rx="11.5" ry="12.1"/>
			</g>
			<g>
				<ellipse transform="matrix(0.866 -0.5 0.5 0.866 -30.8234 39.42)" class="st1" cx="58.2" cy="77.2" rx="11.5" ry="12.1"/>
			</g>
			<g>
				<ellipse class="st1" cx="60.5" cy="85.9" rx="11.5" ry="12.1"/>
			</g>
			<g>
				<ellipse transform="matrix(0.5 -0.866 0.866 0.5 -52.7672 97.6009)" class="st1" cx="58.1" cy="94.5" rx="12.1" ry="11.5"/>
			</g>
			<g>
				<ellipse transform="matrix(0.866 -0.5 0.5 0.866 -43.465 39.4153)" class="st1" cx="51.8" cy="100.8" rx="12.1" ry="11.5"/>
			</g>
		</g>
		<g>
			<g>
				<ellipse class="st1" cx="61.5" cy="96.1" rx="12.1" ry="11.5"/>
			</g>
			<g>
				<ellipse transform="matrix(0.5 -0.866 0.866 0.5 -54.807 92.7324)" class="st1" cx="52.9" cy="93.8" rx="11.5" ry="12.1"/>
			</g>
			<g>
				<ellipse transform="matrix(0.866 -0.5 0.5 0.866 -37.5117 35.0158)" class="st1" cx="46.6" cy="87.5" rx="11.5" ry="12.1"/>
			</g>
			<g>
				<ellipse class="st1" cx="44.3" cy="78.9" rx="11.5" ry="12.1"/>
			</g>
			<g>
				<ellipse transform="matrix(0.5 -0.866 0.866 0.5 -37.5323 75.4696)" class="st1" cx="46.6" cy="70.2" rx="12.1" ry="11.5"/>
			</g>
			<g>
				<ellipse transform="matrix(0.866 -0.5 0.5 0.866 -24.8699 35.0203)" class="st1" cx="52.9" cy="63.9" rx="12.1" ry="11.5"/>
			</g>
			<g>
				<ellipse class="st1" cx="61.6" cy="61.6" rx="12.1" ry="11.5"/>
			</g>
			<g>
				<ellipse transform="matrix(0.5 -0.866 0.866 0.5 -20.2693 92.7445)" class="st1" cx="70.2" cy="63.9" rx="11.5" ry="12.1"/>
			</g>
			<g>
				<ellipse transform="matrix(0.866 -0.5 0.5 0.866 -24.8744 47.6616)" class="st1" cx="76.5" cy="70.2" rx="11.5" ry="12.1"/>
			</g>
			<g>
				<ellipse class="st1" cx="78.8" cy="78.9" rx="11.5" ry="12.1"/>
			</g>
			<g>
				<ellipse transform="matrix(0.5 -0.866 0.866 0.5 -37.5444 110.0072)" class="st1" cx="76.5" cy="87.5" rx="12.1" ry="11.5"/>
			</g>
			<g>
				<ellipse transform="matrix(0.866 -0.5 0.5 0.866 -37.5155 47.6576)" class="st1" cx="70.2" cy="93.8" rx="12.1" ry="11.5"/>
			</g>
		</g>
	</g>
	<g>
		<g>
			<g>
				<circle class="st2" cx="35.4" cy="101.3" r="8.4"/>
			</g>
			<g>
				<circle class="st2" cx="28.6" cy="99.3" r="8.4"/>
			</g>
			<g>
				<circle class="st2" cx="24" cy="94" r="8.4"/>
			</g>
			<g>
				<circle class="st2" cx="22.9" cy="87" r="8.4"/>
			</g>
			<g>
				<circle class="st2" cx="25.9" cy="80.5" r="8.4"/>
			</g>
			<g>
				<circle class="st2" cx="31.8" cy="76.7" r="8.4"/>
			</g>
			<g>
				<circle class="st2" cx="38.9" cy="76.7" r="8.4"/>
			</g>
			<g>
				<circle class="st2" cx="44.8" cy="80.5" r="8.4"/>
			</g>
			<g>
				<circle class="st2" cx="47.8" cy="87" r="8.4"/>
			</g>
			<g>
				<circle class="st2" cx="46.8" cy="94" r="8.4"/>
			</g>
			<g>
				<circle class="st2" cx="42.1" cy="99.3" r="8.4"/>
			</g>
		</g>
		<g>
			<g>
				<circle class="st2" cx="77.7" cy="101.2" r="11.2"/>
			</g>
			<g>
				<circle class="st2" cx="69.2" cy="98.9" r="11.2"/>
			</g>
			<g>
				<circle class="st2" cx="63.1" cy="92.7" r="11.2"/>
			</g>
			<g>
				<circle class="st2" cx="60.8" cy="84.3" r="11.2"/>
			</g>
			<g>
				<circle class="st2" cx="63.1" cy="75.9" r="11.2"/>
			</g>
			<g>
				<circle class="st2" cx="69.3" cy="69.7" r="11.2"/>
			</g>
			<g>
				<circle class="st2" cx="77.7" cy="67.5" r="11.2"/>
			</g>
			<g>
				<circle class="st2" cx="86.1" cy="69.8" r="11.2"/>
			</g>
			<g>
				<circle class="st2" cx="92.2" cy="75.9" r="11.2"/>
			</g>
			<g>
				<circle class="st2" cx="94.5" cy="84.3" r="11.2"/>
			</g>
			<g>
				<circle class="st2" cx="92.2" cy="92.7" r="11.2"/>
			</g>
			<g>
				<circle class="st2" cx="86.1" cy="98.9" r="11.2"/>
			</g>
		</g>
		<g>
			<g>
				<circle class="st2" cx="42.3" cy="105.2" r="11.2"/>
			</g>
			<g>
				<circle class="st2" cx="33.9" cy="103" r="11.2"/>
			</g>
			<g>
				<circle class="st2" cx="27.7" cy="96.8" r="11.2"/>
			</g>
			<g>
				<circle class="st2" cx="25.5" cy="88.4" r="11.2"/>
			</g>
			<g>
				<circle class="st2" cx="27.7" cy="80" r="11.2"/>
			</g>
			<g>
				<circle class="st2" cx="33.9" cy="73.8" r="11.2"/>
			</g>
			<g>
				<circle class="st2" cx="42.3" cy="71.6" r="11.2"/>
			</g>
			<g>
				<circle class="st2" cx="50.7" cy="73.8" r="11.2"/>
			</g>
			<g>
				<circle class="st2" cx="56.9" cy="80" r="11.2"/>
			</g>
			<g>
				<circle class="st2" cx="59.1" cy="88.4" r="11.2"/>
			</g>
			<g>
				<circle class="st2" cx="56.9" cy="96.8" r="11.2"/>
			</g>
			<g>
				<circle class="st2" cx="50.7" cy="103" r="11.2"/>
			</g>
		</g>
		<g>
			<g>
				<circle class="st2" cx="59.4" cy="98.4" r="11.2"/>
			</g>
			<g>
				<circle class="st2" cx="51" cy="96.2" r="11.2"/>
			</g>
			<g>
				<circle class="st2" cx="44.8" cy="90" r="11.2"/>
			</g>
			<g>
				<circle class="st2" cx="42.6" cy="81.6" r="11.2"/>
			</g>
			<g>
				<circle class="st2" cx="44.8" cy="73.2" r="11.2"/>
			</g>
			<g>
				<circle class="st2" cx="51" cy="67" r="11.2"/>
			</g>
			<g>
				<circle class="st2" cx="59.4" cy="64.8" r="11.2"/>
			</g>
			<g>
				<circle class="st2" cx="67.8" cy="67" r="11.2"/>
			</g>
			<g>
				<circle class="st2" cx="74" cy="73.2" r="11.2"/>
			</g>
			<g>
				<circle class="st2" cx="76.2" cy="81.6" r="11.2"/>
			</g>
			<g>
				<circle class="st2" cx="74" cy="90" r="11.2"/>
			</g>
			<g>
				<circle class="st2" cx="67.8" cy="96.2" r="11.2"/>
			</g>
		</g>
	</g>
	<g>
		<linearGradient id="SVGID_1_" gradientUnits="userSpaceOnUse" x1="25.0888" y1="78.8792" x2="39.7503" y2="78.8792">
			<stop  offset="0" style="stop-color:#FF4100"/>
			<stop  offset="1" style="stop-color:#EF7E4B"/>
		</linearGradient>
		<ellipse class="st3" cx="32.8" cy="78.9" rx="7.3" ry="7.1"/>
		
			<linearGradient id="SVGID_00000152963570128574880780000009304206966636746686_" gradientUnits="userSpaceOnUse" x1="36.8264" y1="80.2493" x2="51.4878" y2="80.2493">
			<stop  offset="0" style="stop-color:#FF4100"/>
			<stop  offset="1" style="stop-color:#EF7E4B"/>
		</linearGradient>
		<ellipse style="fill:url(#SVGID_00000152963570128574880780000009304206966636746686_);" cx="44.5" cy="80.2" rx="7.3" ry="7.1"/>
		
			<linearGradient id="SVGID_00000107589742594793999730000007014591811798574720_" gradientUnits="userSpaceOnUse" x1="34.2892" y1="71.3565" x2="42.9973" y2="71.3565">
			<stop  offset="0" style="stop-color:#FF4100"/>
			<stop  offset="1" style="stop-color:#EF7E4B"/>
		</linearGradient>
		<ellipse style="fill:url(#SVGID_00000107589742594793999730000007014591811798574720_);" cx="38.8" cy="71.4" rx="4.4" ry="4.2"/>
	</g>
	<g>
		
			<linearGradient id="SVGID_00000179618069055899493480000004725321882461678474_" gradientUnits="userSpaceOnUse" x1="46.4459" y1="77.1929" x2="61.1073" y2="77.1929">
			<stop  offset="0" style="stop-color:#FF4100"/>
			<stop  offset="1" style="stop-color:#EF7E4B"/>
		</linearGradient>
		<ellipse style="fill:url(#SVGID_00000179618069055899493480000004725321882461678474_);" cx="54.1" cy="77.2" rx="7.3" ry="7.1"/>
		
			<linearGradient id="SVGID_00000085228572924454980700000009531536228561822121_" gradientUnits="userSpaceOnUse" x1="58.1834" y1="78.563" x2="72.8448" y2="78.563">
			<stop  offset="0" style="stop-color:#FF4100"/>
			<stop  offset="1" style="stop-color:#EF7E4B"/>
		</linearGradient>
		<ellipse style="fill:url(#SVGID_00000085228572924454980700000009531536228561822121_);" cx="65.9" cy="78.6" rx="7.3" ry="7.1"/>
		
			<linearGradient id="SVGID_00000124129005634907035630000003975022769011784369_" gradientUnits="userSpaceOnUse" x1="55.6462" y1="69.6702" x2="64.3543" y2="69.6702">
			<stop  offset="0" style="stop-color:#FF4100"/>
			<stop  offset="1" style="stop-color:#EF7E4B"/>
		</linearGradient>
		<ellipse style="fill:url(#SVGID_00000124129005634907035630000003975022769011784369_);" cx="60.2" cy="69.7" rx="4.4" ry="4.2"/>
	</g>
	<g>
		
			<linearGradient id="SVGID_00000114763521677124046510000016372446261039029642_" gradientUnits="userSpaceOnUse" x1="-555.2382" y1="-1631.0033" x2="-540.5767" y2="-1631.0033" gradientTransform="matrix(-0.9918 0.1276 -0.1276 -0.9918 -683.216 -1492.4181)">
			<stop  offset="0" style="stop-color:#FF4100"/>
			<stop  offset="1" style="stop-color:#EF7E4B"/>
		</linearGradient>
		<path style="fill:url(#SVGID_00000114763521677124046510000016372446261039029642_);" d="M60.7,56.3c-0.5-3.9,2.4-7.4,6.4-7.9
			s7.7,2.2,8.2,6.1s-2.4,7.4-6.4,7.9C64.8,62.9,61.2,60.2,60.7,56.3z"/>
		
			<linearGradient id="SVGID_00000067197358083743413220000003861555095544365451_" gradientUnits="userSpaceOnUse" x1="-543.5006" y1="-1629.6332" x2="-528.8392" y2="-1629.6332" gradientTransform="matrix(-0.9918 0.1276 -0.1276 -0.9918 -683.216 -1492.4181)">
			<stop  offset="0" style="stop-color:#FF4100"/>
			<stop  offset="1" style="stop-color:#EF7E4B"/>
		</linearGradient>
		<path style="fill:url(#SVGID_00000067197358083743413220000003861555095544365451_);" d="M48.9,56.5c-0.5-3.9,2.4-7.4,6.4-7.9
			c4-0.5,7.7,2.2,8.2,6.1S61,62,57,62.5C53,63.1,49.4,60.3,48.9,56.5z"/>
		
			<linearGradient id="SVGID_00000031166501774330288800000008699290339267665287_" gradientUnits="userSpaceOnUse" x1="-546.0378" y1="-1638.526" x2="-537.3297" y2="-1638.526" gradientTransform="matrix(-0.9918 0.1276 -0.1276 -0.9918 -683.216 -1492.4181)">
			<stop  offset="0" style="stop-color:#FF4100"/>
			<stop  offset="1" style="stop-color:#EF7E4B"/>
		</linearGradient>
		<path style="fill:url(#SVGID_00000031166501774330288800000008699290339267665287_);" d="M58.5,64.2c-0.3-2.3,1.4-4.4,3.8-4.7
			c2.4-0.3,4.6,1.3,4.9,3.6c0.3,2.3-1.4,4.4-3.8,4.7C61,68.1,58.8,66.5,58.5,64.2z"/>
	</g>
	<g>
		
			<linearGradient id="SVGID_00000144338008709603369840000012029972442237894041_" gradientUnits="userSpaceOnUse" x1="-531.5302" y1="-1633.553" x2="-516.8688" y2="-1633.553" gradientTransform="matrix(-0.9918 0.1276 -0.1276 -0.9918 -683.216 -1492.4181)">
			<stop  offset="0" style="stop-color:#FF4100"/>
			<stop  offset="1" style="stop-color:#EF7E4B"/>
		</linearGradient>
		<path style="fill:url(#SVGID_00000144338008709603369840000012029972442237894041_);" d="M37.5,61.9C37,58,39.8,54.5,43.9,54
			c4-0.5,7.7,2.2,8.2,6.1s-2.4,7.4-6.4,7.9S38,65.8,37.5,61.9z"/>
		
			<linearGradient id="SVGID_00000147216939623615785210000003124702166822291109_" gradientUnits="userSpaceOnUse" x1="-519.7926" y1="-1632.183" x2="-505.1312" y2="-1632.183" gradientTransform="matrix(-0.9918 0.1276 -0.1276 -0.9918 -683.216 -1492.4181)">
			<stop  offset="0" style="stop-color:#FF4100"/>
			<stop  offset="1" style="stop-color:#EF7E4B"/>
		</linearGradient>
		<path style="fill:url(#SVGID_00000147216939623615785210000003124702166822291109_);" d="M25.7,62c-0.5-3.9,2.4-7.4,6.4-7.9
			s7.7,2.2,8.2,6.1s-2.4,7.4-6.4,7.9C29.8,68.6,26.2,65.9,25.7,62z"/>
		
			<linearGradient id="SVGID_00000047031990438079048490000013123704127027271089_" gradientUnits="userSpaceOnUse" x1="-522.3298" y1="-1641.0758" x2="-513.6217" y2="-1641.0758" gradientTransform="matrix(-0.9918 0.1276 -0.1276 -0.9918 -683.216 -1492.4181)">
			<stop  offset="0" style="stop-color:#FF4100"/>
			<stop  offset="1" style="stop-color:#EF7E4B"/>
		</linearGradient>
		<path style="fill:url(#SVGID_00000047031990438079048490000013123704127027271089_);" d="M35.4,69.8c-0.3-2.3,1.4-4.4,3.8-4.7
			c2.4-0.3,4.6,1.3,4.9,3.6c0.3,2.3-1.4,4.4-3.8,4.7C37.8,73.7,35.7,72,35.4,69.8z"/>
	</g>
	<g>
		
			<linearGradient id="SVGID_00000122701452458578189200000011187875267682205322_" gradientUnits="userSpaceOnUse" x1="-586.481" y1="-1641.7446" x2="-571.8196" y2="-1641.7446" gradientTransform="matrix(-0.9918 0.1276 -0.1276 -0.9918 -683.216 -1492.4181)">
			<stop  offset="0" style="stop-color:#FF4100"/>
			<stop  offset="1" style="stop-color:#EF7E4B"/>
		</linearGradient>
		<path style="fill:url(#SVGID_00000122701452458578189200000011187875267682205322_);" d="M93,63c-0.5-3.9,2.4-7.4,6.4-7.9
			c4-0.5,7.7,2.2,8.2,6.1c0.5,3.9-2.4,7.4-6.4,7.9S93.5,66.9,93,63z"/>
		
			<linearGradient id="SVGID_00000074421169205589412650000013287268302466312360_" gradientUnits="userSpaceOnUse" x1="-574.7435" y1="-1640.3746" x2="-560.0821" y2="-1640.3746" gradientTransform="matrix(-0.9918 0.1276 -0.1276 -0.9918 -683.216 -1492.4181)">
			<stop  offset="0" style="stop-color:#FF4100"/>
			<stop  offset="1" style="stop-color:#EF7E4B"/>
		</linearGradient>
		<path style="fill:url(#SVGID_00000074421169205589412650000013287268302466312360_);" d="M81.2,63.1c-0.5-3.9,2.4-7.4,6.4-7.9
			c4-0.5,7.7,2.2,8.2,6.1c0.5,3.9-2.4,7.4-6.4,7.9C85.4,69.7,81.7,67,81.2,63.1z"/>
		
			<linearGradient id="SVGID_00000140706379915158351650000000200079159155907991_" gradientUnits="userSpaceOnUse" x1="-577.2807" y1="-1649.2675" x2="-568.5726" y2="-1649.2675" gradientTransform="matrix(-0.9918 0.1276 -0.1276 -0.9918 -683.216 -1492.4181)">
			<stop  offset="0" style="stop-color:#FF4100"/>
			<stop  offset="1" style="stop-color:#EF7E4B"/>
		</linearGradient>
		<path style="fill:url(#SVGID_00000140706379915158351650000000200079159155907991_);" d="M90.9,70.9c-0.3-2.3,1.4-4.4,3.8-4.7
			c2.4-0.3,4.6,1.3,4.9,3.6c0.3,2.3-1.4,4.4-3.8,4.7C93.4,74.8,91.2,73.2,90.9,70.9z"/>
	</g>
	<g>
		
			<linearGradient id="SVGID_00000021094263855976196010000004096020362277947529_" gradientUnits="userSpaceOnUse" x1="-572.6682" y1="-1645.3866" x2="-558.0068" y2="-1645.3866" gradientTransform="matrix(-0.9918 0.1276 -0.1276 -0.9918 -683.216 -1492.4181)">
			<stop  offset="0" style="stop-color:#FF4100"/>
			<stop  offset="1" style="stop-color:#EF7E4B"/>
		</linearGradient>
		<path style="fill:url(#SVGID_00000021094263855976196010000004096020362277947529_);" d="M79.8,68.4c-0.5-3.9,2.4-7.4,6.4-7.9
			s7.7,2.2,8.2,6.1c0.5,3.9-2.4,7.4-6.4,7.9S80.3,72.3,79.8,68.4z"/>
		
			<linearGradient id="SVGID_00000050628629320881919030000002818257040201330080_" gradientUnits="userSpaceOnUse" x1="-560.9307" y1="-1644.0166" x2="-546.2693" y2="-1644.0166" gradientTransform="matrix(-0.9918 0.1276 -0.1276 -0.9918 -683.216 -1492.4181)">
			<stop  offset="0" style="stop-color:#FF4100"/>
			<stop  offset="1" style="stop-color:#EF7E4B"/>
		</linearGradient>
		<path style="fill:url(#SVGID_00000050628629320881919030000002818257040201330080_);" d="M68,68.5c-0.5-3.9,2.4-7.4,6.4-7.9
			c4-0.5,7.7,2.2,8.2,6.1c0.5,3.9-2.4,7.4-6.4,7.9S68.5,72.4,68,68.5z"/>
		
			<linearGradient id="SVGID_00000160874318590393277780000008250261077415017402_" gradientUnits="userSpaceOnUse" x1="-563.4679" y1="-1652.9094" x2="-554.7598" y2="-1652.9094" gradientTransform="matrix(-0.9918 0.1276 -0.1276 -0.9918 -683.216 -1492.4181)">
			<stop  offset="0" style="stop-color:#FF4100"/>
			<stop  offset="1" style="stop-color:#EF7E4B"/>
		</linearGradient>
		<path style="fill:url(#SVGID_00000160874318590393277780000008250261077415017402_);" d="M77.7,76.2c-0.3-2.3,1.4-4.4,3.8-4.7
			c2.4-0.3,4.6,1.3,4.9,3.6c0.3,2.3-1.4,4.4-3.8,4.7C80.1,80.2,78,78.5,77.7,76.2z"/>
	</g>
	<g>
		
			<linearGradient id="SVGID_00000133526039264157702440000013136834998661039247_" gradientUnits="userSpaceOnUse" x1="-577.3762" y1="-1640.5736" x2="-562.7147" y2="-1640.5736" gradientTransform="matrix(-0.9918 0.1276 -0.1276 -0.9918 -683.216 -1492.4181)">
			<stop  offset="0" style="stop-color:#FF4100"/>
			<stop  offset="1" style="stop-color:#EF7E4B"/>
		</linearGradient>
		<path style="fill:url(#SVGID_00000133526039264157702440000013136834998661039247_);" d="M83.9,63c-0.5-3.9,2.4-7.4,6.4-7.9
			c4-0.5,7.7,2.2,8.2,6.1c0.5,3.9-2.4,7.4-6.4,7.9C88,69.6,84.3,66.9,83.9,63z"/>
		
			<linearGradient id="SVGID_00000144300809703101603080000013614021309417700739_" gradientUnits="userSpaceOnUse" x1="-565.6386" y1="-1639.2035" x2="-550.9772" y2="-1639.2035" gradientTransform="matrix(-0.9918 0.1276 -0.1276 -0.9918 -683.216 -1492.4181)">
			<stop  offset="0" style="stop-color:#FF4100"/>
			<stop  offset="1" style="stop-color:#EF7E4B"/>
		</linearGradient>
		<path style="fill:url(#SVGID_00000144300809703101603080000013614021309417700739_);" d="M72,63.1c-0.5-3.9,2.4-7.4,6.4-7.9
			c4-0.5,7.7,2.2,8.2,6.1s-2.4,7.4-6.4,7.9C76.2,69.7,72.5,67,72,63.1z"/>
		
			<linearGradient id="SVGID_00000090291027677368479070000013123437202709762739_" gradientUnits="userSpaceOnUse" x1="-568.1758" y1="-1648.0963" x2="-559.4677" y2="-1648.0963" gradientTransform="matrix(-0.9918 0.1276 -0.1276 -0.9918 -683.216 -1492.4181)">
			<stop  offset="0" style="stop-color:#FF4100"/>
			<stop  offset="1" style="stop-color:#EF7E4B"/>
		</linearGradient>
		<path style="fill:url(#SVGID_00000090291027677368479070000013123437202709762739_);" d="M81.7,70.9c-0.3-2.3,1.4-4.4,3.8-4.7
			c2.4-0.3,4.6,1.3,4.9,3.6c0.3,2.3-1.4,4.4-3.8,4.7C84.2,74.8,82,73.2,81.7,70.9z"/>
	</g>
	<g>
		
			<linearGradient id="SVGID_00000056393957781386834970000002722934682712414090_" gradientUnits="userSpaceOnUse" x1="-1127.9935" y1="270.7605" x2="-1113.3322" y2="270.7605" gradientTransform="matrix(0.289 -0.5948 0.6256 0.304 178.7188 -671.5289)">
			<stop  offset="0" style="stop-color:#FF4100"/>
			<stop  offset="1" style="stop-color:#EF7E4B"/>
		</linearGradient>
		<path style="fill:url(#SVGID_00000056393957781386834970000002722934682712414090_);" d="M26.5,72.8c2.4,1.2,3.5,4.1,2.3,6.5
			s-4.1,3.4-6.5,2.2s-3.5-4.1-2.3-6.5S24,71.6,26.5,72.8z"/>
		
			<linearGradient id="SVGID_00000077303272286498027770000007081176525408478644_" gradientUnits="userSpaceOnUse" x1="-1116.256" y1="272.1305" x2="-1101.5946" y2="272.1305" gradientTransform="matrix(0.289 -0.5948 0.6256 0.304 178.7188 -671.5289)">
			<stop  offset="0" style="stop-color:#FF4100"/>
			<stop  offset="1" style="stop-color:#EF7E4B"/>
		</linearGradient>
		<path style="fill:url(#SVGID_00000077303272286498027770000007081176525408478644_);" d="M30.7,66.2c2.4,1.2,3.5,4.1,2.3,6.5
			s-4.1,3.4-6.5,2.2s-3.5-4.1-2.3-6.5S28.3,65,30.7,66.2z"/>
		
			<linearGradient id="SVGID_00000068656010690504181930000010364894472333527685_" gradientUnits="userSpaceOnUse" x1="-1118.7932" y1="263.2377" x2="-1110.0851" y2="263.2377" gradientTransform="matrix(0.289 -0.5948 0.6256 0.304 178.7188 -671.5289)">
			<stop  offset="0" style="stop-color:#FF4100"/>
			<stop  offset="1" style="stop-color:#EF7E4B"/>
		</linearGradient>
		<path style="fill:url(#SVGID_00000068656010690504181930000010364894472333527685_);" d="M22.6,68.7c1.4,0.7,2.1,2.4,1.4,3.9
			c-0.7,1.4-2.4,2-3.9,1.3c-1.4-0.7-2.1-2.4-1.4-3.9C19.5,68.5,21.2,67.9,22.6,68.7z"/>
	</g>
	<path class="st27" d="M14.8,75.9c0,0,25.8,10.5,42.1,5c16.3-5.5,52.4-13.9,52.4-13.9s4.3,56-5.2,62.7c-9.5,6.7-62.4,15.2-62.4,15.2
		s-21.9-1.7-29.3-7.6C5.1,131.5,14.8,75.9,14.8,75.9z"/>
	<path class="st0" d="M14.8,75.9c0,0,19.7,8,30.9,6.5c11.2-1.5,20.1,39.3,38.1,37.5c18-1.9,24.9-1.6,24.9-1.6s0.3,14.8-16.2,16.1
		c0,0-44.2,9.3-50.8,10.6c-6.6,1.3-25.6-5-29.2-7.6C8.8,134.7,10.1,100.5,14.8,75.9z"/>
	<path class="st28" d="M70.4,76.9l38.9-9.8c0,0,1.2,29.1,1,33.2c-0.1,2.7-13-3.3-21.6-7.6c-4.9-2.4-9.2-5.8-12.9-9.8L70.4,76.9z"/>
	<path class="st29" d="M81.8,77.4l26-6.6c0,0,0.8,19.5,0.7,22.2c-0.1,1.8-8.7-2.2-14.4-5.1c-3.2-1.6-6.2-3.9-8.6-6.5L81.8,77.4z"/>
	<path class="st30" d="M30.2,56.3c0.5-0.9,1.4-1.4,2.4-1.2c1.8,0.3,4.7,1.3,6.1,4.5C41,64.7,29.5,57.6,30.2,56.3L30.2,56.3z"/>
	<path class="st30" d="M52.8,50.9c0.5-0.9,1.4-1.4,2.4-1.2c1.8,0.3,4.7,1.3,6.1,4.5C63.6,59.3,52.1,52.2,52.8,50.9L52.8,50.9z"/>
	<path class="st30" d="M76.4,58.1c0.5-0.9,1.4-1.4,2.4-1.2c1.8,0.3,4.7,1.3,6.1,4.5C87.1,66.5,75.7,59.4,76.4,58.1L76.4,58.1z"/>
	<path class="st30" d="M41.7,56.3c0.5-0.9,1.4-1.4,2.4-1.2c1.8,0.3,4.7,1.3,6.1,4.5C52.5,64.7,41,57.6,41.7,56.3L41.7,56.3z"/>
	<path class="st30" d="M64.6,49.9c0.5-0.9,1.4-1.4,2.4-1.2c1.8,0.3,4.7,1.3,6.1,4.5C75.4,58.3,63.9,51.2,64.6,49.9L64.6,49.9z"/>
	<path class="st30" d="M88.5,57.3c0.5-0.9,1.4-1.4,2.4-1.2c1.8,0.3,4.7,1.3,6.1,4.5C99.3,65.7,87.8,58.6,88.5,57.3L88.5,57.3z"/>
	<path class="st30" d="M98.8,57.3c0.5-0.9,1.4-1.4,2.4-1.2c1.8,0.3,4.7,1.3,6.1,4.5C109.6,65.7,98.1,58.6,98.8,57.3L98.8,57.3z"/>
</g>
</svg>
