<?xml version="1.0" encoding="utf-8"?>
<!-- Generator: Adobe Illustrator 26.0.1, SVG Export Plug-In . SVG Version: 6.00 Build 0)  -->
<svg version="1.1" id="Layer_1" xmlns="http://www.w3.org/2000/svg" xmlns:xlink="http://www.w3.org/1999/xlink" x="0px" y="0px"
	 viewBox="0 0 120 180" style="enable-background:new 0 0 120 180;" xml:space="preserve">
<style type="text/css">
	.st0{fill:#FFFFFF;}
	.st1{fill:#F7F7F7;}
	.st2{fill:#EDEDED;}
	.st3{fill:#FF732B;}
	.st4{fill:#F2D8AE;}
	.st5{fill:#EDDDCA;}
	.st6{fill:url(#SVGID_1_);}
	.st7{fill:none;stroke:#FF767B;stroke-width:2;stroke-miterlimit:10;}
	.st8{fill:url(#SVGID_00000111192728725584654300000010772685515013580933_);}
	.st9{fill:none;stroke:#002300;stroke-miterlimit:10;}
	.st10{fill:#002300;}
	.st11{opacity:0.61;fill:#001900;}
	.st12{fill:#FF6F00;}
	.st13{fill:none;stroke:#F7F7F7;stroke-miterlimit:10;}
	.st14{fill:none;stroke:#002300;stroke-width:5;stroke-miterlimit:10;}
	.st15{opacity:4.000000e-02;fill:#FFFFFF;}
	.st16{fill:url(#SVGID_00000137132524489928037890000017415782992861645995_);}
	.st17{fill:url(#SVGID_00000136408476090855734180000013294343546110900646_);}
</style>
<g>
	<path class="st0" d="M15.6,65.2c-3.9,6-6,13-6.3,20.1C8.9,95,11,108.6,24.9,112.8c22.4,6.8,34.2,8.3,36.1,7.3
		c1.5-0.9,12.6-3.6,17.2-20.8c2-7.5,1.2-15.5-2-22.6C72.2,68.3,65.5,57.4,56,55.3C42.4,52.2,26.6,48.2,15.6,65.2z"/>
	<path class="st1" d="M53.5,58.6c0,0,25.7,24.1,16.7,37.9c-8.9,13.8-9.9,14.5-13.3,15.5c-3.4,1-13.7,5.9-13.7,5.9s14.4,2.9,16.1,2.6
		c1.7-0.3,13.9-4.2,16-14.9s1.5-15-1-26.2c0,0-2.1-4.4-3.8-5.3c-1.7-1-0.9-3.2-5-6.4C61.5,64.6,63.9,60.3,53.5,58.6z"/>
	<path class="st2" d="M60.1,63.1c0,0,19.6,20.6,12.8,32.4s-3.4,11.3-11.7,17.3c-2.2,1.6-13.8,6-13.8,6s10.9,2.2,14.8,1
		c1.3-0.4,13-7.5,14.6-16.6s1.1-12.8-0.8-22.4c0,0-1.6-3.7-2.9-4.6c-1.3-0.8-0.7-2.8-3.9-5.4C66.2,68.2,68,64.6,60.1,63.1z"/>
	<path class="st3" d="M23.5,79c0,0,3.9,7.8,8.6,8.4c4.7,0.6,4.7-3.1,4.7-3.1l-1.4-11.1C35.4,73.2,25.6,74.9,23.5,79z"/>
	<path class="st4" d="M35.2,73.2c-0.5,0.3,2.3,9.7,1.2,11.3c-1,1.6,9.9-3.9,15.2,0c0,0,3.1-9.9,3.1-11.3S41.7,69.1,35.2,73.2z"/>
	<path class="st5" d="M37.1,74.2c-0.4,0.3,1.8,7.7,1,9c-0.8,1.3,7.9-3.1,12.1,0c0,0,2.5-7.9,2.5-9C52.7,73,42.4,70.9,37.1,74.2z"/>
	<linearGradient id="SVGID_1_" gradientUnits="userSpaceOnUse" x1="40.6169" y1="94.7378" x2="62.0384" y2="94.7378">
		<stop  offset="0" style="stop-color:#FFFFFF"/>
		<stop  offset="1" style="stop-color:#FF767B"/>
	</linearGradient>
	<path class="st6" d="M48.1,81.5c0,0-11.1,10.6-6.3,16.3c4.8,5.7,4.4,1.5,10.8,10.6S62,91.7,62,91.7s0.4-10-2.8-11.5
		C56.1,78.7,50.8,78.5,48.1,81.5z"/>
	<path class="st7" d="M48.1,81.5c0,0-11.1,10.6-6.3,16.3c4.8,5.7,4.4,1.5,10.8,10.6S62,91.7,62,91.7s0.4-10-2.8-11.5
		C56.1,78.7,50.8,78.5,48.1,81.5z"/>
	
		<linearGradient id="SVGID_00000093858091508467246800000004524286162326361000_" gradientUnits="userSpaceOnUse" x1="23.0659" y1="91.2256" x2="46.7456" y2="91.2256">
		<stop  offset="6.047002e-03" style="stop-color:#002300"/>
		<stop  offset="1" style="stop-color:#C6FFC9"/>
	</linearGradient>
	<path style="fill:url(#SVGID_00000093858091508467246800000004524286162326361000_);" d="M31.5,100.3l-8.4-6.2
		c0,0,3.5-6.8,6.3-10.1s14.1-1.2,14.1-1.2h3.3c0,0-3.3,9.9-3.6,10.6c-0.3,0.7-4,6.9-4,6.9H31.5z"/>
	<path class="st9" d="M15.6,65.2c-3.9,6-6,13-6.3,20.1C8.9,95,11,108.6,24.9,112.8c22.4,6.8,34.2,8.3,36.1,7.3
		c1.5-0.9,12.6-3.6,17.2-20.8c2-7.5,1.2-15.5-2-22.6C72.2,68.3,65.5,57.4,56,55.3C42.4,52.2,26.6,48.2,15.6,65.2z"/>
	<path class="st10" d="M21.1,58.3l0.5-1.3c0.7-1.8,2-3.3,3.7-4.2c1.3-0.7,3-1.9,5.2-3.8c5.1-4.3,23.2-7.6,34.9,2.5
		c0,0,13.4,5.1,18.5,17.1c0,0,4.6,16.5,0,26.5c-2.7,5.9-4.2,9.2-4.9,10.9c-0.4,1-1.3,1.8-2.3,2.2l-2.9,1.5c0,0,4.9-10.8,3.2-18.2
		s-2.7-12.2-2.7-12.2s-2-3.8-3.8-5.3c-1.8-1.5,0.3-4.1-5-6.4c0,0-3.4-5.1-6.7-7.1c-2.4-1.5-14.8-4.5-21.2-6c-2.4-0.6-5-0.4-7.4,0.5
		L21.1,58.3z"/>
	<path class="st11" d="M73.8,109.7c0,0,8.2-13.8,8.7-18.5C83,86.5,75.6,62,71.4,59.7c-4.2-2.3-18.9-10.9-24.3-10.2
		C41.8,50.2,30.5,49,30.5,49s17.3-11.5,37.1,3.5c0,0,12.5,5.6,15.8,14.7c3.2,9.2,3.2,20.1,1.9,24c-1.3,3.9-6.9,15.9-6.9,15.9
		L73.8,109.7z"/>
	<g>
		<circle class="st12" cx="41.3" cy="101.2" r="1.9"/>
		<circle class="st12" cx="43.6" cy="98.4" r="1.9"/>
		<circle class="st12" cx="44.2" cy="102.5" r="1.9"/>
		<circle class="st12" cx="47.9" cy="102.1" r="1.9"/>
		<circle class="st12" cx="44.9" cy="100.3" r="1.9"/>
		<circle class="st12" cx="38.7" cy="101.2" r="1.9"/>
		<circle class="st12" cx="41.8" cy="99" r="1.9"/>
	</g>
	<g>
		<circle class="st12" cx="37.4" cy="99.1" r="1.9"/>
		<circle class="st12" cx="35.7" cy="102.2" r="1.9"/>
		<circle class="st12" cx="34.3" cy="98.3" r="1.9"/>
		<circle class="st12" cx="30.7" cy="99.3" r="1.9"/>
		<circle class="st12" cx="34.1" cy="100.6" r="1.9"/>
		<circle class="st12" cx="40" cy="98.6" r="1.9"/>
		<circle class="st12" cx="37.4" cy="101.2" r="1.9"/>
	</g>
	<path class="st13" d="M26.4,76.2c0,0-1.2,4.1-1,5.9"/>
	<path class="st13" d="M28.9,75.1c0,0-2.5,8.5-1.5,9.4"/>
	<path class="st13" d="M32.6,73.9c0,0-2.8,6.3-1.9,9.2"/>
	<path class="st13" d="M35.1,75.1c0,0-2.3,5-1.3,7.1"/>
	<path class="st13" d="M35.9,79.2c0,0-1.6,2-0.8,3"/>
	<path class="st14" d="M23.4,94c0,0,4.8-10.4,8.2-11s9.3-0.7,15,0"/>
	<path class="st15" d="M42.9,46.9c7.1-0.3,19.7,3.4,23.4,5.5c3.7,2.1,17,14.9,8.6,12.5c-1.2-0.3-24.1-10.5-27-10.2
		C45,55.1,34,53,35.1,50.2C36.2,47.5,42.9,46.9,42.9,46.9z"/>
	<path class="st15" d="M45.3,48.5c3.2-0.1,8.8,1.5,10.5,2.4s7.6,6.6,3.9,5.6c-0.5-0.2-10.8-4.7-12.1-4.5c-1.3,0.2-6.2-0.8-5.7-2
		S45.3,48.5,45.3,48.5z"/>
</g>
<g>
	<path class="st0" d="M43.2,93c-3.9,6-6,13-6.3,20.1c-0.4,9.6,1.7,23.2,15.7,27.5c22.4,6.8,34.2,8.3,36.1,7.3
		c1.5-0.9,12.6-3.6,17.2-20.8c2-7.5,1.2-15.5-2-22.6c-3.9-8.4-10.7-19.3-20.1-21.4C70.1,80,54.2,76.1,43.2,93z"/>
	<path class="st1" d="M81.2,86.4c0,0,25.7,24.1,16.7,37.9s-9.9,14.5-13.3,15.5s-13.7,5.9-13.7,5.9s14.4,2.9,16.1,2.6
		s13.9-4.2,16-14.9c2.1-10.6,1.5-15-1-26.2c0,0-2.1-4.4-3.8-5.3c-1.7-1-0.9-3.2-5-6.4C89.2,92.5,91.6,88.2,81.2,86.4z"/>
	<path class="st2" d="M87.7,90.9c0,0,19.6,20.6,12.8,32.4c-6.8,11.8-3.4,11.3-11.7,17.3c-2.2,1.6-13.8,6-13.8,6s10.9,2.2,14.8,1
		c1.3-0.4,13-7.5,14.6-16.6s1.1-12.8-0.8-22.4c0,0-1.6-3.7-2.9-4.6s-0.7-2.8-3.9-5.4C93.8,96.1,95.7,92.4,87.7,90.9z"/>
	<path class="st3" d="M51.2,106.8c0,0,3.9,7.8,8.6,8.4c4.7,0.6,4.7-3.1,4.7-3.1l-1.4-11.1C63.1,101.1,53.2,102.7,51.2,106.8z"/>
	<path class="st4" d="M62.8,101.1c-0.5,0.3,2.3,9.7,1.2,11.3c-1,1.6,9.9-3.9,15.2,0c0,0,3.1-9.9,3.1-11.3
		C82.3,99.6,69.4,97,62.8,101.1z"/>
	<path class="st5" d="M64.8,102c-0.4,0.3,1.8,7.7,1,9s7.9-3.1,12.1,0c0,0,2.5-7.9,2.5-9C80.4,100.9,70,98.7,64.8,102z"/>
	
		<linearGradient id="SVGID_00000079471325418505833670000016079051037854562495_" gradientUnits="userSpaceOnUse" x1="68.275" y1="122.5788" x2="89.6965" y2="122.5788">
		<stop  offset="0" style="stop-color:#FFFFFF"/>
		<stop  offset="1" style="stop-color:#FF767B"/>
	</linearGradient>
	<path style="fill:url(#SVGID_00000079471325418505833670000016079051037854562495_);" d="M75.8,109.3c0,0-11.1,10.6-6.3,16.3
		s4.4,1.5,10.8,10.6c6.4,9.1,9.4-16.7,9.4-16.7s0.4-10-2.8-11.5C83.8,106.6,78.5,106.4,75.8,109.3z"/>
	<path class="st7" d="M75.8,109.3c0,0-11.1,10.6-6.3,16.3s4.4,1.5,10.8,10.6c6.4,9.1,9.4-16.7,9.4-16.7s0.4-10-2.8-11.5
		C83.8,106.6,78.5,106.4,75.8,109.3z"/>
	
		<linearGradient id="SVGID_00000003093684601276400920000017119491841006588597_" gradientUnits="userSpaceOnUse" x1="50.7241" y1="119.0666" x2="74.4037" y2="119.0666">
		<stop  offset="6.047002e-03" style="stop-color:#002300"/>
		<stop  offset="1" style="stop-color:#C6FFC9"/>
	</linearGradient>
	<path style="fill:url(#SVGID_00000003093684601276400920000017119491841006588597_);" d="M59.2,128.1l-8.4-6.2
		c0,0,3.5-6.8,6.3-10.1c2.8-3.2,14.1-1.2,14.1-1.2h3.3c0,0-3.3,9.9-3.6,10.6c-0.3,0.7-4,6.9-4,6.9H59.2z"/>
	<path class="st9" d="M43.2,93c-3.9,6-6,13-6.3,20.1c-0.4,9.6,1.7,23.2,15.7,27.5c22.4,6.8,34.2,8.3,36.1,7.3
		c1.5-0.9,12.6-3.6,17.2-20.8c2-7.5,1.2-15.5-2-22.6c-3.9-8.4-10.7-19.3-20.1-21.4C70.1,80,54.2,76.1,43.2,93z"/>
	<path class="st10" d="M48.7,86.2l0.5-1.3c0.7-1.8,2-3.3,3.7-4.2c1.3-0.7,3-1.9,5.2-3.8c5.1-4.3,23.2-7.6,34.9,2.5
		c0,0,13.4,5.1,18.5,17.1c0,0,4.6,16.5,0,26.5c-2.7,5.9-4.2,9.2-4.9,10.9c-0.4,1-1.3,1.8-2.3,2.2l-2.9,1.5c0,0,4.9-10.8,3.2-18.2
		c-1.7-7.4-2.7-12.2-2.7-12.2s-2-3.8-3.8-5.3c-1.8-1.5,0.3-4.1-5-6.4c0,0-3.4-5.1-6.7-7.1c-2.4-1.5-14.8-4.5-21.2-6
		c-2.4-0.6-5-0.4-7.4,0.5L48.7,86.2z"/>
	<path class="st11" d="M101.4,137.5c0,0,8.2-13.8,8.7-18.5c0.5-4.7-6.9-29.2-11.1-31.5c-4.2-2.3-18.9-10.9-24.3-10.2
		s-16.7-0.5-16.7-0.5s17.3-11.5,37.1,3.5c0,0,12.5,5.6,15.8,14.7c3.2,9.2,3.2,20.1,1.9,24c-1.3,3.9-6.9,15.9-6.9,15.9L101.4,137.5z"
		/>
	<g>
		<circle class="st12" cx="69" cy="129" r="1.9"/>
		<circle class="st12" cx="71.3" cy="126.3" r="1.9"/>
		<circle class="st12" cx="71.9" cy="130.3" r="1.9"/>
		<circle class="st12" cx="75.6" cy="130" r="1.9"/>
		<circle class="st12" cx="72.6" cy="128.1" r="1.9"/>
		<circle class="st12" cx="66.4" cy="129" r="1.9"/>
		<circle class="st12" cx="69.4" cy="126.9" r="1.9"/>
	</g>
	<g>
		<circle class="st12" cx="65.1" cy="126.9" r="1.9"/>
		<circle class="st12" cx="63.3" cy="130" r="1.9"/>
		<circle class="st12" cx="62" cy="126.1" r="1.9"/>
		<circle class="st12" cx="58.4" cy="127.2" r="1.9"/>
		<circle class="st12" cx="61.7" cy="128.4" r="1.9"/>
		<circle class="st12" cx="67.6" cy="126.4" r="1.9"/>
		<circle class="st12" cx="65" cy="129.1" r="1.9"/>
	</g>
	<path class="st13" d="M54.1,104.1c0,0-1.2,4.1-1,5.9"/>
	<path class="st13" d="M56.5,102.9c0,0-2.5,8.5-1.5,9.4"/>
	<path class="st13" d="M60.2,101.7c0,0-2.8,6.3-1.9,9.2"/>
	<path class="st13" d="M62.8,102.9c0,0-2.3,5-1.3,7.1"/>
	<path class="st13" d="M63.6,107c0,0-1.6,2-0.8,3"/>
	<path class="st14" d="M51,121.9c0,0,4.8-10.4,8.2-11s9.3-0.7,15,0"/>
	<path class="st15" d="M70.5,74.8c7.1-0.3,19.7,3.4,23.4,5.5c3.7,2.1,17,14.9,8.6,12.5c-1.2-0.3-24.1-10.5-27-10.2
		c-2.9,0.4-13.9-1.7-12.8-4.5C63.8,75.4,70.5,74.8,70.5,74.8z"/>
	<path class="st15" d="M73,76.3c3.2-0.1,8.8,1.5,10.5,2.4c1.7,0.9,7.6,6.6,3.9,5.6c-0.5-0.2-10.8-4.7-12.1-4.5s-6.2-0.8-5.7-2
		C70,76.6,73,76.3,73,76.3z"/>
</g>
</svg>
