<?xml version="1.0" encoding="utf-8"?>
<!-- Generator: Adobe Illustrator 26.0.1, SVG Export Plug-In . SVG Version: 6.00 Build 0)  -->
<svg version="1.1" id="Layer_1" xmlns="http://www.w3.org/2000/svg" xmlns:xlink="http://www.w3.org/1999/xlink" x="0px" y="0px"
	 viewBox="0 0 120 180" style="enable-background:new 0 0 120 180;" xml:space="preserve">
<style type="text/css">
	.st0{fill:url(#SVGID_1_);}
	.st1{fill:#FF6C77;}
	.st2{fill:#FF767B;}
	.st3{opacity:0.54;fill:#FF4D6B;}
	.st4{fill:#FF5A66;}
	.st5{fill:none;stroke:#FFFFFF;stroke-miterlimit:10;}
	.st6{fill:#FFFFFF;}
	.st7{fill:#FF8D95;}
	.st8{fill:url(#SVGID_00000170246176030452613850000016588040061797405104_);}
	.st9{fill:url(#SVGID_00000150823290248510603190000007645625086969753018_);}
	.st10{fill:url(#SVGID_00000016070400419583651150000000731738921116896398_);}
	.st11{fill:url(#SVGID_00000032617941214154207700000010043279865928739747_);}
	.st12{fill:url(#SVGID_00000149340211087952377290000017333791124896793995_);}
	.st13{fill:url(#SVGID_00000093899613969540170730000017188161166839592071_);}
	.st14{fill:url(#SVGID_00000057843229698163634490000004085182375087095737_);}
	.st15{fill:url(#SVGID_00000035503596307495777700000007017893788853398435_);}
	.st16{fill:url(#SVGID_00000075850196282510312390000012800952558260798347_);}
	.st17{fill:url(#SVGID_00000083054463969486343790000013207328661728008090_);}
	.st18{fill:url(#SVGID_00000129174711227318508340000010119574048816007359_);}
	.st19{fill:url(#SVGID_00000014635453238971620370000003920464256539104187_);}
	.st20{fill:url(#SVGID_00000098924763353172026360000014772366827286963341_);}
	.st21{fill:url(#SVGID_00000096028714979629491320000002291891442628189359_);}
	.st22{fill:url(#SVGID_00000132060829567425378280000006131178113794735757_);}
	.st23{fill:url(#SVGID_00000147204769445505230310000011464421833822607746_);}
	.st24{fill:url(#SVGID_00000054259172794146260670000002833827205340357023_);}
	.st25{fill:url(#SVGID_00000098905073340797906220000007710399906218084494_);}
	.st26{fill:url(#SVGID_00000067920268005189318260000014777377114460619434_);}
	.st27{fill:url(#SVGID_00000006701103284570931650000001901091364097107611_);}
	.st28{fill:url(#SVGID_00000021078699386373669970000005523666521092771005_);}
	.st29{fill:url(#SVGID_00000044135431090920898630000016411333402567855490_);}
	.st30{fill:url(#SVGID_00000176015046526431832160000002789927663432976544_);}
	.st31{fill:url(#SVGID_00000078015653396850684710000014201378486269008795_);}
	.st32{fill:url(#SVGID_00000069382917691843325070000000941188753600505279_);}
	.st33{fill:url(#SVGID_00000165236613725374282850000005297880310985334709_);}
	.st34{fill:url(#SVGID_00000144310895787036172540000001598036133747759282_);}
	.st35{fill:none;stroke:#FFFFFF;stroke-width:0.5;stroke-miterlimit:10;}
	.st36{fill:url(#SVGID_00000061431337986917113970000012265893231491897226_);}
	.st37{fill:url(#SVGID_00000067226418844849970990000015134026444096028329_);}
	.st38{fill:url(#SVGID_00000124850023558007914360000012804308218338741893_);}
	.st39{fill:url(#SVGID_00000036953264933697515680000001254437088422747837_);}
	.st40{fill:url(#SVGID_00000036237605786107846390000013369604569084649112_);}
	.st41{fill:url(#SVGID_00000093860937325594198920000006860523234957391522_);}
	.st42{fill:url(#SVGID_00000179613666143060309910000017226093982415886480_);}
	.st43{fill:url(#SVGID_00000054232987357807049880000015335333460542547134_);}
	.st44{fill:url(#SVGID_00000012474162093672591540000007476947972470555783_);}
	.st45{fill:url(#SVGID_00000009582207444485518810000011953800640981188233_);}
	.st46{fill:url(#SVGID_00000062171483734634633920000000072658201527391152_);}
	.st47{fill:url(#SVGID_00000176038386441369145000000016199998698423571625_);}
	.st48{fill:url(#SVGID_00000015353492344121813200000015416705225020966315_);}
	.st49{fill:url(#SVGID_00000150069080909356911070000012726944127089836432_);}
	.st50{fill:url(#SVGID_00000011715832988760868610000003785816724819243939_);}
	.st51{fill:url(#SVGID_00000131345096830496838390000003286583686786665089_);}
	.st52{fill:url(#SVGID_00000098215151846269678640000014632257138964605871_);}
	.st53{fill:url(#SVGID_00000114796584419756270530000005386490282751885746_);}
	.st54{fill:url(#SVGID_00000054252822055837315280000008735509197985405078_);}
	.st55{fill:url(#SVGID_00000012434399658045679930000006003479613255100071_);}
	.st56{fill:url(#SVGID_00000155855002719549285610000006444243018617665191_);}
	.st57{fill:url(#SVGID_00000125568467488925565290000008950575257567206289_);}
	.st58{fill:url(#SVGID_00000023968401852957314340000006289655247844973699_);}
	.st59{fill:url(#SVGID_00000041990174866570174880000003358721712613635987_);}
	.st60{fill:url(#SVGID_00000006670535327406298400000016591126447603337112_);}
	.st61{fill:url(#SVGID_00000075844093459370734460000006475956283593159307_);}
	.st62{fill:url(#SVGID_00000132075376518144333160000007901811315455848882_);}
	.st63{fill:url(#SVGID_00000058578291667183436750000012883454710718819985_);}
</style>
<g>
	<g>
		<linearGradient id="SVGID_1_" gradientUnits="userSpaceOnUse" x1="22.002" y1="95.4341" x2="25.9059" y2="95.4341">
			<stop  offset="0" style="stop-color:#FF4100"/>
			<stop  offset="1" style="stop-color:#EF7E4B"/>
		</linearGradient>
		<path class="st0" d="M22,73.7c0,0,5.9,7.6,2.7,22s1.2,21.4,1.2,21.4"/>
		<path class="st1" d="M24.5,65.6c0,0-10.5,5.2-10.9,8.7c-0.3,3.5,19.4,9.1,24.5,9.4c5.1,0.3,20.1,4.5,20.8,9.7c0,0,7.8-8,8.2-9.7
			c0.3-1.7-3.4-16-3.4-16S45.9,82,24.5,65.6z"/>
		<path class="st2" d="M24.2,73.4c0,0-3.5-7.6,6.3-7.4l14.8-5c0,0-13.4-6.6-29.6-1.3C0.4,64.8,18.7,73.8,24.2,73.4z"/>
		<path class="st3" d="M51.4,90.7c0,0-1.9-6.5-10.5-5.9C32.3,85.3,23.7,74,23.7,74l0.2-4.7c0,0,2.9,9.5,17.9,10.3S57.1,85,57.1,85
			s6,6.9,3.4,15.6s4.4,11.5,4.4,11.5"/>
		<path class="st4" d="M52.1,87.9l-2.1,32c-0.1,1.6-1.5,2.7-3.1,2.5c-8.8-1.3-34.9-6.3-40.7-20.2c0,0,1.5-21.8,2.8-27.2
			c1.3-5.4,0.8-9.4,0.8-9.4s21.7,16.5,36.3,17.3c1.7,0.1,3.2,1,4.2,2.3L52.1,87.9z"/>
		<path class="st5" d="M38.1,118.7c0,0-0.1,0.8,0.3,2.1"/>
		<path class="st5" d="M45.5,119.6c0,0-0.1,1,0.3,2.6"/>
		<path class="st6" d="M39.7,64.7c-0.5,0.3-9.2-3.4-12.4,0.2c-7.8,8.8,19.1,8,24.8,8.7s12.7-1.1,9.5-6.7
			C58.4,61.4,39.7,64.7,39.7,64.7z"/>
		<path class="st2" d="M56.8,65.3c0,0,13,0,4.1,16.6c0,0-18.7,11.9-29.8,12.8c0,0-9.5,12.2-1.4,23.3c0,0,15.5,0.8,18.7,2.7
			s22.8-7.9,27.4-17.4l2.2-35.5c0,0-1.6-16.6-24.4-8.4L56.8,65.3z"/>
		<path class="st7" d="M55.1,65.3c0,0,9.5-0.9,7.1,7.4c0,0,1.4,7.5-3.1,10.3s13.2-6.3,13.2-6.3s6.1-5,6.5-7.3
			c0.7-3.8-4.6-11.4-9-12.8s-14.7,2.4-14.7,2.4V65.3z"/>
		<g>
			
				<linearGradient id="SVGID_00000022535093501749463860000017562754787093212289_" gradientUnits="userSpaceOnUse" x1="665.311" y1="-1815.5966" x2="672.4121" y2="-1815.5966" gradientTransform="matrix(-0.9697 0.2442 -0.2442 -0.9697 248.3318 -1861.1992)">
				<stop  offset="0" style="stop-color:#FF4100"/>
				<stop  offset="1" style="stop-color:#EF7E4B"/>
			</linearGradient>
			<path style="fill:url(#SVGID_00000022535093501749463860000017562754787093212289_);" d="M39.4,63.7C39,61.8,40.1,60,42,59.5
				c1.9-0.5,3.8,0.6,4.3,2.4c0.5,1.8-0.7,3.7-2.6,4.2C41.8,66.6,39.9,65.5,39.4,63.7z"/>
			
				<linearGradient id="SVGID_00000099661849833784384090000009870720241093053067_" gradientUnits="userSpaceOnUse" x1="670.996" y1="-1814.933" x2="678.0971" y2="-1814.933" gradientTransform="matrix(-0.9697 0.2442 -0.2442 -0.9697 248.3318 -1861.1992)">
				<stop  offset="0" style="stop-color:#FF4100"/>
				<stop  offset="1" style="stop-color:#EF7E4B"/>
			</linearGradient>
			<path style="fill:url(#SVGID_00000099661849833784384090000009870720241093053067_);" d="M33.7,64.4c-0.5-1.8,0.7-3.7,2.6-4.2
				c1.9-0.5,3.8,0.6,4.3,2.4c0.5,1.8-0.7,3.7-2.6,4.2S34.2,66.2,33.7,64.4z"/>
			
				<linearGradient id="SVGID_00000006707559579475190210000018029649301547584953_" gradientUnits="userSpaceOnUse" x1="669.7671" y1="-1819.2402" x2="673.9848" y2="-1819.2402" gradientTransform="matrix(-0.9697 0.2442 -0.2442 -0.9697 248.3318 -1861.1992)">
				<stop  offset="0" style="stop-color:#FF4100"/>
				<stop  offset="1" style="stop-color:#EF7E4B"/>
			</linearGradient>
			<path style="fill:url(#SVGID_00000006707559579475190210000018029649301547584953_);" d="M38.8,67.6c-0.3-1.1,0.4-2.2,1.5-2.5
				c1.1-0.3,2.3,0.4,2.5,1.5c0.3,1.1-0.4,2.2-1.5,2.5C40.3,69.3,39.1,68.7,38.8,67.6z"/>
		</g>
		<g>
			
				<linearGradient id="SVGID_00000025441411148395668910000001088229599351608962_" gradientUnits="userSpaceOnUse" x1="2093.7942" y1="2318.7253" x2="2100.8953" y2="2318.7253" gradientTransform="matrix(0.9866 -0.1631 0.1631 0.9866 -2412.0242 -1873.7644)">
				<stop  offset="0" style="stop-color:#FF4100"/>
				<stop  offset="1" style="stop-color:#EF7E4B"/>
			</linearGradient>
			<path style="fill:url(#SVGID_00000025441411148395668910000001088229599351608962_);" d="M39,71.3c0.3,1.9-1,3.6-2.9,4
				c-1.9,0.3-3.8-0.9-4.1-2.8c-0.3-1.9,1-3.6,2.9-4C36.9,68.2,38.7,69.4,39,71.3z"/>
			
				<linearGradient id="SVGID_00000010279661311655190380000006165055834606788768_" gradientUnits="userSpaceOnUse" x1="2099.479" y1="2319.3889" x2="2106.5803" y2="2319.3889" gradientTransform="matrix(0.9866 -0.1631 0.1631 0.9866 -2412.0242 -1873.7644)">
				<stop  offset="0" style="stop-color:#FF4100"/>
				<stop  offset="1" style="stop-color:#EF7E4B"/>
			</linearGradient>
			<path style="fill:url(#SVGID_00000010279661311655190380000006165055834606788768_);" d="M44.7,71c0.3,1.9-1,3.6-2.9,4
				c-1.9,0.3-3.8-0.9-4.1-2.8c-0.3-1.9,1-3.6,2.9-4C42.6,67.9,44.4,69.2,44.7,71z"/>
			
				<linearGradient id="SVGID_00000179614229374320289570000014011444696511816591_" gradientUnits="userSpaceOnUse" x1="2098.2502" y1="2315.0815" x2="2102.468" y2="2315.0815" gradientTransform="matrix(0.9866 -0.1631 0.1631 0.9866 -2412.0242 -1873.7644)">
				<stop  offset="0" style="stop-color:#FF4100"/>
				<stop  offset="1" style="stop-color:#EF7E4B"/>
			</linearGradient>
			<path style="fill:url(#SVGID_00000179614229374320289570000014011444696511816591_);" d="M39.9,67.5c0.2,1.1-0.6,2.2-1.7,2.3
				s-2.2-0.6-2.4-1.7s0.6-2.2,1.7-2.3C38.7,65.6,39.7,66.4,39.9,67.5z"/>
		</g>
		<g>
			
				<linearGradient id="SVGID_00000172403625636539716600000012048395425961772194_" gradientUnits="userSpaceOnUse" x1="2100.45" y1="2314.8127" x2="2107.551" y2="2314.8127" gradientTransform="matrix(0.9866 -0.1631 0.1631 0.9866 -2412.0242 -1873.7644)">
				<stop  offset="0" style="stop-color:#FF4100"/>
				<stop  offset="1" style="stop-color:#EF7E4B"/>
			</linearGradient>
			<path style="fill:url(#SVGID_00000172403625636539716600000012048395425961772194_);" d="M45,66.4c0.3,1.9-1,3.6-2.9,4
				c-1.9,0.3-3.8-0.9-4.1-2.8c-0.3-1.9,1-3.6,2.9-4C42.8,63.2,44.6,64.5,45,66.4z"/>
			
				<linearGradient id="SVGID_00000032610649198385270710000012708691692338961084_" gradientUnits="userSpaceOnUse" x1="2106.135" y1="2315.4763" x2="2113.2361" y2="2315.4763" gradientTransform="matrix(0.9866 -0.1631 0.1631 0.9866 -2412.0242 -1873.7644)">
				<stop  offset="0" style="stop-color:#FF4100"/>
				<stop  offset="1" style="stop-color:#EF7E4B"/>
			</linearGradient>
			<path style="fill:url(#SVGID_00000032610649198385270710000012708691692338961084_);" d="M50.7,66.1c0.3,1.9-1,3.6-2.9,4
				c-1.9,0.3-3.8-0.9-4.1-2.8c-0.3-1.9,1-3.6,2.9-4C48.5,63,50.4,64.2,50.7,66.1z"/>
			
				<linearGradient id="SVGID_00000016778861179371140460000008096090302397867660_" gradientUnits="userSpaceOnUse" x1="2104.906" y1="2311.1692" x2="2109.1238" y2="2311.1692" gradientTransform="matrix(0.9866 -0.1631 0.1631 0.9866 -2412.0242 -1873.7644)">
				<stop  offset="0" style="stop-color:#FF4100"/>
				<stop  offset="1" style="stop-color:#EF7E4B"/>
			</linearGradient>
			<path style="fill:url(#SVGID_00000016778861179371140460000008096090302397867660_);" d="M45.8,62.5c0.2,1.1-0.6,2.2-1.7,2.3
				s-2.2-0.6-2.4-1.7c-0.2-1.1,0.6-2.2,1.7-2.3C44.6,60.7,45.7,61.4,45.8,62.5z"/>
		</g>
		<g>
			
				<linearGradient id="SVGID_00000150806897560870374780000017846612671568287364_" gradientUnits="userSpaceOnUse" x1="2103.0298" y1="2319.3889" x2="2110.1309" y2="2319.3889" gradientTransform="matrix(0.9866 -0.1631 0.1631 0.9866 -2412.0242 -1873.7644)">
				<stop  offset="0" style="stop-color:#FF4100"/>
				<stop  offset="1" style="stop-color:#EF7E4B"/>
			</linearGradient>
			<path style="fill:url(#SVGID_00000150806897560870374780000017846612671568287364_);" d="M48.2,70.5c0.3,1.9-1,3.6-2.9,4
				c-1.9,0.3-3.8-0.9-4.1-2.8c-0.3-1.9,1-3.6,2.9-4C46.1,67.3,47.9,68.6,48.2,70.5z"/>
			
				<linearGradient id="SVGID_00000140701572094610831030000008540278272532311709_" gradientUnits="userSpaceOnUse" x1="2108.7146" y1="2320.0525" x2="2115.8159" y2="2320.0525" gradientTransform="matrix(0.9866 -0.1631 0.1631 0.9866 -2412.0242 -1873.7644)">
				<stop  offset="0" style="stop-color:#FF4100"/>
				<stop  offset="1" style="stop-color:#EF7E4B"/>
			</linearGradient>
			<path style="fill:url(#SVGID_00000140701572094610831030000008540278272532311709_);" d="M54,70.2c0.3,1.9-1,3.6-2.9,4
				c-1.9,0.3-3.8-0.9-4.1-2.8c-0.3-1.9,1-3.6,2.9-4C51.8,67.1,53.7,68.3,54,70.2z"/>
			
				<linearGradient id="SVGID_00000101086723643198526370000001895755750080532651_" gradientUnits="userSpaceOnUse" x1="2107.4858" y1="2315.7451" x2="2111.7036" y2="2315.7451" gradientTransform="matrix(0.9866 -0.1631 0.1631 0.9866 -2412.0242 -1873.7644)">
				<stop  offset="0" style="stop-color:#FF4100"/>
				<stop  offset="1" style="stop-color:#EF7E4B"/>
			</linearGradient>
			<path style="fill:url(#SVGID_00000101086723643198526370000001895755750080532651_);" d="M49.1,66.6c0.2,1.1-0.6,2.2-1.7,2.3
				s-2.2-0.6-2.4-1.7c-0.2-1.1,0.6-2.2,1.7-2.3S49,65.5,49.1,66.6z"/>
		</g>
		<g>
			
				<linearGradient id="SVGID_00000004530266089183974390000004164757884759114175_" gradientUnits="userSpaceOnUse" x1="2107.4761" y1="2315.6333" x2="2114.5771" y2="2315.6333" gradientTransform="matrix(0.9866 -0.1631 0.1631 0.9866 -2412.0242 -1873.7644)">
				<stop  offset="0" style="stop-color:#FF4100"/>
				<stop  offset="1" style="stop-color:#EF7E4B"/>
			</linearGradient>
			<path style="fill:url(#SVGID_00000004530266089183974390000004164757884759114175_);" d="M52,66c0.3,1.9-1,3.6-2.9,4
				c-1.9,0.3-3.8-0.9-4.1-2.8c-0.3-1.9,1-3.6,2.9-4C49.9,62.9,51.7,64.2,52,66z"/>
			
				<linearGradient id="SVGID_00000042008470834416138720000011304111248707802039_" gradientUnits="userSpaceOnUse" x1="2113.1611" y1="2316.2969" x2="2120.2622" y2="2316.2969" gradientTransform="matrix(0.9866 -0.1631 0.1631 0.9866 -2412.0242 -1873.7644)">
				<stop  offset="0" style="stop-color:#FF4100"/>
				<stop  offset="1" style="stop-color:#EF7E4B"/>
			</linearGradient>
			<path style="fill:url(#SVGID_00000042008470834416138720000011304111248707802039_);" d="M57.7,65.8c0.3,1.9-1,3.6-2.9,4
				c-1.9,0.3-3.8-0.9-4.1-2.8c-0.3-1.9,1-3.6,2.9-4C55.6,62.6,57.4,63.9,57.7,65.8z"/>
			
				<linearGradient id="SVGID_00000062888979882383903540000011698222509733504410_" gradientUnits="userSpaceOnUse" x1="2111.9321" y1="2311.9897" x2="2116.1499" y2="2311.9897" gradientTransform="matrix(0.9866 -0.1631 0.1631 0.9866 -2412.0242 -1873.7644)">
				<stop  offset="0" style="stop-color:#FF4100"/>
				<stop  offset="1" style="stop-color:#EF7E4B"/>
			</linearGradient>
			<path style="fill:url(#SVGID_00000062888979882383903540000011698222509733504410_);" d="M52.9,62.2c0.2,1.1-0.6,2.2-1.7,2.3
				c-1.1,0.2-2.2-0.6-2.4-1.7c-0.2-1.1,0.6-2.2,1.7-2.3C51.6,60.3,52.7,61.1,52.9,62.2z"/>
		</g>
		<g>
			
				<linearGradient id="SVGID_00000005976560925295196960000011934935519984021397_" gradientUnits="userSpaceOnUse" x1="2107.0825" y1="2310.855" x2="2114.1838" y2="2310.855" gradientTransform="matrix(0.9866 -0.1631 0.1631 0.9866 -2412.0242 -1873.7644)">
				<stop  offset="0" style="stop-color:#FF4100"/>
				<stop  offset="1" style="stop-color:#EF7E4B"/>
			</linearGradient>
			<path style="fill:url(#SVGID_00000005976560925295196960000011934935519984021397_);" d="M50.9,61.4c0.3,1.9-1,3.6-2.9,4
				c-1.9,0.3-3.8-0.9-4.1-2.8c-0.3-1.9,1-3.6,2.9-4C48.7,58.3,50.5,59.5,50.9,61.4z"/>
			
				<linearGradient id="SVGID_00000043443957207871760340000002468481827726336396_" gradientUnits="userSpaceOnUse" x1="2112.7676" y1="2311.5186" x2="2119.8687" y2="2311.5186" gradientTransform="matrix(0.9866 -0.1631 0.1631 0.9866 -2412.0242 -1873.7644)">
				<stop  offset="0" style="stop-color:#FF4100"/>
				<stop  offset="1" style="stop-color:#EF7E4B"/>
			</linearGradient>
			<path style="fill:url(#SVGID_00000043443957207871760340000002468481827726336396_);" d="M56.6,61.1c0.3,1.9-1,3.6-2.9,4
				c-1.9,0.3-3.8-0.9-4.1-2.8c-0.3-1.9,1-3.6,2.9-4S56.3,59.2,56.6,61.1z"/>
			
				<linearGradient id="SVGID_00000142151257198486991300000008550470504117874360_" gradientUnits="userSpaceOnUse" x1="2111.5388" y1="2307.2114" x2="2115.7563" y2="2307.2114" gradientTransform="matrix(0.9866 -0.1631 0.1631 0.9866 -2412.0242 -1873.7644)">
				<stop  offset="0" style="stop-color:#FF4100"/>
				<stop  offset="1" style="stop-color:#EF7E4B"/>
			</linearGradient>
			<path style="fill:url(#SVGID_00000142151257198486991300000008550470504117874360_);" d="M51.7,57.5c0.2,1.1-0.6,2.2-1.7,2.3
				c-1.1,0.2-2.2-0.6-2.4-1.7s0.6-2.2,1.7-2.3S51.6,56.4,51.7,57.5z"/>
		</g>
		<g>
			
				<linearGradient id="SVGID_00000037679159141777748040000015919089264348782983_" gradientUnits="userSpaceOnUse" x1="2103.3716" y1="2310.5056" x2="2110.4727" y2="2310.5056" gradientTransform="matrix(0.9866 -0.1631 0.1631 0.9866 -2412.0242 -1873.7644)">
				<stop  offset="0" style="stop-color:#FF4100"/>
				<stop  offset="1" style="stop-color:#EF7E4B"/>
			</linearGradient>
			<path style="fill:url(#SVGID_00000037679159141777748040000015919089264348782983_);" d="M47.1,61.6c0.3,1.9-1,3.6-2.9,4
				c-1.9,0.3-3.8-0.9-4.1-2.8c-0.3-1.9,1-3.6,2.9-4C45,58.5,46.8,59.8,47.1,61.6z"/>
			
				<linearGradient id="SVGID_00000016039720323573868770000013564651277984262792_" gradientUnits="userSpaceOnUse" x1="2109.0564" y1="2311.1692" x2="2116.1577" y2="2311.1692" gradientTransform="matrix(0.9866 -0.1631 0.1631 0.9866 -2412.0242 -1873.7644)">
				<stop  offset="0" style="stop-color:#FF4100"/>
				<stop  offset="1" style="stop-color:#EF7E4B"/>
			</linearGradient>
			<path style="fill:url(#SVGID_00000016039720323573868770000013564651277984262792_);" d="M52.9,61.4c0.3,1.9-1,3.6-2.9,4
				c-1.9,0.3-3.8-0.9-4.1-2.8c-0.3-1.9,1-3.6,2.9-4C50.7,58.2,52.5,59.5,52.9,61.4z"/>
			
				<linearGradient id="SVGID_00000161611522080212991610000001892752425554884993_" gradientUnits="userSpaceOnUse" x1="2107.8276" y1="2306.8621" x2="2112.0454" y2="2306.8621" gradientTransform="matrix(0.9866 -0.1631 0.1631 0.9866 -2412.0242 -1873.7644)">
				<stop  offset="0" style="stop-color:#FF4100"/>
				<stop  offset="1" style="stop-color:#EF7E4B"/>
			</linearGradient>
			<path style="fill:url(#SVGID_00000161611522080212991610000001892752425554884993_);" d="M48,57.8c0.2,1.1-0.6,2.2-1.7,2.3
				c-1.1,0.2-2.2-0.6-2.4-1.7s0.6-2.2,1.7-2.3S47.8,56.7,48,57.8z"/>
		</g>
		<g>
			
				<linearGradient id="SVGID_00000152955885061190989180000010565581777365642894_" gradientUnits="userSpaceOnUse" x1="2115.4109" y1="2319.0403" x2="2120.7573" y2="2319.0403" gradientTransform="matrix(0.9866 -0.1631 0.1631 0.9866 -2412.0242 -1873.7644)">
				<stop  offset="0" style="stop-color:#FF4100"/>
				<stop  offset="1" style="stop-color:#EF7E4B"/>
			</linearGradient>
			<path style="fill:url(#SVGID_00000152955885061190989180000010565581777365642894_);" d="M58.6,68.4c0.2,1.4-0.8,2.7-2.2,3
				s-2.8-0.7-3.1-2.1s0.8-2.7,2.2-3S58.4,67,58.6,68.4z"/>
			
				<linearGradient id="SVGID_00000071555968072085071620000013915985484350929846_" gradientUnits="userSpaceOnUse" x1="2119.6912" y1="2319.5398" x2="2125.0376" y2="2319.5398" gradientTransform="matrix(0.9866 -0.1631 0.1631 0.9866 -2412.0242 -1873.7644)">
				<stop  offset="0" style="stop-color:#FF4100"/>
				<stop  offset="1" style="stop-color:#EF7E4B"/>
			</linearGradient>
			<path style="fill:url(#SVGID_00000071555968072085071620000013915985484350929846_);" d="M62.9,68.2c0.2,1.4-0.8,2.7-2.2,3
				s-2.8-0.7-3.1-2.1c-0.2-1.4,0.8-2.7,2.2-3S62.7,66.8,62.9,68.2z"/>
			
				<linearGradient id="SVGID_00000167378412652032856890000009121380988690150805_" gradientUnits="userSpaceOnUse" x1="2118.7659" y1="2316.2969" x2="2121.9414" y2="2316.2969" gradientTransform="matrix(0.9866 -0.1631 0.1631 0.9866 -2412.0242 -1873.7644)">
				<stop  offset="0" style="stop-color:#FF4100"/>
				<stop  offset="1" style="stop-color:#EF7E4B"/>
			</linearGradient>
			<path style="fill:url(#SVGID_00000167378412652032856890000009121380988690150805_);" d="M59.3,65.5c0.1,0.8-0.5,1.6-1.3,1.8
				c-0.9,0.1-1.7-0.4-1.8-1.2c-0.1-0.8,0.5-1.6,1.3-1.8C58.4,64.1,59.2,64.7,59.3,65.5z"/>
		</g>
		<g>
			
				<linearGradient id="SVGID_00000106863023198348281440000002582293100359433140_" gradientUnits="userSpaceOnUse" x1="2089.9285" y1="2313.6401" x2="2097.0298" y2="2313.6401" gradientTransform="matrix(0.9866 -0.1631 0.1631 0.9866 -2412.0242 -1873.7644)">
				<stop  offset="0" style="stop-color:#FF4100"/>
				<stop  offset="1" style="stop-color:#EF7E4B"/>
			</linearGradient>
			<path style="fill:url(#SVGID_00000106863023198348281440000002582293100359433140_);" d="M34.4,66.9c0.3,1.9-1,3.6-2.9,4
				c-1.9,0.3-3.8-0.9-4.1-2.8c-0.3-1.9,1-3.6,2.9-4C32.3,63.8,34.1,65.1,34.4,66.9z"/>
			
				<linearGradient id="SVGID_00000127026140980665933850000017277587400001991047_" gradientUnits="userSpaceOnUse" x1="2095.6135" y1="2314.3037" x2="2102.7146" y2="2314.3037" gradientTransform="matrix(0.9866 -0.1631 0.1631 0.9866 -2412.0242 -1873.7644)">
				<stop  offset="0" style="stop-color:#FF4100"/>
				<stop  offset="1" style="stop-color:#EF7E4B"/>
			</linearGradient>
			<path style="fill:url(#SVGID_00000127026140980665933850000017277587400001991047_);" d="M40.1,66.6c0.3,1.9-1,3.6-2.9,4
				c-1.9,0.3-3.8-0.9-4.1-2.8c-0.3-1.9,1-3.6,2.9-4C38,63.5,39.8,64.8,40.1,66.6z"/>
			
				<linearGradient id="SVGID_00000073704183301278229730000012566652631397436080_" gradientUnits="userSpaceOnUse" x1="2094.3848" y1="2309.9966" x2="2098.6023" y2="2309.9966" gradientTransform="matrix(0.9866 -0.1631 0.1631 0.9866 -2412.0242 -1873.7644)">
				<stop  offset="0" style="stop-color:#FF4100"/>
				<stop  offset="1" style="stop-color:#EF7E4B"/>
			</linearGradient>
			<path style="fill:url(#SVGID_00000073704183301278229730000012566652631397436080_);" d="M35.3,63.1c0.2,1.1-0.6,2.2-1.7,2.3
				c-1.1,0.2-2.2-0.6-2.4-1.7s0.6-2.2,1.7-2.3C34,61.2,35.1,62,35.3,63.1z"/>
		</g>
		<path class="st35" d="M14.8,70.5c0,0,6.3,13,2.4,20.6c-3.9,7.6-3.6,19.7-3.6,19.7"/>
		<path class="st35" d="M10.7,67.5c0,0,4.9,5.6,2.9,15.8S7.5,98.7,9.3,107"/>
		<path class="st35" d="M20.6,72.9c0,0,6.6,9.5,3.4,18.6s-5.7,10.1-5.5,22.4"/>
		<path class="st35" d="M29.2,77.6c0,0,3.6,10.9,0,17.1s-6.7,17.5-3.3,22.5"/>
		<path class="st5" d="M37.2,93.5"/>
		<path class="st35" d="M34.9,94c0,0,2.9,3.3,0.6,10s1.7,14.6,1.7,14.6"/>
		<path class="st35" d="M40.3,92.3c0,0,5.1,5.2,3.5,12.2c-1.6,7,1,15.1,1,15.1"/>
		<path class="st35" d="M48.5,89c0,0,6.4,7.2,2.9,16s2.8,14.8,2.8,14.8"/>
		<path class="st35" d="M63.5,81.7c0,0,4.5,7.5,3.5,16.5c-0.9,8.9,2.3,12.7,2.3,12.7"/>
		<path class="st35" d="M72.3,76.7c0,0,3.6,2.8,1.3,14c-2.3,11.2,2.2,12.6,2.2,12.6"/>
		<path class="st4" d="M37.8,81.2"/>
		<path class="st4" d="M38.1,83.7c0,0,0.9,4.2,0,7"/>
		<path class="st35" d="M37.8,81.2c0,0,3.3,6.3-0.7,12.2"/>
		<path class="st35" d="M43.6,82.7c0,0,3.7,3.9,1.1,8"/>
	</g>
	<path class="st35" d="M57.1,85c0,0,6.1,6.1,3.4,15.6s3,14.4,3,14.4"/>
</g>
<g>
	<g>
		
			<linearGradient id="SVGID_00000143609774266526963660000004862446729040432261_" gradientUnits="userSpaceOnUse" x1="51.9104" y1="108.4586" x2="56.0465" y2="108.4586">
			<stop  offset="0" style="stop-color:#FF4100"/>
			<stop  offset="1" style="stop-color:#EF7E4B"/>
		</linearGradient>
		<path style="fill:url(#SVGID_00000143609774266526963660000004862446729040432261_);" d="M51.9,85.4c0,0,6.3,8,2.9,23.4
			s1.3,22.7,1.3,22.7"/>
		<path class="st1" d="M54.5,76.8c0,0-11.2,5.5-11.5,9.2c-0.4,3.7,20.5,9.6,25.9,10c5.4,0.4,21.3,4.8,22,10.3c0,0,8.3-8.5,8.6-10.3
			c0.4-1.8-3.6-17-3.6-17S77.2,94.2,54.5,76.8z"/>
		<path class="st2" d="M54.3,85.1c0,0-3.7-8.1,6.6-7.8L76.6,72c0,0-14.2-7-31.3-1.3C29,76,48.4,85.5,54.3,85.1z"/>
		<path class="st3" d="M83,103.4c0,0-2-6.9-11.1-6.3c-9.1,0.6-18.2-11.3-18.2-11.3l0.2-5c0,0,3.1,10,19,10.9s16.2,5.7,16.2,5.7
			s6.4,7.3,3.7,16.6c-2.7,9.3,4.7,12.1,4.7,12.1"/>
		<path class="st4" d="M83.8,100.5l-2.2,33.9c-0.1,1.7-1.6,2.9-3.3,2.6c-9.3-1.4-37-6.6-43.1-21.4c0,0,1.6-23.1,2.9-28.8
			c1.3-5.7,0.8-10,0.8-10s23,17.5,38.5,18.4c1.8,0.1,3.4,1,4.4,2.5L83.8,100.5z"/>
		<path class="st5" d="M69,133.1c0,0-0.1,0.9,0.4,2.3"/>
		<path class="st5" d="M76.8,134.1c0,0-0.1,1.1,0.4,2.7"/>
		<path class="st6" d="M70.7,75.9c-0.5,0.3-9.7-3.6-13.1,0.2c-8.3,9.3,20.2,8.5,26.2,9.2s13.4-1.2,10.1-7
			C90.5,72.4,70.7,75.9,70.7,75.9z"/>
		<path class="st2" d="M88.7,76.6c0,0,13.8,0,4.3,17.5c0,0-19.8,12.6-31.6,13.5c0,0-10.1,12.9-1.4,24.7c0,0,16.4,0.9,19.8,2.9
			c3.4,2,24.1-8.3,29-18.4l2.3-37.7c0,0-1.7-17.5-25.9-8.9L88.7,76.6z"/>
		<path class="st7" d="M87,76.5c0,0,10.1-1,7.5,7.8c0,0,1.5,8-3.3,10.9c-4.8,2.9,14-6.6,14-6.6s6.4-5.3,6.9-7.8
			c0.7-4-4.9-12.1-9.5-13.5S87,69.9,87,69.9V76.5z"/>
		<g>
			
				<linearGradient id="SVGID_00000093862875356308365550000008344268078983650225_" gradientUnits="userSpaceOnUse" x1="637.5904" y1="-1833.9502" x2="645.1138" y2="-1833.9502" gradientTransform="matrix(-0.9697 0.2442 -0.2442 -0.9697 248.3318 -1861.1992)">
				<stop  offset="0" style="stop-color:#FF4100"/>
				<stop  offset="1" style="stop-color:#EF7E4B"/>
			</linearGradient>
			<path style="fill:url(#SVGID_00000093862875356308365550000008344268078983650225_);" d="M70.4,74.8c-0.5-1.9,0.7-3.9,2.8-4.4
				c2-0.5,4,0.7,4.5,2.6s-0.7,3.9-2.8,4.4C72.9,77.9,70.8,76.7,70.4,74.8z"/>
			
				<linearGradient id="SVGID_00000039829582701770190260000007328881916338960022_" gradientUnits="userSpaceOnUse" x1="643.6135" y1="-1833.2471" x2="651.1369" y2="-1833.2471" gradientTransform="matrix(-0.9697 0.2442 -0.2442 -0.9697 248.3318 -1861.1992)">
				<stop  offset="0" style="stop-color:#FF4100"/>
				<stop  offset="1" style="stop-color:#EF7E4B"/>
			</linearGradient>
			<path style="fill:url(#SVGID_00000039829582701770190260000007328881916338960022_);" d="M64.3,75.6c-0.5-1.9,0.7-3.9,2.8-4.4
				c2-0.5,4,0.7,4.5,2.6s-0.7,3.9-2.8,4.4C66.9,78.7,64.8,77.5,64.3,75.6z"/>
			
				<linearGradient id="SVGID_00000143594372208217044780000006803635217942163072_" gradientUnits="userSpaceOnUse" x1="642.3115" y1="-1837.8104" x2="646.7801" y2="-1837.8104" gradientTransform="matrix(-0.9697 0.2442 -0.2442 -0.9697 248.3318 -1861.1992)">
				<stop  offset="0" style="stop-color:#FF4100"/>
				<stop  offset="1" style="stop-color:#EF7E4B"/>
			</linearGradient>
			<path style="fill:url(#SVGID_00000143594372208217044780000006803635217942163072_);" d="M69.8,78.9c-0.3-1.2,0.4-2.3,1.6-2.6
				s2.4,0.4,2.7,1.5c0.3,1.2-0.4,2.3-1.6,2.6C71.2,80.8,70,80.1,69.8,78.9z"/>
		</g>
		<g>
			
				<linearGradient id="SVGID_00000070819285354487694570000004140578375122999477_" gradientUnits="userSpaceOnUse" x1="2121.979" y1="2335.2019" x2="2129.5024" y2="2335.2019" gradientTransform="matrix(0.9866 -0.1631 0.1631 0.9866 -2412.0242 -1873.7644)">
				<stop  offset="0" style="stop-color:#FF4100"/>
				<stop  offset="1" style="stop-color:#EF7E4B"/>
			</linearGradient>
			<path style="fill:url(#SVGID_00000070819285354487694570000004140578375122999477_);" d="M69.9,82.9c0.3,2-1.1,3.8-3.1,4.2
				c-2,0.3-4-1-4.3-3c-0.3-2,1.1-3.8,3.1-4.2C67.7,79.6,69.6,80.9,69.9,82.9z"/>
			
				<linearGradient id="SVGID_00000176732741949785269310000013635858874487986856_" gradientUnits="userSpaceOnUse" x1="2128.0022" y1="2335.9048" x2="2135.5256" y2="2335.9048" gradientTransform="matrix(0.9866 -0.1631 0.1631 0.9866 -2412.0242 -1873.7644)">
				<stop  offset="0" style="stop-color:#FF4100"/>
				<stop  offset="1" style="stop-color:#EF7E4B"/>
			</linearGradient>
			<path style="fill:url(#SVGID_00000176732741949785269310000013635858874487986856_);" d="M76,82.6c0.3,2-1.1,3.8-3.1,4.2
				c-2,0.3-4-1-4.3-3c-0.3-2,1.1-3.8,3.1-4.2C73.8,79.3,75.7,80.6,76,82.6z"/>
			
				<linearGradient id="SVGID_00000010269228211949811250000004428714241410890680_" gradientUnits="userSpaceOnUse" x1="2126.7002" y1="2331.3416" x2="2131.1687" y2="2331.3416" gradientTransform="matrix(0.9866 -0.1631 0.1631 0.9866 -2412.0242 -1873.7644)">
				<stop  offset="0" style="stop-color:#FF4100"/>
				<stop  offset="1" style="stop-color:#EF7E4B"/>
			</linearGradient>
			<path style="fill:url(#SVGID_00000010269228211949811250000004428714241410890680_);" d="M70.9,78.8c0.2,1.2-0.6,2.3-1.9,2.5
				c-1.2,0.2-2.4-0.6-2.6-1.8c-0.2-1.2,0.6-2.3,1.9-2.5S70.7,77.7,70.9,78.8z"/>
		</g>
		<g>
			
				<linearGradient id="SVGID_00000124159364515372366890000003237082094861936825_" gradientUnits="userSpaceOnUse" x1="2129.0308" y1="2331.0566" x2="2136.5542" y2="2331.0566" gradientTransform="matrix(0.9866 -0.1631 0.1631 0.9866 -2412.0242 -1873.7644)">
				<stop  offset="0" style="stop-color:#FF4100"/>
				<stop  offset="1" style="stop-color:#EF7E4B"/>
			</linearGradient>
			<path style="fill:url(#SVGID_00000124159364515372366890000003237082094861936825_);" d="M76.2,77.7c0.3,2-1.1,3.8-3.1,4.2
				c-2,0.3-4-1-4.3-3c-0.3-2,1.1-3.8,3.1-4.2C74,74.4,75.9,75.7,76.2,77.7z"/>
			
				<linearGradient id="SVGID_00000140726596668906190020000016453009501090551186_" gradientUnits="userSpaceOnUse" x1="2135.0537" y1="2331.7598" x2="2142.5771" y2="2331.7598" gradientTransform="matrix(0.9866 -0.1631 0.1631 0.9866 -2412.0242 -1873.7644)">
				<stop  offset="0" style="stop-color:#FF4100"/>
				<stop  offset="1" style="stop-color:#EF7E4B"/>
			</linearGradient>
			<path style="fill:url(#SVGID_00000140726596668906190020000016453009501090551186_);" d="M82.3,77.4c0.3,2-1.1,3.8-3.1,4.2
				s-4-1-4.3-3c-0.3-2,1.1-3.8,3.1-4.2C80,74.1,82,75.4,82.3,77.4z"/>
			
				<linearGradient id="SVGID_00000165205290406051336760000003156323637134169788_" gradientUnits="userSpaceOnUse" x1="2133.7517" y1="2327.1965" x2="2138.2202" y2="2327.1965" gradientTransform="matrix(0.9866 -0.1631 0.1631 0.9866 -2412.0242 -1873.7644)">
				<stop  offset="0" style="stop-color:#FF4100"/>
				<stop  offset="1" style="stop-color:#EF7E4B"/>
			</linearGradient>
			<path style="fill:url(#SVGID_00000165205290406051336760000003156323637134169788_);" d="M77.2,73.6c0.2,1.2-0.6,2.3-1.9,2.5
				c-1.2,0.2-2.4-0.6-2.6-1.8c-0.2-1.2,0.6-2.3,1.9-2.5S77,72.4,77.2,73.6z"/>
		</g>
		<g>
			
				<linearGradient id="SVGID_00000049211316812126906200000015196814949167186331_" gradientUnits="userSpaceOnUse" x1="2131.7639" y1="2335.9048" x2="2139.2874" y2="2335.9048" gradientTransform="matrix(0.9866 -0.1631 0.1631 0.9866 -2412.0242 -1873.7644)">
				<stop  offset="0" style="stop-color:#FF4100"/>
				<stop  offset="1" style="stop-color:#EF7E4B"/>
			</linearGradient>
			<path style="fill:url(#SVGID_00000049211316812126906200000015196814949167186331_);" d="M79.7,82c0.3,2-1.1,3.8-3.1,4.2
				c-2,0.3-4-1-4.3-3s1.1-3.8,3.1-4.2C77.5,78.7,79.4,80,79.7,82z"/>
			
				<linearGradient id="SVGID_00000132052976017882908100000012874881555452795813_" gradientUnits="userSpaceOnUse" x1="2137.7869" y1="2336.6079" x2="2145.3103" y2="2336.6079" gradientTransform="matrix(0.9866 -0.1631 0.1631 0.9866 -2412.0242 -1873.7644)">
				<stop  offset="0" style="stop-color:#FF4100"/>
				<stop  offset="1" style="stop-color:#EF7E4B"/>
			</linearGradient>
			<path style="fill:url(#SVGID_00000132052976017882908100000012874881555452795813_);" d="M85.8,81.7c0.3,2-1.1,3.8-3.1,4.2
				c-2,0.3-4-1-4.3-3c-0.3-2,1.1-3.8,3.1-4.2S85.4,79.7,85.8,81.7z"/>
			
				<linearGradient id="SVGID_00000010995325799907655520000012718261885990964373_" gradientUnits="userSpaceOnUse" x1="2136.4849" y1="2332.0447" x2="2140.9534" y2="2332.0447" gradientTransform="matrix(0.9866 -0.1631 0.1631 0.9866 -2412.0242 -1873.7644)">
				<stop  offset="0" style="stop-color:#FF4100"/>
				<stop  offset="1" style="stop-color:#EF7E4B"/>
			</linearGradient>
			<path style="fill:url(#SVGID_00000010995325799907655520000012718261885990964373_);" d="M80.7,77.9c0.2,1.2-0.6,2.3-1.9,2.5
				c-1.2,0.2-2.4-0.6-2.6-1.8c-0.2-1.2,0.6-2.3,1.9-2.5C79.3,76,80.5,76.8,80.7,77.9z"/>
		</g>
		<g>
			
				<linearGradient id="SVGID_00000160169031237148378670000002359284198790081978_" gradientUnits="userSpaceOnUse" x1="2136.4746" y1="2331.926" x2="2143.998" y2="2331.926" gradientTransform="matrix(0.9866 -0.1631 0.1631 0.9866 -2412.0242 -1873.7644)">
				<stop  offset="0" style="stop-color:#FF4100"/>
				<stop  offset="1" style="stop-color:#EF7E4B"/>
			</linearGradient>
			<path style="fill:url(#SVGID_00000160169031237148378670000002359284198790081978_);" d="M83.7,77.3c0.3,2-1.1,3.8-3.1,4.2
				c-2,0.3-4-1-4.3-3c-0.3-2,1.1-3.8,3.1-4.2C81.5,74,83.4,75.3,83.7,77.3z"/>
			
				<linearGradient id="SVGID_00000096028275274799273830000005748105179270058162_" gradientUnits="userSpaceOnUse" x1="2142.4978" y1="2332.6292" x2="2150.0212" y2="2332.6292" gradientTransform="matrix(0.9866 -0.1631 0.1631 0.9866 -2412.0242 -1873.7644)">
				<stop  offset="0" style="stop-color:#FF4100"/>
				<stop  offset="1" style="stop-color:#EF7E4B"/>
			</linearGradient>
			<path style="fill:url(#SVGID_00000096028275274799273830000005748105179270058162_);" d="M89.8,77c0.3,2-1.1,3.8-3.1,4.2
				c-2,0.3-4-1-4.3-3c-0.3-2,1.1-3.8,3.1-4.2C87.5,73.7,89.4,75,89.8,77z"/>
			
				<linearGradient id="SVGID_00000073687387058485094330000006546645997982197891_" gradientUnits="userSpaceOnUse" x1="2141.1958" y1="2328.0659" x2="2145.6643" y2="2328.0659" gradientTransform="matrix(0.9866 -0.1631 0.1631 0.9866 -2412.0242 -1873.7644)">
				<stop  offset="0" style="stop-color:#FF4100"/>
				<stop  offset="1" style="stop-color:#EF7E4B"/>
			</linearGradient>
			<path style="fill:url(#SVGID_00000073687387058485094330000006546645997982197891_);" d="M84.7,73.2c0.2,1.2-0.6,2.3-1.9,2.5
				c-1.2,0.2-2.4-0.6-2.6-1.8c-0.2-1.2,0.6-2.3,1.9-2.5S84.5,72.1,84.7,73.2z"/>
		</g>
		<g>
			
				<linearGradient id="SVGID_00000168829538858188104970000000451614521052162975_" gradientUnits="userSpaceOnUse" x1="2136.0579" y1="2326.8635" x2="2143.5813" y2="2326.8635" gradientTransform="matrix(0.9866 -0.1631 0.1631 0.9866 -2412.0242 -1873.7644)">
				<stop  offset="0" style="stop-color:#FF4100"/>
				<stop  offset="1" style="stop-color:#EF7E4B"/>
			</linearGradient>
			<path style="fill:url(#SVGID_00000168829538858188104970000000451614521052162975_);" d="M82.5,72.4c0.3,2-1.1,3.8-3.1,4.2
				c-2,0.3-4-1-4.3-3c-0.3-2,1.1-3.8,3.1-4.2C80.2,69.1,82.2,70.4,82.5,72.4z"/>
			
				<linearGradient id="SVGID_00000147901300239910327780000017303356427332723077_" gradientUnits="userSpaceOnUse" x1="2142.0808" y1="2327.5667" x2="2149.6042" y2="2327.5667" gradientTransform="matrix(0.9866 -0.1631 0.1631 0.9866 -2412.0242 -1873.7644)">
				<stop  offset="0" style="stop-color:#FF4100"/>
				<stop  offset="1" style="stop-color:#EF7E4B"/>
			</linearGradient>
			<path style="fill:url(#SVGID_00000147901300239910327780000017303356427332723077_);" d="M88.5,72.1c0.3,2-1.1,3.8-3.1,4.2
				c-2,0.3-4-1-4.3-3s1.1-3.8,3.1-4.2C86.3,68.8,88.2,70.1,88.5,72.1z"/>
			
				<linearGradient id="SVGID_00000081633094828221159640000005956497508532173221_" gradientUnits="userSpaceOnUse" x1="2140.7788" y1="2323.0034" x2="2145.2476" y2="2323.0034" gradientTransform="matrix(0.9866 -0.1631 0.1631 0.9866 -2412.0242 -1873.7644)">
				<stop  offset="0" style="stop-color:#FF4100"/>
				<stop  offset="1" style="stop-color:#EF7E4B"/>
			</linearGradient>
			<path style="fill:url(#SVGID_00000081633094828221159640000005956497508532173221_);" d="M83.4,68.3c0.2,1.2-0.6,2.3-1.9,2.5
				S79.2,70.2,79,69c-0.2-1.2,0.6-2.3,1.9-2.5S83.2,67.1,83.4,68.3z"/>
		</g>
		<g>
			
				<linearGradient id="SVGID_00000092450987459669528720000008099927549824743836_" gradientUnits="userSpaceOnUse" x1="2132.126" y1="2326.4934" x2="2139.6494" y2="2326.4934" gradientTransform="matrix(0.9866 -0.1631 0.1631 0.9866 -2412.0242 -1873.7644)">
				<stop  offset="0" style="stop-color:#FF4100"/>
				<stop  offset="1" style="stop-color:#EF7E4B"/>
			</linearGradient>
			<path style="fill:url(#SVGID_00000092450987459669528720000008099927549824743836_);" d="M78.5,72.6c0.3,2-1.1,3.8-3.1,4.2
				s-4-1-4.3-3c-0.3-2,1.1-3.8,3.1-4.2S78.2,70.7,78.5,72.6z"/>
			
				<linearGradient id="SVGID_00000071530559381650644850000002410018742263883137_" gradientUnits="userSpaceOnUse" x1="2138.1492" y1="2327.1965" x2="2145.6726" y2="2327.1965" gradientTransform="matrix(0.9866 -0.1631 0.1631 0.9866 -2412.0242 -1873.7644)">
				<stop  offset="0" style="stop-color:#FF4100"/>
				<stop  offset="1" style="stop-color:#EF7E4B"/>
			</linearGradient>
			<path style="fill:url(#SVGID_00000071530559381650644850000002410018742263883137_);" d="M84.6,72.4c0.3,2-1.1,3.8-3.1,4.2
				c-2,0.3-4-1-4.3-3s1.1-3.8,3.1-4.2C82.3,69.1,84.3,70.4,84.6,72.4z"/>
			
				<linearGradient id="SVGID_00000148641084031943141320000013695887721936805769_" gradientUnits="userSpaceOnUse" x1="2136.8472" y1="2322.6331" x2="2141.3157" y2="2322.6331" gradientTransform="matrix(0.9866 -0.1631 0.1631 0.9866 -2412.0242 -1873.7644)">
				<stop  offset="0" style="stop-color:#FF4100"/>
				<stop  offset="1" style="stop-color:#EF7E4B"/>
			</linearGradient>
			<path style="fill:url(#SVGID_00000148641084031943141320000013695887721936805769_);" d="M79.5,68.6c0.2,1.2-0.6,2.3-1.9,2.5
				s-2.4-0.6-2.6-1.8c-0.2-1.2,0.6-2.3,1.9-2.5C78.1,66.6,79.3,67.4,79.5,68.6z"/>
		</g>
		<g>
			
				<linearGradient id="SVGID_00000181789181866028724260000015065584977166903972_" gradientUnits="userSpaceOnUse" x1="2144.8813" y1="2335.5356" x2="2150.5459" y2="2335.5356" gradientTransform="matrix(0.9866 -0.1631 0.1631 0.9866 -2412.0242 -1873.7644)">
				<stop  offset="0" style="stop-color:#FF4100"/>
				<stop  offset="1" style="stop-color:#EF7E4B"/>
			</linearGradient>
			<path style="fill:url(#SVGID_00000181789181866028724260000015065584977166903972_);" d="M90.7,79.8c0.2,1.5-0.8,2.9-2.3,3.2
				s-3-0.7-3.2-2.2s0.8-2.9,2.3-3.2C89,77.3,90.5,78.3,90.7,79.8z"/>
			
				<linearGradient id="SVGID_00000103966048301517659080000010786870702725992881_" gradientUnits="userSpaceOnUse" x1="2149.4163" y1="2336.0649" x2="2155.0806" y2="2336.0649" gradientTransform="matrix(0.9866 -0.1631 0.1631 0.9866 -2412.0242 -1873.7644)">
				<stop  offset="0" style="stop-color:#FF4100"/>
				<stop  offset="1" style="stop-color:#EF7E4B"/>
			</linearGradient>
			<path style="fill:url(#SVGID_00000103966048301517659080000010786870702725992881_);" d="M95.3,79.6c0.2,1.5-0.8,2.9-2.3,3.2
				c-1.5,0.3-3-0.7-3.2-2.2s0.8-2.9,2.3-3.2C93.6,77.1,95,78.1,95.3,79.6z"/>
			
				<linearGradient id="SVGID_00000085935077994569380150000014806884369058951576_" gradientUnits="userSpaceOnUse" x1="2148.436" y1="2332.6292" x2="2151.8003" y2="2332.6292" gradientTransform="matrix(0.9866 -0.1631 0.1631 0.9866 -2412.0242 -1873.7644)">
				<stop  offset="0" style="stop-color:#FF4100"/>
				<stop  offset="1" style="stop-color:#EF7E4B"/>
			</linearGradient>
			<path style="fill:url(#SVGID_00000085935077994569380150000014806884369058951576_);" d="M91.4,76.7c0.1,0.9-0.5,1.7-1.4,1.9
				c-0.9,0.2-1.8-0.4-1.9-1.3c-0.1-0.9,0.5-1.7,1.4-1.9S91.3,75.9,91.4,76.7z"/>
		</g>
		<g>
			
				<linearGradient id="SVGID_00000026842893499616089940000011485079772704781705_" gradientUnits="userSpaceOnUse" x1="2117.8835" y1="2329.8142" x2="2125.407" y2="2329.8142" gradientTransform="matrix(0.9866 -0.1631 0.1631 0.9866 -2412.0242 -1873.7644)">
				<stop  offset="0" style="stop-color:#FF4100"/>
				<stop  offset="1" style="stop-color:#EF7E4B"/>
			</linearGradient>
			<path style="fill:url(#SVGID_00000026842893499616089940000011485079772704781705_);" d="M65,78.2c0.3,2-1.1,3.8-3.1,4.2
				c-2,0.3-4-1-4.3-3s1.1-3.8,3.1-4.2C62.8,74.9,64.7,76.3,65,78.2z"/>
			
				<linearGradient id="SVGID_00000038397067219445577390000013436610588379644567_" gradientUnits="userSpaceOnUse" x1="2123.9067" y1="2330.5173" x2="2131.4302" y2="2330.5173" gradientTransform="matrix(0.9866 -0.1631 0.1631 0.9866 -2412.0242 -1873.7644)">
				<stop  offset="0" style="stop-color:#FF4100"/>
				<stop  offset="1" style="stop-color:#EF7E4B"/>
			</linearGradient>
			<path style="fill:url(#SVGID_00000038397067219445577390000013436610588379644567_);" d="M71.1,78c0.3,2-1.1,3.8-3.1,4.2
				c-2,0.3-4-1-4.3-3c-0.3-2,1.1-3.8,3.1-4.2C68.8,74.7,70.8,76,71.1,78z"/>
			
				<linearGradient id="SVGID_00000035512327885772738170000004693804358303304324_" gradientUnits="userSpaceOnUse" x1="2122.6047" y1="2325.9541" x2="2127.0732" y2="2325.9541" gradientTransform="matrix(0.9866 -0.1631 0.1631 0.9866 -2412.0242 -1873.7644)">
				<stop  offset="0" style="stop-color:#FF4100"/>
				<stop  offset="1" style="stop-color:#EF7E4B"/>
			</linearGradient>
			<path style="fill:url(#SVGID_00000035512327885772738170000004693804358303304324_);" d="M66,74.2c0.2,1.2-0.6,2.3-1.9,2.5
				c-1.2,0.2-2.4-0.6-2.6-1.8c-0.2-1.2,0.6-2.3,1.9-2.5C64.6,72.2,65.8,73,66,74.2z"/>
		</g>
		<path class="st35" d="M44.3,82.1c0,0,6.7,13.8,2.5,21.8S43,124.8,43,124.8"/>
		<path class="st35" d="M39.9,78.9c0,0,5.2,5.9,3.1,16.7c-2.1,10.8-6.4,16.4-4.5,25.2"/>
		<path class="st35" d="M50.4,84.5c0,0,7,10.1,3.6,19.7s-6,10.7-5.8,23.8"/>
		<path class="st35" d="M59.5,89.6c0,0,3.8,11.6,0,18.1s-7.1,18.6-3.5,23.8"/>
		<path class="st5" d="M68,106.4"/>
		<path class="st35" d="M65.6,106.9c0,0,3,3.5,0.6,10.6c-2.4,7,1.8,15.5,1.8,15.5"/>
		<path class="st35" d="M71.3,105.2c0,0,5.4,5.5,3.7,12.9c-1.7,7.4,1,16,1,16"/>
		<path class="st35" d="M80,101.7c0,0,6.8,7.7,3.1,16.9c-3.7,9.3,3,15.7,3,15.7"/>
		<path class="st35" d="M95.8,94c0,0,4.7,8,3.8,17.4s2.5,13.4,2.5,13.4"/>
		<path class="st35" d="M105.2,88.6c0,0,3.8,3,1.4,14.8c-2.4,11.8,2.3,13.4,2.3,13.4"/>
		<path class="st4" d="M68.7,93.4"/>
		<path class="st4" d="M68.9,96c0,0,1,4.5,0,7.4"/>
		<path class="st35" d="M68.7,93.4c0,0,3.4,6.7-0.7,13"/>
		<path class="st35" d="M74.8,94.9c0,0,4,4.2,1.2,8.5"/>
	</g>
	<path class="st35" d="M89.1,97.5c0,0,6.5,6.5,3.7,16.6s3.1,15.3,3.1,15.3"/>
</g>
</svg>
