<?xml version="1.0" encoding="utf-8"?>
<!-- Generator: Adobe Illustrator 26.0.1, SVG Export Plug-In . SVG Version: 6.00 Build 0)  -->
<svg version="1.1" id="Layer_1" xmlns="http://www.w3.org/2000/svg" xmlns:xlink="http://www.w3.org/1999/xlink" x="0px" y="0px"
	 viewBox="0 0 120 180" style="enable-background:new 0 0 120 180;" xml:space="preserve">
<style type="text/css">
	.st0{fill:#DDDDDD;}
	.st1{opacity:0.53;fill:#B5B5B5;}
	.st2{fill:#FFFFFF;}
	.st3{fill:#002300;}
	.st4{fill:#D8C295;}
	.st5{fill:#301B12;}
	.st6{fill:#030809;}
	.st7{fill:url(#SVGID_1_);}
	.st8{fill:url(#SVGID_00000173124181500001020090000016152303352523414943_);}
	.st9{fill:url(#SVGID_00000037684062132707700440000015307322303133800380_);}
	.st10{fill:url(#SVGID_00000152981028261037041760000017893897787183913635_);}
	.st11{fill:url(#SVGID_00000000921158809888485790000016450491800508406454_);}
	.st12{fill:url(#SVGID_00000137118537310954899970000009274308701702375356_);stroke:#002300;stroke-width:2;stroke-miterlimit:10;}
	.st13{fill:url(#SVGID_00000067201486116380492870000018278603781518824847_);}
	.st14{fill:url(#SVGID_00000174569712264303923780000017342530830865928351_);}
	.st15{fill:url(#SVGID_00000032635135530884224790000014856913242755433618_);}
	.st16{fill:none;stroke:#002300;stroke-width:2;stroke-miterlimit:10;}
	.st17{fill:none;stroke:#002300;stroke-miterlimit:10;}
	.st18{fill:url(#SVGID_00000155831488870157195200000007748419755139539857_);}
	.st19{fill:url(#SVGID_00000070091521780637321920000014233206269286987905_);}
	.st20{fill:url(#SVGID_00000018200844560181022970000011983747421770707344_);}
	.st21{opacity:0.22;fill:#002300;}
	.st22{fill:url(#SVGID_00000103982332066842363080000013957270109502622852_);}
	.st23{fill:url(#SVGID_00000109020682505759027410000014860801653242564268_);}
	.st24{fill:url(#SVGID_00000183960123083561780120000017711718974952404899_);}
	.st25{fill:url(#SVGID_00000039127395088483502310000009847941960318946185_);}
	.st26{fill:url(#SVGID_00000093161178716852733340000013416237880952671894_);}
	.st27{fill:url(#SVGID_00000116236350474734049940000001568572707961120908_);stroke:#002300;stroke-width:2;stroke-miterlimit:10;}
	.st28{fill:url(#SVGID_00000103955356968775353860000002995860175761214131_);}
	.st29{fill:url(#SVGID_00000062895586691394845010000011049635377087016865_);}
	.st30{fill:url(#SVGID_00000106867024385551754420000016549996648996674493_);}
	.st31{fill:url(#SVGID_00000045606375088654182340000002572701677740758168_);}
	.st32{fill:url(#SVGID_00000132050153595752196120000017114113929708365471_);}
	.st33{fill:url(#SVGID_00000009559253143380059450000003699656201744131475_);}
	.st34{fill:url(#SVGID_00000161595970095445246150000016058025467852455332_);}
	.st35{fill:url(#SVGID_00000146478656852525232950000014608713035296605115_);}
	.st36{fill:url(#SVGID_00000030453734687294492290000002665822246860020099_);}
	.st37{fill:url(#SVGID_00000083075841338848163340000008592767987401886900_);}
	.st38{fill:url(#SVGID_00000057850298527023493720000005441181726810861230_);}
	.st39{fill:url(#SVGID_00000179635678501122881780000006929058674635720125_);stroke:#002300;stroke-width:2;stroke-miterlimit:10;}
	.st40{fill:url(#SVGID_00000101062162201380718910000000622408801151753889_);}
	.st41{fill:url(#SVGID_00000177451243756457069750000010614042332030276025_);}
	.st42{fill:url(#SVGID_00000089562991391879844810000001910253906479864763_);}
	.st43{fill:url(#SVGID_00000053537580692350107850000010631277807442233475_);}
	.st44{fill:url(#SVGID_00000120525483617262510260000016400751664140239284_);}
	.st45{fill:url(#SVGID_00000179605526622243830210000003031947443875362234_);}
</style>
<g>
	<path class="st0" d="M14.8,57.5v39.2c0,0,17.9,26.1,47.8,16c0,0,15.5-6.1,18.4-9.9c0,0,3.2-34.9,0-48.5
		C81,54.3,61.1,82.8,14.8,57.5z"/>
	<path class="st1" d="M14.8,57.5c0,0,4,14.8,33.8,16.4l1,41.1c0,0-19.1,2-34.8-18.3V57.5z"/>
	<path class="st2" d="M44.1,40.3c-6.5-0.5-13.1,1-18.8,4.2c-5.8,3.3-12.1,8.1-10.6,12.9c2.7,8.5,15.2,13.9,24,14.9s21.3,4.9,32-1.3
		c11.4-6.6,13.7-15.4,7.7-20.8C73.6,45.9,56.7,41.3,44.1,40.3z"/>
	<ellipse class="st3" cx="47.2" cy="56.7" rx="24.4" ry="11.5"/>
	<path class="st4" d="M22.8,83.6c0,1-0.5,1.9-1.2,1.9c-0.7,0-1.2-0.8-1.2-1.9c0-1,1.2-2.4,1.2-2.4S22.8,82.6,22.8,83.6z"/>
	<path class="st5" d="M21.9,76.4c-1.1,1.3-2.6,1.8-3.4,1.1c-0.8-0.7-0.7-2.3,0.4-3.6c1.1-1.3,4-1.9,4-1.9S23,75.1,21.9,76.4z"/>
	<path class="st5" d="M29.9,82.3c0.6,1.3,0.5,2.7-0.4,3.1s-2-0.3-2.7-1.6c-0.6-1.3,0-3.8,0-3.8S29.2,81,29.9,82.3z"/>
	<path class="st5" d="M77.6,90.2c0.6,1.3,0.5,2.7-0.4,3.1c-0.8,0.4-2-0.3-2.7-1.6c-0.6-1.3,0-3.8,0-3.8S76.9,88.9,77.6,90.2z"/>
	<path class="st5" d="M79.7,80.2c0.6,1.3,0.5,2.7-0.4,3.1c-0.8,0.4-2-0.3-2.7-1.6s0-3.8,0-3.8S79.1,78.9,79.7,80.2z"/>
	<path class="st4" d="M33.5,77.9c-0.9-0.4-1.5-1.3-1.2-1.9c0.3-0.6,1.3-0.7,2.2-0.3c0.9,0.4,1.7,2.1,1.7,2.1S34.4,78.3,33.5,77.9z"
		/>
	<path class="st4" d="M40.8,83.2c-0.7-1.5-0.5-3.1,0.4-3.6c1-0.5,2.3,0.4,3.1,1.9s0,4.4,0,4.4S41.5,84.7,40.8,83.2z"/>
	<path class="st4" d="M34.9,88c-1.4,0-2.6-0.7-2.6-1.6s1.1-1.7,2.6-1.7s3.5,1.6,3.5,1.6S36.4,88,34.9,88z"/>
	<path class="st4" d="M27,90.4c-0.9-0.4-1.5-1.3-1.2-1.9s1.3-0.7,2.2-0.3s1.7,2.1,1.7,2.1S28,90.9,27,90.4z"/>
	<path class="st5" d="M20.9,91.8c-0.9-0.4-1.5-1.3-1.2-1.9s1.3-0.7,2.2-0.3s1.7,2.1,1.7,2.1S21.8,92.2,20.9,91.8z"/>
	<path class="st5" d="M34,92.7c-0.7-1.5-0.5-3.1,0.4-3.6c1-0.5,2.3,0.4,3.1,1.9s0,4.4,0,4.4S34.7,94.2,34,92.7z"/>
	<path class="st5" d="M28.1,97.5c-1.4,0-2.6-0.7-2.6-1.6c0-0.9,1.1-1.7,2.6-1.7s3.5,1.6,3.5,1.6S29.5,97.5,28.1,97.5z"/>
	<path class="st4" d="M35.8,101.9c-0.9-0.4-1.5-1.3-1.2-1.9c0.3-0.6,1.3-0.7,2.2-0.3s1.7,2.1,1.7,2.1S36.7,102.3,35.8,101.9z"/>
	<path class="st5" d="M42.7,104.2c-0.7-1.5-0.5-3.1,0.4-3.6s2.3,0.4,3.1,1.9s0,4.4,0,4.4S43.4,105.7,42.7,104.2z"/>
	<path class="st6" d="M36.8,108.6c-1.4,0-2.5-0.7-2.6-1.6c0-0.9,1.1-1.6,2.5-1.7c1.4,0,3.3,1.6,3.3,1.6S38.2,108.6,36.8,108.6z"/>
	<path class="st6" d="M47.7,92c-0.9-0.4-1.4-1.2-1.1-1.8s1.2-0.7,2.1-0.3c0.9,0.4,1.6,2.1,1.6,2.1S48.6,92.4,47.7,92z"/>
	<path class="st4" d="M43.7,95.4c0.4,0.9,0.3,1.9-0.3,2.2c-0.6,0.3-1.4-0.3-1.9-1.2c-0.4-0.9,0.1-2.7,0.1-2.7S43.3,94.4,43.7,95.4z"
		/>
	<path class="st6" d="M61.8,108c-0.9-0.4-1.5-1.3-1.2-1.9c0.3-0.6,1.3-0.7,2.2-0.3s1.7,2.1,1.7,2.1S62.8,108.5,61.8,108z"/>
	<path class="st5" d="M55.4,93c-0.6-1.3-0.5-2.8,0.4-3.2c0.9-0.4,2.1,0.3,2.7,1.7c0.6,1.3,0,4,0,4S56.1,94.4,55.4,93z"/>
	<path class="st5" d="M55.3,109.4c-0.6-1.3-0.5-2.8,0.4-3.2c0.9-0.4,2.1,0.3,2.7,1.7c0.6,1.3,0,4,0,4S56,110.7,55.3,109.4z"/>
	<path class="st5" d="M49.2,98.9c-1.4,0-2.6-0.7-2.6-1.6s1.1-1.7,2.6-1.7s3.5,1.6,3.5,1.6S50.6,98.8,49.2,98.9z"/>
	<path class="st6" d="M60.9,83.1c1-0.1,1.9,0.2,2,0.9c0.1,0.6-0.6,1.3-1.6,1.4c-1,0.1-2.5-0.8-2.5-0.8S59.9,83.3,60.9,83.1z"/>
	<path class="st6" d="M54.6,85c1.3,0.7,1.9,2,1.4,2.8c-0.5,0.8-1.9,0.9-3.1,0.1s-2.1-3.2-2.1-3.2S53.3,84.3,54.6,85z"/>
	<path class="st6" d="M68.4,100c-0.6-1.3-0.5-2.8,0.4-3.2s2.1,0.3,2.7,1.7c0.6,1.3,0,4,0,4S69,101.3,68.4,100z"/>
	<path class="st5" d="M62.2,102.8c-1.4,0-2.6-0.7-2.6-1.6s1.1-1.7,2.6-1.7c1.4,0,3.5,1.6,3.5,1.6S63.6,102.8,62.2,102.8z"/>
	<path class="st6" d="M67.2,88.9c1.3,0.7,1.9,2,1.4,2.8s-1.9,0.9-3.1,0.1c-1.3-0.7-2.1-3.2-2.1-3.2S65.9,88.1,67.2,88.9z"/>
	<path class="st5" d="M57,77.4c1.2-0.8,2.6-0.9,3.1-0.1c0.5,0.8,0,2.1-1.2,2.9c-1.2,0.8-3.8,0.6-3.8,0.6S55.8,78.2,57,77.4z"/>
	<path class="st6" d="M78.3,99.6c1-0.2,1.9,0.3,2,0.9s-0.6,1.3-1.7,1.5c-1,0.2-2.6-0.8-2.6-0.8S77.3,99.8,78.3,99.6z"/>
	<path class="st5" d="M68.3,79.9c0.5-1.4,1.7-2.3,2.6-1.9s1.2,1.7,0.7,3.1c-0.5,1.4-2.9,2.7-2.9,2.7S67.8,81.3,68.3,79.9z"/>
	<path class="st6" d="M75.7,67.6c1.2-0.8,2.6-0.9,3.1-0.1c0.5,0.8,0,2.1-1.2,2.9c-1.2,0.8-3.8,0.6-3.8,0.6S74.5,68.5,75.7,67.6z"/>
	<path class="st5" d="M26.6,101.1c0.7,0.7,1,1.7,0.5,2.2c-0.5,0.5-1.4,0.3-2.2-0.4c-0.7-0.7-0.9-2.6-0.9-2.6S25.9,100.4,26.6,101.1z
		"/>
	<path class="st4" d="M20.8,96.8c0.2,1.7-0.5,3.1-1.5,3.3c-1.1,0.1-2.1-1.1-2.3-2.7c-0.2-1.7,1.4-4.2,1.4-4.2S20.5,95.1,20.8,96.8z"
		/>
	<path class="st6" d="M53.8,100.1c1.2-0.8,2.5-0.8,3-0.1c0.5,0.7,0,2-1.2,2.8c-1.2,0.8-3.7,0.6-3.7,0.6S52.7,100.9,53.8,100.1z"/>
	<path class="st6" d="M47.4,109.2c1.2-0.8,2.5-0.8,3-0.1c0.5,0.7,0,2-1.2,2.8c-1.2,0.8-3.7,0.6-3.7,0.6S46.3,110,47.4,109.2z"/>
	<linearGradient id="SVGID_1_" gradientUnits="userSpaceOnUse" x1="33.4617" y1="54.2695" x2="43.2548" y2="54.2695">
		<stop  offset="1.961183e-02" style="stop-color:#7CB100"/>
		<stop  offset="0.3473" style="stop-color:#A0C427"/>
		<stop  offset="0.9988" style="stop-color:#F0EE7D"/>
	</linearGradient>
	<path class="st7" d="M41.6,59.2h-6.5c-0.9,0-1.6-0.7-1.6-1.6V51c0-0.9,0.7-1.6,1.6-1.6h6.5c0.9,0,1.6,0.7,1.6,1.6v6.5
		C43.3,58.4,42.5,59.2,41.6,59.2z"/>
	
		<linearGradient id="SVGID_00000155832301443384107010000006012857868350989217_" gradientUnits="userSpaceOnUse" x1="34.8165" y1="61.5661" x2="49.7218" y2="61.5661">
		<stop  offset="1.961183e-02" style="stop-color:#7CB100"/>
		<stop  offset="0.3473" style="stop-color:#A0C427"/>
		<stop  offset="0.9988" style="stop-color:#F0EE7D"/>
	</linearGradient>
	<path style="fill:url(#SVGID_00000155832301443384107010000006012857868350989217_);" d="M47.7,66.5H36.8c-1.1,0-2-0.9-2-2v-5.8
		c0-1.1,0.9-2,2-2h10.9c1.1,0,2,0.9,2,2v5.8C49.7,65.6,48.8,66.5,47.7,66.5z"/>
	
		<linearGradient id="SVGID_00000111155661173358626780000009952770566788013185_" gradientUnits="userSpaceOnUse" x1="47.7154" y1="54.1953" x2="62.6207" y2="54.1953">
		<stop  offset="1.961183e-02" style="stop-color:#7CB100"/>
		<stop  offset="0.3473" style="stop-color:#A0C427"/>
		<stop  offset="0.9988" style="stop-color:#F0EE7D"/>
	</linearGradient>
	<path style="fill:url(#SVGID_00000111155661173358626780000009952770566788013185_);" d="M61,57.3H49.3c-0.9,0-1.6-0.7-1.6-1.6v-3
		c0-0.9,0.7-1.6,1.6-1.6H61c0.9,0,1.6,0.7,1.6,1.6v3C62.6,56.6,61.9,57.3,61,57.3z"/>
	
		<linearGradient id="SVGID_00000016784508226323846210000007347043083096651934_" gradientUnits="userSpaceOnUse" x1="50.2444" y1="58.9788" x2="65.1497" y2="58.9788">
		<stop  offset="1.961183e-02" style="stop-color:#7CB100"/>
		<stop  offset="0.3473" style="stop-color:#A0C427"/>
		<stop  offset="0.9988" style="stop-color:#F0EE7D"/>
	</linearGradient>
	<path style="fill:url(#SVGID_00000016784508226323846210000007347043083096651934_);" d="M63.5,62.1H51.9c-0.9,0-1.6-0.7-1.6-1.6
		v-3c0-0.9,0.7-1.6,1.6-1.6h11.7c0.9,0,1.6,0.7,1.6,1.6v3C65.1,61.4,64.4,62.1,63.5,62.1z"/>
	
		<linearGradient id="SVGID_00000099630726118285691760000015990478094063564940_" gradientUnits="userSpaceOnUse" x1="2240.2537" y1="-1226.0134" x2="2247.7065" y2="-1226.0134" gradientTransform="matrix(0.3019 0.9533 -0.9533 0.3019 -1786.1876 -1706.6232)">
		<stop  offset="1.961183e-02" style="stop-color:#7CB100"/>
		<stop  offset="0.3473" style="stop-color:#A0C427"/>
		<stop  offset="0.9988" style="stop-color:#F0EE7D"/>
	</linearGradient>
	<path style="fill:url(#SVGID_00000099630726118285691760000015990478094063564940_);" d="M57.8,66L56.3,61
		c-0.2-0.6,0.1-1.2,0.7-1.4l3.8-1.2c0.6-0.2,1.2,0.1,1.4,0.7l1.6,4.9c0.2,0.6-0.1,1.2-0.7,1.4l-3.8,1.2C58.7,66.9,58,66.6,57.8,66z"
		/>
	
		<linearGradient id="SVGID_00000140721365976697323020000002976861843671076270_" gradientUnits="userSpaceOnUse" x1="26.0345" y1="53.7586" x2="33.4872" y2="53.7586">
		<stop  offset="1.961183e-02" style="stop-color:#7CB100"/>
		<stop  offset="0.3473" style="stop-color:#A0C427"/>
		<stop  offset="0.9988" style="stop-color:#F0EE7D"/>
	</linearGradient>
	
		<path style="fill:url(#SVGID_00000140721365976697323020000002976861843671076270_);stroke:#002300;stroke-width:2;stroke-miterlimit:10;" d="
		M32.3,56.9h-5.2c-0.6,0-1.1-0.5-1.1-1.1v-4c0-0.6,0.5-1.1,1.1-1.1h5.2c0.6,0,1.1,0.5,1.1,1.1v4C33.5,56.4,33,56.9,32.3,56.9z"/>
	
		<linearGradient id="SVGID_00000172412535658398754230000014685827373229835143_" gradientUnits="userSpaceOnUse" x1="38.5428" y1="49.3729" x2="45.9955" y2="49.3729">
		<stop  offset="1.961183e-02" style="stop-color:#7CB100"/>
		<stop  offset="0.3473" style="stop-color:#A0C427"/>
		<stop  offset="0.9988" style="stop-color:#F0EE7D"/>
	</linearGradient>
	<path style="fill:url(#SVGID_00000172412535658398754230000014685827373229835143_);" d="M44.9,52.5h-5.2c-0.6,0-1.1-0.5-1.1-1.1
		v-4c0-0.6,0.5-1.1,1.1-1.1h5.2c0.6,0,1.1,0.5,1.1,1.1v4C46,52,45.5,52.5,44.9,52.5z"/>
	
		<linearGradient id="SVGID_00000070094660426042771030000014071792901969851043_" gradientUnits="userSpaceOnUse" x1="48.853" y1="50.5392" x2="56.3057" y2="50.5392">
		<stop  offset="1.961183e-02" style="stop-color:#7CB100"/>
		<stop  offset="0.3473" style="stop-color:#A0C427"/>
		<stop  offset="0.9988" style="stop-color:#F0EE7D"/>
	</linearGradient>
	<path style="fill:url(#SVGID_00000070094660426042771030000014071792901969851043_);" d="M54.8,55.9h-4.5c-0.8,0-1.5-0.7-1.5-1.5
		v-7.7c0-0.8,0.7-1.5,1.5-1.5h4.5c0.8,0,1.5,0.7,1.5,1.5v7.7C56.3,55.2,55.6,55.9,54.8,55.9z"/>
	
		<linearGradient id="SVGID_00000112602597813699772660000006749204843682505891_" gradientUnits="userSpaceOnUse" x1="61.8851" y1="55.8529" x2="69.3378" y2="55.8529">
		<stop  offset="1.961183e-02" style="stop-color:#7CB100"/>
		<stop  offset="0.3473" style="stop-color:#A0C427"/>
		<stop  offset="0.9988" style="stop-color:#F0EE7D"/>
	</linearGradient>
	<path style="fill:url(#SVGID_00000112602597813699772660000006749204843682505891_);" d="M67.9,61.2h-4.5c-0.8,0-1.5-0.7-1.5-1.5
		V52c0-0.8,0.7-1.5,1.5-1.5h4.5c0.8,0,1.5,0.7,1.5,1.5v7.7C69.3,60.5,68.7,61.2,67.9,61.2z"/>
	<path class="st16" d="M57.8,66L56.3,61c-0.2-0.6,0.1-1.2,0.7-1.4l3.8-1.2c0.6-0.2,1.2,0.1,1.4,0.7l1.6,4.9c0.2,0.6-0.1,1.2-0.7,1.4
		l-3.8,1.2C58.7,66.9,58,66.6,57.8,66z"/>
	<path class="st17" d="M32.3,56.9h-5.2c-0.6,0-1.1-0.5-1.1-1.1v-4c0-0.6,0.5-1.1,1.1-1.1h5.2c0.6,0,1.1,0.5,1.1,1.1v4
		C33.5,56.4,33,56.9,32.3,56.9z"/>
	<path class="st16" d="M47.7,66.5H36.8c-1.1,0-2-0.9-2-2v-5.8c0-1.1,0.9-2,2-2h10.9c1.1,0,2,0.9,2,2v5.8
		C49.7,65.6,48.8,66.5,47.7,66.5z"/>
	
		<linearGradient id="SVGID_00000122678944938843023360000004523001543146546560_" gradientUnits="userSpaceOnUse" x1="1712.3951" y1="-686.7047" x2="1719.8478" y2="-686.7047" gradientTransform="matrix(0.6318 0.7751 -0.7751 0.6318 -1584.9974 -835.8663)">
		<stop  offset="1.961183e-02" style="stop-color:#7CB100"/>
		<stop  offset="0.3473" style="stop-color:#A0C427"/>
		<stop  offset="0.9988" style="stop-color:#F0EE7D"/>
	</linearGradient>
	<path style="fill:url(#SVGID_00000122678944938843023360000004523001543146546560_);" d="M30.7,64.5l-3.3-4
		c-0.4-0.5-0.3-1.2,0.2-1.6l3.1-2.5c0.5-0.4,1.2-0.3,1.6,0.2l3.3,4c0.4,0.5,0.3,1.2-0.2,1.6l-3.1,2.5C31.8,65.1,31.1,65,30.7,64.5z"
		/>
	
		<linearGradient id="SVGID_00000126323355122003466990000007150415408531720350_" gradientUnits="userSpaceOnUse" x1="45.123" y1="64.7016" x2="60.0283" y2="64.7016">
		<stop  offset="1.961183e-02" style="stop-color:#7CB100"/>
		<stop  offset="0.3473" style="stop-color:#A0C427"/>
		<stop  offset="0.9988" style="stop-color:#F0EE7D"/>
	</linearGradient>
	<path style="fill:url(#SVGID_00000126323355122003466990000007150415408531720350_);" d="M58.4,67.8H46.7c-0.9,0-1.6-0.7-1.6-1.6
		v-3c0-0.9,0.7-1.6,1.6-1.6h11.7c0.9,0,1.6,0.7,1.6,1.6v3C60,67.1,59.3,67.8,58.4,67.8z"/>
	
		<linearGradient id="SVGID_00000091015224936463483920000012459403516437274558_" gradientUnits="userSpaceOnUse" x1="1911.6492" y1="-774.4664" x2="1916.9365" y2="-774.4664" gradientTransform="matrix(0.5664 0.8241 -0.8241 0.5664 -1676.6501 -1085.1626)">
		<stop  offset="1.961183e-02" style="stop-color:#7CB100"/>
		<stop  offset="0.3473" style="stop-color:#A0C427"/>
		<stop  offset="0.9988" style="stop-color:#F0EE7D"/>
	</linearGradient>
	<path style="fill:url(#SVGID_00000091015224936463483920000012459403516437274558_);" d="M51.3,52.8l-7.9,5.9
		c-0.6,0.4-1.4,0.3-1.8-0.3l-1.4-1.8c-0.4-0.6-0.3-1.4,0.3-1.8l7.9-5.9c0.6-0.4,1.4-0.3,1.8,0.3l1.4,1.8
		C52,51.5,51.9,52.3,51.3,52.8z"/>
	<path class="st21" d="M22.8,56.7c0,0,0.3-10.8,24.4-11.5c24.1-0.7,24.4,11.5,24.4,11.5S60.1,45.1,22.8,56.7z"/>
</g>
<g>
	<path class="st0" d="M46.7,80.1v39.2c0,0,17.9,26.1,47.8,16c0,0,15.5-6.1,18.4-9.9c0,0,3.2-34.9,0-48.5
		C112.9,76.9,93,105.4,46.7,80.1z"/>
	<path class="st1" d="M46.7,80.1c0,0,4,14.8,33.8,16.4l1,41.1c0,0-19.1,2-34.8-18.3V80.1z"/>
	<path class="st2" d="M76,63c-6.5-0.5-13.1,1-18.8,4.2c-5.8,3.3-12.1,8.1-10.6,12.9c2.7,8.5,15.2,13.9,24,14.9s21.3,4.9,32-1.3
		c11.4-6.6,13.7-15.4,7.7-20.8C105.5,68.5,88.6,63.9,76,63z"/>
	<ellipse class="st3" cx="79.2" cy="79.3" rx="24.4" ry="11.5"/>
	<path class="st4" d="M54.7,106.2c0,1-0.5,1.9-1.2,1.9c-0.7,0-1.2-0.8-1.2-1.9c0-1,1.2-2.4,1.2-2.4S54.7,105.2,54.7,106.2z"/>
	<path class="st5" d="M53.8,99c-1.1,1.3-2.6,1.8-3.4,1.1c-0.8-0.7-0.7-2.3,0.4-3.6c1.1-1.3,4-1.9,4-1.9S54.9,97.7,53.8,99z"/>
	<path class="st5" d="M61.8,104.9c0.6,1.3,0.5,2.7-0.4,3.1c-0.8,0.4-2-0.3-2.7-1.6c-0.6-1.3,0-3.8,0-3.8S61.1,103.6,61.8,104.9z"/>
	<path class="st5" d="M109.5,112.9c0.6,1.3,0.5,2.7-0.4,3.1c-0.8,0.4-2-0.3-2.7-1.6c-0.6-1.3,0-3.8,0-3.8S108.8,111.6,109.5,112.9z"
		/>
	<path class="st5" d="M111.6,102.8c0.6,1.3,0.5,2.7-0.4,3.1c-0.8,0.4-2-0.3-2.7-1.6c-0.6-1.3,0-3.8,0-3.8S111,101.5,111.6,102.8z"/>
	<path class="st4" d="M65.4,100.5c-0.9-0.4-1.5-1.3-1.2-1.9s1.3-0.7,2.2-0.3s1.7,2.1,1.7,2.1S66.3,101,65.4,100.5z"/>
	<path class="st4" d="M72.7,105.8c-0.7-1.5-0.5-3.1,0.4-3.6c1-0.5,2.3,0.4,3.1,1.9s0,4.4,0,4.4S73.4,107.3,72.7,105.8z"/>
	<path class="st4" d="M66.8,110.6c-1.4,0-2.6-0.7-2.6-1.6s1.1-1.7,2.6-1.7c1.4,0,3.5,1.6,3.5,1.6S68.3,110.6,66.8,110.6z"/>
	<path class="st4" d="M58.9,113.1c-0.9-0.4-1.5-1.3-1.2-1.9c0.3-0.6,1.3-0.7,2.2-0.3s1.7,2.1,1.7,2.1S59.9,113.5,58.9,113.1z"/>
	<path class="st5" d="M52.8,114.4c-0.9-0.4-1.5-1.3-1.2-1.9c0.3-0.6,1.3-0.7,2.2-0.3s1.7,2.1,1.7,2.1S53.7,114.9,52.8,114.4z"/>
	<path class="st5" d="M65.9,115.3c-0.7-1.5-0.5-3.1,0.4-3.6c1-0.5,2.3,0.4,3.1,1.9s0,4.4,0,4.4S66.6,116.8,65.9,115.3z"/>
	<path class="st5" d="M60,120.1c-1.4,0-2.6-0.7-2.6-1.6s1.1-1.7,2.6-1.7s3.5,1.6,3.5,1.6S61.4,120.1,60,120.1z"/>
	<path class="st4" d="M67.7,124.5c-0.9-0.4-1.5-1.3-1.2-1.9c0.3-0.6,1.3-0.7,2.2-0.3s1.7,2.1,1.7,2.1S68.6,125,67.7,124.5z"/>
	<path class="st5" d="M74.6,126.8c-0.7-1.5-0.5-3.1,0.4-3.6s2.3,0.4,3.1,1.9s0,4.4,0,4.4S75.3,128.3,74.6,126.8z"/>
	<path class="st6" d="M68.7,131.2c-1.4,0-2.5-0.7-2.6-1.6c0-0.9,1.1-1.6,2.5-1.7c1.4,0,3.3,1.6,3.3,1.6S70.1,131.2,68.7,131.2z"/>
	<path class="st6" d="M79.6,114.6c-0.9-0.4-1.4-1.2-1.1-1.8c0.3-0.6,1.2-0.7,2.1-0.3c0.9,0.4,1.6,2.1,1.6,2.1S80.5,115.1,79.6,114.6
		z"/>
	<path class="st4" d="M75.6,118c0.4,0.9,0.3,1.9-0.3,2.2c-0.6,0.3-1.4-0.3-1.9-1.2c-0.4-0.9,0.1-2.7,0.1-2.7S75.2,117.1,75.6,118z"
		/>
	<path class="st6" d="M93.7,130.7c-0.9-0.4-1.5-1.3-1.2-1.9c0.3-0.6,1.3-0.7,2.2-0.3s1.7,2.1,1.7,2.1S94.7,131.1,93.7,130.7z"/>
	<path class="st5" d="M87.3,115.7c-0.6-1.3-0.5-2.8,0.4-3.2s2.1,0.3,2.7,1.7c0.6,1.3,0,4,0,4S88,117,87.3,115.7z"/>
	<path class="st5" d="M87.2,132c-0.6-1.3-0.5-2.8,0.4-3.2c0.9-0.4,2.1,0.3,2.7,1.7c0.6,1.3,0,4,0,4S87.9,133.4,87.2,132z"/>
	<path class="st5" d="M81.1,121.5c-1.4,0-2.6-0.7-2.6-1.6s1.1-1.7,2.6-1.7c1.4,0,3.5,1.6,3.5,1.6S82.5,121.5,81.1,121.5z"/>
	<path class="st6" d="M92.8,105.8c1-0.1,1.9,0.2,2,0.9c0.1,0.6-0.6,1.3-1.6,1.4s-2.5-0.8-2.5-0.8S91.8,105.9,92.8,105.8z"/>
	<path class="st6" d="M86.5,107.7c1.3,0.7,1.9,2,1.4,2.8s-1.9,0.9-3.1,0.1s-2.1-3.2-2.1-3.2S85.2,106.9,86.5,107.7z"/>
	<path class="st6" d="M100.3,122.6c-0.6-1.3-0.5-2.8,0.4-3.2s2.1,0.3,2.7,1.7c0.6,1.3,0,4,0,4S100.9,124,100.3,122.6z"/>
	<path class="st5" d="M94.1,125.5c-1.4,0-2.6-0.7-2.6-1.6s1.1-1.7,2.6-1.7s3.5,1.6,3.5,1.6S95.5,125.4,94.1,125.5z"/>
	<path class="st6" d="M99.1,111.5c1.3,0.7,1.9,2,1.4,2.8c-0.5,0.8-1.9,0.9-3.1,0.1c-1.3-0.7-2.1-3.2-2.1-3.2S97.8,110.8,99.1,111.5z
		"/>
	<path class="st5" d="M88.9,100.1c1.2-0.8,2.6-0.9,3.1-0.1c0.5,0.8,0,2.1-1.2,2.9c-1.2,0.8-3.8,0.6-3.8,0.6S87.7,100.9,88.9,100.1z"
		/>
	<path class="st6" d="M110.2,122.2c1-0.2,1.9,0.3,2,0.9c0.1,0.7-0.6,1.3-1.7,1.5c-1,0.2-2.6-0.8-2.6-0.8S109.2,122.4,110.2,122.2z"
		/>
	<path class="st5" d="M100.2,102.5c0.5-1.4,1.7-2.3,2.6-1.9c0.9,0.3,1.2,1.7,0.7,3.1c-0.5,1.4-2.9,2.7-2.9,2.7
		S99.7,103.9,100.2,102.5z"/>
	<path class="st6" d="M107.6,90.3c1.2-0.8,2.6-0.9,3.1-0.1c0.5,0.8,0,2.1-1.2,2.9c-1.2,0.8-3.8,0.6-3.8,0.6S106.4,91.1,107.6,90.3z"
		/>
	<path class="st5" d="M58.5,123.7c0.7,0.7,1,1.7,0.5,2.2s-1.4,0.3-2.2-0.4c-0.7-0.7-0.9-2.6-0.9-2.6S57.8,123,58.5,123.7z"/>
	<path class="st4" d="M52.7,119.4c0.2,1.7-0.5,3.1-1.5,3.3c-1.1,0.1-2.1-1.1-2.3-2.7c-0.2-1.7,1.4-4.2,1.4-4.2
		S52.4,117.8,52.7,119.4z"/>
	<path class="st6" d="M85.7,122.8c1.2-0.8,2.5-0.8,3-0.1c0.5,0.7,0,2-1.2,2.8s-3.7,0.6-3.7,0.6S84.6,123.6,85.7,122.8z"/>
	<path class="st6" d="M79.3,131.9c1.2-0.8,2.5-0.8,3-0.1c0.5,0.7,0,2-1.2,2.8c-1.2,0.8-3.7,0.6-3.7,0.6S78.2,132.7,79.3,131.9z"/>
	
		<linearGradient id="SVGID_00000165207205094132961410000017332053187839266483_" gradientUnits="userSpaceOnUse" x1="65.3634" y1="76.9068" x2="75.1565" y2="76.9068">
		<stop  offset="1.961183e-02" style="stop-color:#7CB100"/>
		<stop  offset="0.3473" style="stop-color:#A0C427"/>
		<stop  offset="0.9988" style="stop-color:#F0EE7D"/>
	</linearGradient>
	<path style="fill:url(#SVGID_00000165207205094132961410000017332053187839266483_);" d="M73.5,81.8H67c-0.9,0-1.6-0.7-1.6-1.6
		v-6.5c0-0.9,0.7-1.6,1.6-1.6h6.5c0.9,0,1.6,0.7,1.6,1.6v6.5C75.2,81.1,74.4,81.8,73.5,81.8z"/>
	
		<linearGradient id="SVGID_00000105414053707258936800000015166166387173023912_" gradientUnits="userSpaceOnUse" x1="66.7182" y1="84.2034" x2="81.6236" y2="84.2034">
		<stop  offset="1.961183e-02" style="stop-color:#7CB100"/>
		<stop  offset="0.3473" style="stop-color:#A0C427"/>
		<stop  offset="0.9988" style="stop-color:#F0EE7D"/>
	</linearGradient>
	<path style="fill:url(#SVGID_00000105414053707258936800000015166166387173023912_);" d="M79.6,89.1H68.7c-1.1,0-2-0.9-2-2v-5.8
		c0-1.1,0.9-2,2-2h10.9c1.1,0,2,0.9,2,2v5.8C81.6,88.2,80.7,89.1,79.6,89.1z"/>
	
		<linearGradient id="SVGID_00000121992484936838768570000013665458456800540341_" gradientUnits="userSpaceOnUse" x1="79.6171" y1="76.8326" x2="94.5225" y2="76.8326">
		<stop  offset="1.961183e-02" style="stop-color:#7CB100"/>
		<stop  offset="0.3473" style="stop-color:#A0C427"/>
		<stop  offset="0.9988" style="stop-color:#F0EE7D"/>
	</linearGradient>
	<path style="fill:url(#SVGID_00000121992484936838768570000013665458456800540341_);" d="M92.9,80H81.2c-0.9,0-1.6-0.7-1.6-1.6v-3
		c0-0.9,0.7-1.6,1.6-1.6h11.7c0.9,0,1.6,0.7,1.6,1.6v3C94.5,79.2,93.8,80,92.9,80z"/>
	
		<linearGradient id="SVGID_00000124156167605052178210000005849232117820417715_" gradientUnits="userSpaceOnUse" x1="82.1461" y1="81.6161" x2="97.0515" y2="81.6161">
		<stop  offset="1.961183e-02" style="stop-color:#7CB100"/>
		<stop  offset="0.3473" style="stop-color:#A0C427"/>
		<stop  offset="0.9988" style="stop-color:#F0EE7D"/>
	</linearGradient>
	<path style="fill:url(#SVGID_00000124156167605052178210000005849232117820417715_);" d="M95.4,84.7H83.8c-0.9,0-1.6-0.7-1.6-1.6
		v-3c0-0.9,0.7-1.6,1.6-1.6h11.7c0.9,0,1.6,0.7,1.6,1.6v3C97.1,84,96.3,84.7,95.4,84.7z"/>
	
		<linearGradient id="SVGID_00000085960439221523333710000000346779529307096486_" gradientUnits="userSpaceOnUse" x1="2271.4653" y1="-1249.5933" x2="2278.918" y2="-1249.5933" gradientTransform="matrix(0.3019 0.9533 -0.9533 0.3019 -1786.1876 -1706.6232)">
		<stop  offset="1.961183e-02" style="stop-color:#7CB100"/>
		<stop  offset="0.3473" style="stop-color:#A0C427"/>
		<stop  offset="0.9988" style="stop-color:#F0EE7D"/>
	</linearGradient>
	<path style="fill:url(#SVGID_00000085960439221523333710000000346779529307096486_);" d="M89.7,88.6l-1.6-4.9
		c-0.2-0.6,0.1-1.2,0.7-1.4l3.8-1.2c0.6-0.2,1.2,0.1,1.4,0.7l1.6,4.9c0.2,0.6-0.1,1.2-0.7,1.4l-3.8,1.2
		C90.6,89.5,89.9,89.2,89.7,88.6z"/>
	
		<linearGradient id="SVGID_00000173132160740917729600000002529040100252927117_" gradientUnits="userSpaceOnUse" x1="57.9363" y1="76.396" x2="65.389" y2="76.396">
		<stop  offset="1.961183e-02" style="stop-color:#7CB100"/>
		<stop  offset="0.3473" style="stop-color:#A0C427"/>
		<stop  offset="0.9988" style="stop-color:#F0EE7D"/>
	</linearGradient>
	
		<path style="fill:url(#SVGID_00000173132160740917729600000002529040100252927117_);stroke:#002300;stroke-width:2;stroke-miterlimit:10;" d="
		M64.3,79.5h-5.2c-0.6,0-1.1-0.5-1.1-1.1v-4c0-0.6,0.5-1.1,1.1-1.1h5.2c0.6,0,1.1,0.5,1.1,1.1v4C65.4,79,64.9,79.5,64.3,79.5z"/>
	
		<linearGradient id="SVGID_00000142875947688634468840000012310783457596560276_" gradientUnits="userSpaceOnUse" x1="70.4445" y1="72.0102" x2="77.8972" y2="72.0102">
		<stop  offset="1.961183e-02" style="stop-color:#7CB100"/>
		<stop  offset="0.3473" style="stop-color:#A0C427"/>
		<stop  offset="0.9988" style="stop-color:#F0EE7D"/>
	</linearGradient>
	<path style="fill:url(#SVGID_00000142875947688634468840000012310783457596560276_);" d="M76.8,75.1h-5.2c-0.6,0-1.1-0.5-1.1-1.1
		v-4c0-0.6,0.5-1.1,1.1-1.1h5.2c0.6,0,1.1,0.5,1.1,1.1v4C77.9,74.6,77.4,75.1,76.8,75.1z"/>
	
		<linearGradient id="SVGID_00000062155563935771739240000017250313342291053496_" gradientUnits="userSpaceOnUse" x1="80.7547" y1="73.1765" x2="88.2074" y2="73.1765">
		<stop  offset="1.961183e-02" style="stop-color:#7CB100"/>
		<stop  offset="0.3473" style="stop-color:#A0C427"/>
		<stop  offset="0.9988" style="stop-color:#F0EE7D"/>
	</linearGradient>
	<path style="fill:url(#SVGID_00000062155563935771739240000017250313342291053496_);" d="M86.7,78.5h-4.5c-0.8,0-1.5-0.7-1.5-1.5
		v-7.7c0-0.8,0.7-1.5,1.5-1.5h4.5c0.8,0,1.5,0.7,1.5,1.5V77C88.2,77.8,87.5,78.5,86.7,78.5z"/>
	
		<linearGradient id="SVGID_00000148656334680617285060000017164222861436243342_" gradientUnits="userSpaceOnUse" x1="93.7869" y1="78.4902" x2="101.2395" y2="78.4902">
		<stop  offset="1.961183e-02" style="stop-color:#7CB100"/>
		<stop  offset="0.3473" style="stop-color:#A0C427"/>
		<stop  offset="0.9988" style="stop-color:#F0EE7D"/>
	</linearGradient>
	<path style="fill:url(#SVGID_00000148656334680617285060000017164222861436243342_);" d="M99.8,83.8h-4.5c-0.8,0-1.5-0.7-1.5-1.5
		v-7.7c0-0.8,0.7-1.5,1.5-1.5h4.5c0.8,0,1.5,0.7,1.5,1.5v7.7C101.2,83.1,100.6,83.8,99.8,83.8z"/>
	<path class="st16" d="M89.7,88.6l-1.6-4.9c-0.2-0.6,0.1-1.2,0.7-1.4l3.8-1.2c0.6-0.2,1.2,0.1,1.4,0.7l1.6,4.9
		c0.2,0.6-0.1,1.2-0.7,1.4l-3.8,1.2C90.6,89.5,89.9,89.2,89.7,88.6z"/>
	<path class="st17" d="M64.3,79.5h-5.2c-0.6,0-1.1-0.5-1.1-1.1v-4c0-0.6,0.5-1.1,1.1-1.1h5.2c0.6,0,1.1,0.5,1.1,1.1v4
		C65.4,79,64.9,79.5,64.3,79.5z"/>
	<path class="st16" d="M79.6,89.1H68.7c-1.1,0-2-0.9-2-2v-5.8c0-1.1,0.9-2,2-2h10.9c1.1,0,2,0.9,2,2v5.8
		C81.6,88.2,80.7,89.1,79.6,89.1z"/>
	
		<linearGradient id="SVGID_00000137811698423830652450000016962300892572278462_" gradientUnits="userSpaceOnUse" x1="1750.0973" y1="-697.1314" x2="1757.5499" y2="-697.1314" gradientTransform="matrix(0.6318 0.7751 -0.7751 0.6318 -1584.9974 -835.8663)">
		<stop  offset="1.961183e-02" style="stop-color:#7CB100"/>
		<stop  offset="0.3473" style="stop-color:#A0C427"/>
		<stop  offset="0.9988" style="stop-color:#F0EE7D"/>
	</linearGradient>
	<path style="fill:url(#SVGID_00000137811698423830652450000016962300892572278462_);" d="M62.6,87.2l-3.3-4
		c-0.4-0.5-0.3-1.2,0.2-1.6l3.1-2.5c0.5-0.4,1.2-0.3,1.6,0.2l3.3,4c0.4,0.5,0.3,1.2-0.2,1.6l-3.1,2.5C63.7,87.7,63,87.6,62.6,87.2z"
		/>
	
		<linearGradient id="SVGID_00000122683132690147749190000011955322409586961545_" gradientUnits="userSpaceOnUse" x1="77.0247" y1="87.3389" x2="91.9301" y2="87.3389">
		<stop  offset="1.961183e-02" style="stop-color:#7CB100"/>
		<stop  offset="0.3473" style="stop-color:#A0C427"/>
		<stop  offset="0.9988" style="stop-color:#F0EE7D"/>
	</linearGradient>
	<path style="fill:url(#SVGID_00000122683132690147749190000011955322409586961545_);" d="M90.3,90.5H78.6c-0.9,0-1.6-0.7-1.6-1.6
		v-3c0-0.9,0.7-1.6,1.6-1.6h11.7c0.9,0,1.6,0.7,1.6,1.6v3C91.9,89.7,91.2,90.5,90.3,90.5z"/>
	
		<linearGradient id="SVGID_00000085213144444613625360000002213039768374330037_" gradientUnits="userSpaceOnUse" x1="1948.3749" y1="-787.9348" x2="1953.6621" y2="-787.9348" gradientTransform="matrix(0.5664 0.8241 -0.8241 0.5664 -1676.6501 -1085.1626)">
		<stop  offset="1.961183e-02" style="stop-color:#7CB100"/>
		<stop  offset="0.3473" style="stop-color:#A0C427"/>
		<stop  offset="0.9988" style="stop-color:#F0EE7D"/>
	</linearGradient>
	<path style="fill:url(#SVGID_00000085213144444613625360000002213039768374330037_);" d="M83.2,75.4l-7.9,5.9
		c-0.6,0.4-1.4,0.3-1.8-0.3l-1.4-1.8c-0.4-0.6-0.3-1.4,0.3-1.8l7.9-5.9c0.6-0.4,1.4-0.3,1.8,0.3l1.4,1.8
		C83.9,74.2,83.8,75,83.2,75.4z"/>
	<path class="st21" d="M54.7,79.3c0,0,0.3-10.8,24.4-11.5c24.1-0.7,24.4,11.5,24.4,11.5S92,67.8,54.7,79.3z"/>
</g>
<g>
	<path class="st0" d="M5.7,89.1v39.2c0,0,17.9,26.1,47.8,16c0,0,15.5-6.1,18.4-9.9c0,0,3.2-34.9,0-48.5
		C71.9,85.9,52.1,114.4,5.7,89.1z"/>
	<path class="st1" d="M5.7,89.1c0,0,4,14.8,33.8,16.4l1,41.1c0,0-19.1,2-34.8-18.3V89.1z"/>
	<path class="st2" d="M35.1,71.9c-6.5-0.5-13.1,1-18.8,4.2c-5.8,3.3-12.1,8.1-10.6,12.9c2.7,8.5,15.2,13.9,24,14.9
		c8.8,1.1,21.3,4.9,32-1.3c11.4-6.6,13.7-15.4,7.7-20.8C64.6,77.5,47.7,72.9,35.1,71.9z"/>
	<ellipse class="st3" cx="38.2" cy="88.3" rx="24.4" ry="11.5"/>
	<path class="st4" d="M13.8,115.2c0,1-0.5,1.9-1.2,1.9s-1.2-0.8-1.2-1.9c0-1,1.2-2.4,1.2-2.4S13.8,114.2,13.8,115.2z"/>
	<path class="st5" d="M12.9,108c-1.1,1.3-2.6,1.8-3.4,1.1c-0.8-0.7-0.7-2.3,0.4-3.6c1.1-1.3,4-1.9,4-1.9S13.9,106.7,12.9,108z"/>
	<path class="st5" d="M20.8,113.9c0.6,1.3,0.5,2.7-0.4,3.1s-2-0.3-2.7-1.6c-0.6-1.3,0-3.8,0-3.8S20.2,112.6,20.8,113.9z"/>
	<path class="st5" d="M68.5,121.8c0.6,1.3,0.5,2.7-0.4,3.1c-0.8,0.4-2-0.3-2.7-1.6c-0.6-1.3,0-3.8,0-3.8S67.9,120.5,68.5,121.8z"/>
	<path class="st5" d="M70.6,111.8c0.6,1.3,0.5,2.7-0.4,3.1c-0.8,0.4-2-0.3-2.7-1.6c-0.6-1.3,0-3.8,0-3.8S70,110.5,70.6,111.8z"/>
	<path class="st4" d="M24.4,109.5c-0.9-0.4-1.5-1.3-1.2-1.9s1.3-0.7,2.2-0.3c0.9,0.4,1.7,2.1,1.7,2.1S25.3,109.9,24.4,109.5z"/>
	<path class="st4" d="M31.7,114.8c-0.7-1.5-0.5-3.1,0.4-3.6c1-0.5,2.3,0.4,3.1,1.9s0,4.4,0,4.4S32.5,116.3,31.7,114.8z"/>
	<path class="st4" d="M25.9,119.6c-1.4,0-2.6-0.7-2.6-1.6s1.1-1.7,2.6-1.7s3.5,1.6,3.5,1.6S27.3,119.6,25.9,119.6z"/>
	<path class="st4" d="M18,122c-0.9-0.4-1.5-1.3-1.2-1.9s1.3-0.7,2.2-0.3s1.7,2.1,1.7,2.1S18.9,122.5,18,122z"/>
	<path class="st5" d="M11.9,123.4c-0.9-0.4-1.5-1.3-1.2-1.9c0.3-0.6,1.3-0.7,2.2-0.3s1.7,2.1,1.7,2.1S12.8,123.8,11.9,123.4z"/>
	<path class="st5" d="M24.9,124.3c-0.7-1.5-0.5-3.1,0.4-3.6c1-0.5,2.3,0.4,3.1,1.9s0,4.4,0,4.4S25.6,125.8,24.9,124.3z"/>
	<path class="st5" d="M19,129.1c-1.4,0-2.6-0.7-2.6-1.6c0-0.9,1.1-1.7,2.6-1.7s3.5,1.6,3.5,1.6S20.5,129.1,19,129.1z"/>
	<path class="st4" d="M26.7,133.5c-0.9-0.4-1.5-1.3-1.2-1.9c0.3-0.6,1.3-0.7,2.2-0.3s1.7,2.1,1.7,2.1S27.7,133.9,26.7,133.5z"/>
	<path class="st5" d="M33.6,135.8c-0.7-1.5-0.5-3.1,0.4-3.6s2.3,0.4,3.1,1.9c0.7,1.5,0,4.4,0,4.4S34.4,137.3,33.6,135.8z"/>
	<path class="st6" d="M27.7,140.2c-1.4,0-2.5-0.7-2.6-1.6c0-0.9,1.1-1.6,2.5-1.7c1.4,0,3.3,1.6,3.3,1.6S29.1,140.2,27.7,140.2z"/>
	<path class="st6" d="M38.6,123.6c-0.9-0.4-1.4-1.2-1.1-1.8c0.3-0.6,1.2-0.7,2.1-0.3c0.9,0.4,1.6,2.1,1.6,2.1S39.5,124,38.6,123.6z"
		/>
	<path class="st4" d="M34.7,127c0.4,0.9,0.3,1.9-0.3,2.2c-0.6,0.3-1.4-0.3-1.9-1.2c-0.4-0.9,0.1-2.7,0.1-2.7S34.3,126,34.7,127z"/>
	<path class="st6" d="M52.8,139.6c-0.9-0.4-1.5-1.3-1.2-1.9c0.3-0.6,1.3-0.7,2.2-0.3s1.7,2.1,1.7,2.1S53.7,140.1,52.8,139.6z"/>
	<path class="st5" d="M46.4,124.6c-0.6-1.3-0.5-2.8,0.4-3.2c0.9-0.4,2.1,0.3,2.7,1.7c0.6,1.3,0,4,0,4S47,126,46.4,124.6z"/>
	<path class="st5" d="M46.3,141c-0.6-1.3-0.5-2.8,0.4-3.2s2.1,0.3,2.7,1.7c0.6,1.3,0,4,0,4S46.9,142.3,46.3,141z"/>
	<path class="st5" d="M40.1,130.5c-1.4,0-2.6-0.7-2.6-1.6c0-0.9,1.1-1.7,2.6-1.7s3.5,1.6,3.5,1.6S41.6,130.4,40.1,130.5z"/>
	<path class="st6" d="M51.9,114.7c1-0.1,1.9,0.2,2,0.9s-0.6,1.3-1.6,1.4s-2.5-0.8-2.5-0.8S50.9,114.9,51.9,114.7z"/>
	<path class="st6" d="M45.5,116.6c1.3,0.7,1.9,2,1.4,2.8s-1.9,0.9-3.1,0.1c-1.3-0.7-2.1-3.2-2.1-3.2S44.2,115.9,45.5,116.6z"/>
	<path class="st6" d="M59.3,131.6c-0.6-1.3-0.5-2.8,0.4-3.2c0.9-0.4,2.1,0.3,2.7,1.7s0,4,0,4S59.9,132.9,59.3,131.6z"/>
	<path class="st5" d="M53.1,134.4c-1.4,0-2.6-0.7-2.6-1.6c0-0.9,1.1-1.7,2.6-1.7c1.4,0,3.5,1.6,3.5,1.6S54.6,134.4,53.1,134.4z"/>
	<path class="st6" d="M58.1,120.5c1.3,0.7,1.9,2,1.4,2.8c-0.5,0.8-1.9,0.9-3.1,0.1c-1.3-0.7-2.1-3.2-2.1-3.2S56.9,119.7,58.1,120.5z
		"/>
	<path class="st5" d="M47.9,109c1.2-0.8,2.6-0.9,3.1-0.1c0.5,0.8,0,2.1-1.2,2.9s-3.8,0.6-3.8,0.6S46.7,109.8,47.9,109z"/>
	<path class="st6" d="M69.3,131.2c1-0.2,1.9,0.3,2,0.9c0.1,0.7-0.6,1.3-1.7,1.5c-1,0.2-2.6-0.8-2.6-0.8S68.3,131.3,69.3,131.2z"/>
	<path class="st5" d="M59.2,111.5c0.5-1.4,1.7-2.3,2.6-1.9c0.9,0.3,1.2,1.7,0.7,3.1c-0.5,1.4-2.9,2.7-2.9,2.7S58.7,112.9,59.2,111.5
		z"/>
	<path class="st6" d="M66.6,99.2c1.2-0.8,2.6-0.9,3.1-0.1c0.5,0.8,0,2.1-1.2,2.9c-1.2,0.8-3.8,0.6-3.8,0.6S65.4,100.1,66.6,99.2z"/>
	<path class="st5" d="M17.6,132.7c0.7,0.7,1,1.7,0.5,2.2s-1.4,0.3-2.2-0.4c-0.7-0.7-0.9-2.6-0.9-2.6S16.8,132,17.6,132.7z"/>
	<path class="st4" d="M11.7,128.4c0.2,1.7-0.5,3.1-1.5,3.3s-2.1-1.1-2.3-2.7c-0.2-1.7,1.4-4.2,1.4-4.2S11.5,126.7,11.7,128.4z"/>
	<path class="st6" d="M44.7,131.7c1.2-0.8,2.5-0.8,3-0.1c0.5,0.7,0,2-1.2,2.8c-1.2,0.8-3.7,0.6-3.7,0.6S43.6,132.5,44.7,131.7z"/>
	<path class="st6" d="M38.4,140.8c1.2-0.8,2.5-0.8,3-0.1c0.5,0.7,0,2-1.2,2.8c-1.2,0.8-3.7,0.6-3.7,0.6S37.2,141.6,38.4,140.8z"/>
	
		<linearGradient id="SVGID_00000106862164157021385200000009975386459425881731_" gradientUnits="userSpaceOnUse" x1="24.4024" y1="85.867" x2="34.1955" y2="85.867">
		<stop  offset="1.961183e-02" style="stop-color:#7CB100"/>
		<stop  offset="0.3473" style="stop-color:#A0C427"/>
		<stop  offset="0.9988" style="stop-color:#F0EE7D"/>
	</linearGradient>
	<path style="fill:url(#SVGID_00000106862164157021385200000009975386459425881731_);" d="M32.6,90.8H26c-0.9,0-1.6-0.7-1.6-1.6
		v-6.5c0-0.9,0.7-1.6,1.6-1.6h6.5c0.9,0,1.6,0.7,1.6,1.6v6.5C34.2,90,33.5,90.8,32.6,90.8z"/>
	
		<linearGradient id="SVGID_00000005975183065157066000000012769904967522227865_" gradientUnits="userSpaceOnUse" x1="25.7572" y1="93.1637" x2="40.6625" y2="93.1637">
		<stop  offset="1.961183e-02" style="stop-color:#7CB100"/>
		<stop  offset="0.3473" style="stop-color:#A0C427"/>
		<stop  offset="0.9988" style="stop-color:#F0EE7D"/>
	</linearGradient>
	<path style="fill:url(#SVGID_00000005975183065157066000000012769904967522227865_);" d="M38.6,98.1H27.8c-1.1,0-2-0.9-2-2v-5.8
		c0-1.1,0.9-2,2-2h10.9c1.1,0,2,0.9,2,2V96C40.7,97.2,39.8,98.1,38.6,98.1z"/>
	
		<linearGradient id="SVGID_00000049924343834497818090000004033570673340385931_" gradientUnits="userSpaceOnUse" x1="38.656" y1="85.7928" x2="53.5614" y2="85.7928">
		<stop  offset="1.961183e-02" style="stop-color:#7CB100"/>
		<stop  offset="0.3473" style="stop-color:#A0C427"/>
		<stop  offset="0.9988" style="stop-color:#F0EE7D"/>
	</linearGradient>
	<path style="fill:url(#SVGID_00000049924343834497818090000004033570673340385931_);" d="M52,88.9H40.3c-0.9,0-1.6-0.7-1.6-1.6v-3
		c0-0.9,0.7-1.6,1.6-1.6H52c0.9,0,1.6,0.7,1.6,1.6v3C53.6,88.2,52.8,88.9,52,88.9z"/>
	
		<linearGradient id="SVGID_00000003099512638565461470000011249010985221326475_" gradientUnits="userSpaceOnUse" x1="41.185" y1="90.5763" x2="56.0904" y2="90.5763">
		<stop  offset="1.961183e-02" style="stop-color:#7CB100"/>
		<stop  offset="0.3473" style="stop-color:#A0C427"/>
		<stop  offset="0.9988" style="stop-color:#F0EE7D"/>
	</linearGradient>
	<path style="fill:url(#SVGID_00000003099512638565461470000011249010985221326475_);" d="M54.5,93.7H42.8c-0.9,0-1.6-0.7-1.6-1.6
		v-3c0-0.9,0.7-1.6,1.6-1.6h11.7c0.9,0,1.6,0.7,1.6,1.6v3C56.1,93,55.4,93.7,54.5,93.7z"/>
	
		<linearGradient id="SVGID_00000075123106983865057210000009516064872259181758_" gradientUnits="userSpaceOnUse" x1="2267.6426" y1="-1207.8383" x2="2275.0952" y2="-1207.8383" gradientTransform="matrix(0.3019 0.9533 -0.9533 0.3019 -1786.1876 -1706.6232)">
		<stop  offset="1.961183e-02" style="stop-color:#7CB100"/>
		<stop  offset="0.3473" style="stop-color:#A0C427"/>
		<stop  offset="0.9988" style="stop-color:#F0EE7D"/>
	</linearGradient>
	<path style="fill:url(#SVGID_00000075123106983865057210000009516064872259181758_);" d="M48.8,97.6l-1.6-4.9
		c-0.2-0.6,0.1-1.2,0.7-1.4l3.8-1.2c0.6-0.2,1.2,0.1,1.4,0.7l1.6,4.9c0.2,0.6-0.1,1.2-0.7,1.4l-3.8,1.2C49.6,98.5,49,98.2,48.8,97.6
		z"/>
	
		<linearGradient id="SVGID_00000155868280145611157550000000266379325228684691_" gradientUnits="userSpaceOnUse" x1="16.9752" y1="85.3562" x2="24.4279" y2="85.3562">
		<stop  offset="1.961183e-02" style="stop-color:#7CB100"/>
		<stop  offset="0.3473" style="stop-color:#A0C427"/>
		<stop  offset="0.9988" style="stop-color:#F0EE7D"/>
	</linearGradient>
	
		<path style="fill:url(#SVGID_00000155868280145611157550000000266379325228684691_);stroke:#002300;stroke-width:2;stroke-miterlimit:10;" d="
		M23.3,88.5h-5.2c-0.6,0-1.1-0.5-1.1-1.1v-4c0-0.6,0.5-1.1,1.1-1.1h5.2c0.6,0,1.1,0.5,1.1,1.1v4C24.4,88,23.9,88.5,23.3,88.5z"/>
	
		<linearGradient id="SVGID_00000036963055537883992390000004737610290648199340_" gradientUnits="userSpaceOnUse" x1="29.4835" y1="80.9705" x2="36.9362" y2="80.9705">
		<stop  offset="1.961183e-02" style="stop-color:#7CB100"/>
		<stop  offset="0.3473" style="stop-color:#A0C427"/>
		<stop  offset="0.9988" style="stop-color:#F0EE7D"/>
	</linearGradient>
	<path style="fill:url(#SVGID_00000036963055537883992390000004737610290648199340_);" d="M35.8,84.1h-5.2c-0.6,0-1.1-0.5-1.1-1.1
		v-4c0-0.6,0.5-1.1,1.1-1.1h5.2c0.6,0,1.1,0.5,1.1,1.1v4C36.9,83.6,36.4,84.1,35.8,84.1z"/>
	
		<linearGradient id="SVGID_00000109728504549546919850000015347221937476422040_" gradientUnits="userSpaceOnUse" x1="39.7937" y1="82.1367" x2="47.2464" y2="82.1367">
		<stop  offset="1.961183e-02" style="stop-color:#7CB100"/>
		<stop  offset="0.3473" style="stop-color:#A0C427"/>
		<stop  offset="0.9988" style="stop-color:#F0EE7D"/>
	</linearGradient>
	<path style="fill:url(#SVGID_00000109728504549546919850000015347221937476422040_);" d="M45.8,87.5h-4.5c-0.8,0-1.5-0.7-1.5-1.5
		v-7.7c0-0.8,0.7-1.5,1.5-1.5h4.5c0.8,0,1.5,0.7,1.5,1.5V86C47.2,86.8,46.6,87.5,45.8,87.5z"/>
	
		<linearGradient id="SVGID_00000075151510233762645330000000863583959065950126_" gradientUnits="userSpaceOnUse" x1="52.8258" y1="87.4504" x2="60.2785" y2="87.4504">
		<stop  offset="1.961183e-02" style="stop-color:#7CB100"/>
		<stop  offset="0.3473" style="stop-color:#A0C427"/>
		<stop  offset="0.9988" style="stop-color:#F0EE7D"/>
	</linearGradient>
	<path style="fill:url(#SVGID_00000075151510233762645330000000863583959065950126_);" d="M58.8,92.8h-4.5c-0.8,0-1.5-0.7-1.5-1.5
		v-7.7c0-0.8,0.7-1.5,1.5-1.5h4.5c0.8,0,1.5,0.7,1.5,1.5v7.7C60.3,92.1,59.6,92.8,58.8,92.8z"/>
	<path class="st16" d="M48.8,97.6l-1.6-4.9c-0.2-0.6,0.1-1.2,0.7-1.4l3.8-1.2c0.6-0.2,1.2,0.1,1.4,0.7l1.6,4.9
		c0.2,0.6-0.1,1.2-0.7,1.4l-3.8,1.2C49.6,98.5,49,98.2,48.8,97.6z"/>
	<path class="st17" d="M23.3,88.5h-5.2c-0.6,0-1.1-0.5-1.1-1.1v-4c0-0.6,0.5-1.1,1.1-1.1h5.2c0.6,0,1.1,0.5,1.1,1.1v4
		C24.4,88,23.9,88.5,23.3,88.5z"/>
	<path class="st16" d="M38.6,98.1H27.8c-1.1,0-2-0.9-2-2v-5.8c0-1.1,0.9-2,2-2h10.9c1.1,0,2,0.9,2,2V96
		C40.7,97.2,39.8,98.1,38.6,98.1z"/>
	
		<linearGradient id="SVGID_00000053544616932083902380000001212471427183052201_" gradientUnits="userSpaceOnUse" x1="1731.1644" y1="-659.7197" x2="1738.6171" y2="-659.7197" gradientTransform="matrix(0.6318 0.7751 -0.7751 0.6318 -1584.9974 -835.8663)">
		<stop  offset="1.961183e-02" style="stop-color:#7CB100"/>
		<stop  offset="0.3473" style="stop-color:#A0C427"/>
		<stop  offset="0.9988" style="stop-color:#F0EE7D"/>
	</linearGradient>
	<path style="fill:url(#SVGID_00000053544616932083902380000001212471427183052201_);" d="M21.7,96.1l-3.3-4
		c-0.4-0.5-0.3-1.2,0.2-1.6l3.1-2.5c0.5-0.4,1.2-0.3,1.6,0.2l3.3,4c0.4,0.5,0.3,1.2-0.2,1.6l-3.1,2.5C22.8,96.7,22.1,96.6,21.7,96.1
		z"/>
	
		<linearGradient id="SVGID_00000076589749571608802290000016086270661295209613_" gradientUnits="userSpaceOnUse" x1="36.0637" y1="96.2991" x2="50.969" y2="96.2991">
		<stop  offset="1.961183e-02" style="stop-color:#7CB100"/>
		<stop  offset="0.3473" style="stop-color:#A0C427"/>
		<stop  offset="0.9988" style="stop-color:#F0EE7D"/>
	</linearGradient>
	<path style="fill:url(#SVGID_00000076589749571608802290000016086270661295209613_);" d="M49.4,99.4H37.7c-0.9,0-1.6-0.7-1.6-1.6
		v-3c0-0.9,0.7-1.6,1.6-1.6h11.7c0.9,0,1.6,0.7,1.6,1.6v3C51,98.7,50.2,99.4,49.4,99.4z"/>
	
		<linearGradient id="SVGID_00000108278812662130782980000007866182833889385919_" gradientUnits="userSpaceOnUse" x1="1932.5579" y1="-749.1029" x2="1937.8451" y2="-749.1029" gradientTransform="matrix(0.5664 0.8241 -0.8241 0.5664 -1676.6501 -1085.1626)">
		<stop  offset="1.961183e-02" style="stop-color:#7CB100"/>
		<stop  offset="0.3473" style="stop-color:#A0C427"/>
		<stop  offset="0.9988" style="stop-color:#F0EE7D"/>
	</linearGradient>
	<path style="fill:url(#SVGID_00000108278812662130782980000007866182833889385919_);" d="M42.3,84.4l-7.9,5.9
		c-0.6,0.4-1.4,0.3-1.8-0.3l-1.4-1.8c-0.4-0.6-0.3-1.4,0.3-1.8l7.9-5.9c0.6-0.4,1.4-0.3,1.8,0.3l1.4,1.8
		C42.9,83.1,42.8,83.9,42.3,84.4z"/>
	<path class="st21" d="M13.8,88.3c0,0,0.3-10.8,24.4-11.5c24.1-0.7,24.4,11.5,24.4,11.5S51.1,76.7,13.8,88.3z"/>
</g>
</svg>
