<?xml version="1.0" encoding="utf-8"?>
<!-- Generator: Adobe Illustrator 26.0.1, SVG Export Plug-In . SVG Version: 6.00 Build 0)  -->
<svg version="1.1" id="Layer_1" xmlns="http://www.w3.org/2000/svg" xmlns:xlink="http://www.w3.org/1999/xlink" x="0px" y="0px"
	 viewBox="0 0 120 185" style="enable-background:new 0 0 120 185;" xml:space="preserve">
<style type="text/css">
	.st0{fill:#FFFFFF;}
	.st1{fill:#FFFFFF;stroke:#EC9273;stroke-width:2;stroke-miterlimit:10;}
</style>
<path class="st0" d="M108.8,185H11.2C5,185,0,180,0,173.8V11.2C0,5,5,0,11.2,0h97.6C115,0,120,5,120,11.2v162.6
	C120,180,115,185,108.8,185z"/>
<g>
	<g>
		<circle class="st1" cx="21.2" cy="7.1" r="19.9"/>
		<circle class="st1" cx="21.2" cy="7.6" r="14.9"/>
		<circle class="st1" cx="21.2" cy="7.6" r="9.2"/>
	</g>
	<g>
		<circle class="st1" cx="61.4" cy="8.1" r="19.9"/>
		<circle class="st1" cx="61.4" cy="8.6" r="14.9"/>
		<circle class="st1" cx="61.4" cy="8.6" r="9.2"/>
	</g>
	<g>
		<circle class="st1" cx="100.7" cy="8.6" r="19.9"/>
		<circle class="st1" cx="100.7" cy="9.1" r="14.9"/>
		<circle class="st1" cx="100.7" cy="9.1" r="9.2"/>
	</g>
	<g>
		<circle class="st1" cx="120.6" cy="18.8" r="19.9"/>
		<circle class="st1" cx="120.6" cy="19.3" r="14.9"/>
		<circle class="st1" cx="120.6" cy="19.3" r="9.2"/>
	</g>
	<g>
		<circle class="st1" cx="81.2" cy="18.8" r="19.9"/>
		<circle class="st1" cx="81.2" cy="19.3" r="14.9"/>
		<circle class="st1" cx="81.2" cy="19.3" r="9.2"/>
	</g>
	<g>
		<circle class="st1" cx="41.5" cy="18.8" r="19.9"/>
		<circle class="st1" cx="41.5" cy="19.3" r="14.9"/>
		<circle class="st1" cx="41.5" cy="19.3" r="9.2"/>
	</g>
	<g>
		<circle class="st1" cx="1.4" cy="18.8" r="19.9"/>
		<circle class="st1" cx="1.4" cy="19.3" r="14.9"/>
		<circle class="st1" cx="1.4" cy="19.3" r="9.2"/>
	</g>
	<g>
		<circle class="st1" cx="21.2" cy="27.5" r="19.9"/>
		<circle class="st1" cx="21.2" cy="28" r="14.9"/>
		<circle class="st1" cx="21.2" cy="28" r="9.2"/>
	</g>
	<g>
		<circle class="st1" cx="61.4" cy="28" r="19.9"/>
		<circle class="st1" cx="61.4" cy="28.5" r="14.9"/>
		<circle class="st1" cx="61.4" cy="28.5" r="9.2"/>
	</g>
	<g>
		<circle class="st1" cx="100.7" cy="29" r="19.9"/>
		<circle class="st1" cx="100.7" cy="29.5" r="14.9"/>
		<circle class="st1" cx="100.7" cy="29.5" r="9.2"/>
	</g>
	<g>
		<circle class="st1" cx="120.6" cy="38.6" r="19.9"/>
		<circle class="st1" cx="120.6" cy="39.1" r="14.9"/>
		<circle class="st1" cx="120.6" cy="39.1" r="9.2"/>
	</g>
	<g>
		<circle class="st1" cx="81.2" cy="37.2" r="19.9"/>
		<circle class="st1" cx="81.2" cy="37.7" r="14.9"/>
		<circle class="st1" cx="81.2" cy="37.7" r="9.2"/>
	</g>
	<g>
		<circle class="st1" cx="41.1" cy="37.2" r="19.9"/>
		<circle class="st1" cx="41.1" cy="37.7" r="14.9"/>
		<circle class="st1" cx="41.1" cy="37.7" r="9.2"/>
	</g>
	<g>
		<circle class="st1" cx="1.4" cy="37.7" r="19.9"/>
		<circle class="st1" cx="1.4" cy="38.2" r="14.9"/>
		<circle class="st1" cx="1.4" cy="38.2" r="9.2"/>
	</g>
	<g>
		<circle class="st1" cx="100.7" cy="47.3" r="19.9"/>
		<circle class="st1" cx="100.7" cy="47.8" r="14.9"/>
		<circle class="st1" cx="100.7" cy="47.8" r="9.2"/>
	</g>
	<g>
		<circle class="st1" cx="61" cy="47.3" r="19.9"/>
		<circle class="st1" cx="61" cy="47.8" r="14.9"/>
		<circle class="st1" cx="61" cy="47.8" r="9.2"/>
	</g>
	<g>
		<circle class="st1" cx="20.5" cy="47.3" r="19.9"/>
		<circle class="st1" cx="20.5" cy="47.8" r="14.9"/>
		<circle class="st1" cx="20.5" cy="47.8" r="9.2"/>
	</g>
	<g>
		<circle class="st1" cx="80.9" cy="59.5" r="19.9"/>
		<circle class="st1" cx="80.9" cy="60" r="14.9"/>
		<circle class="st1" cx="80.9" cy="60" r="9.2"/>
	</g>
	<g>
		<circle class="st1" cx="40.3" cy="59.5" r="19.9"/>
		<circle class="st1" cx="40.3" cy="60" r="14.9"/>
		<circle class="st1" cx="40.3" cy="60" r="9.2"/>
	</g>
	<g>
		<circle class="st1" cx="-1.8" cy="59.5" r="19.9"/>
		<circle class="st1" cx="-1.8" cy="60" r="14.9"/>
		<circle class="st1" cx="-1.8" cy="60" r="9.2"/>
	</g>
	<g>
		<circle class="st1" cx="121.4" cy="59.5" r="19.9"/>
		<circle class="st1" cx="121.4" cy="60" r="14.9"/>
		<circle class="st1" cx="121.4" cy="60" r="9.2"/>
	</g>
	<g>
		<circle class="st1" cx="20.5" cy="69.7" r="19.9"/>
		<circle class="st1" cx="20.5" cy="70.2" r="14.9"/>
		<circle class="st1" cx="20.5" cy="70.2" r="9.2"/>
	</g>
	<g>
		<circle class="st1" cx="60.6" cy="69.7" r="19.9"/>
		<circle class="st1" cx="60.6" cy="70.2" r="14.9"/>
		<circle class="st1" cx="60.6" cy="70.2" r="9.2"/>
	</g>
	<g>
		<circle class="st1" cx="100.7" cy="69.7" r="19.9"/>
		<circle class="st1" cx="100.7" cy="70.2" r="14.9"/>
		<circle class="st1" cx="100.7" cy="70.2" r="9.2"/>
	</g>
	<g>
		<circle class="st1" cx="20.9" cy="64.8" r="19.9"/>
		<circle class="st1" cx="20.9" cy="65.3" r="14.9"/>
		<circle class="st1" cx="20.9" cy="65.3" r="9.2"/>
	</g>
	<g>
		<circle class="st1" cx="61" cy="65.9" r="19.9"/>
		<circle class="st1" cx="61" cy="66.4" r="14.9"/>
		<circle class="st1" cx="61" cy="66.4" r="9.2"/>
	</g>
	<g>
		<circle class="st1" cx="100.3" cy="66.4" r="19.9"/>
		<circle class="st1" cx="100.3" cy="66.9" r="14.9"/>
		<circle class="st1" cx="100.3" cy="66.9" r="9.2"/>
	</g>
	<g>
		<circle class="st1" cx="120.2" cy="76.5" r="19.9"/>
		<circle class="st1" cx="120.2" cy="77" r="14.9"/>
		<circle class="st1" cx="120.2" cy="77" r="9.2"/>
	</g>
	<g>
		<circle class="st1" cx="80.9" cy="76.5" r="19.9"/>
		<circle class="st1" cx="80.9" cy="77" r="14.9"/>
		<circle class="st1" cx="80.9" cy="77" r="9.2"/>
	</g>
	<g>
		<circle class="st1" cx="41.1" cy="76.5" r="19.9"/>
		<circle class="st1" cx="41.1" cy="77" r="14.9"/>
		<circle class="st1" cx="41.1" cy="77" r="9.2"/>
	</g>
	<g>
		<circle class="st1" cx="1" cy="76.5" r="19.9"/>
		<circle class="st1" cx="1" cy="77" r="14.9"/>
		<circle class="st1" cx="1" cy="77" r="9.2"/>
	</g>
	<g>
		<circle class="st1" cx="20.9" cy="85.2" r="19.9"/>
		<circle class="st1" cx="20.9" cy="85.7" r="14.9"/>
		<circle class="st1" cx="20.9" cy="85.7" r="9.2"/>
	</g>
	<g>
		<circle class="st1" cx="61" cy="85.7" r="19.9"/>
		<circle class="st1" cx="61" cy="86.2" r="14.9"/>
		<circle class="st1" cx="61" cy="86.2" r="9.2"/>
	</g>
	<g>
		<circle class="st1" cx="100.3" cy="86.2" r="19.9"/>
		<circle class="st1" cx="100.3" cy="86.7" r="14.9"/>
		<circle class="st1" cx="100.3" cy="86.7" r="9.2"/>
	</g>
	<g>
		<circle class="st1" cx="120.2" cy="96.4" r="19.9"/>
		<circle class="st1" cx="120.2" cy="96.9" r="14.9"/>
		<circle class="st1" cx="120.2" cy="96.9" r="9.2"/>
	</g>
	<g>
		<circle class="st1" cx="80.9" cy="94.9" r="19.9"/>
		<circle class="st1" cx="80.9" cy="95.4" r="14.9"/>
		<circle class="st1" cx="80.9" cy="95.4" r="9.2"/>
	</g>
	<g>
		<circle class="st1" cx="40.7" cy="94.9" r="19.9"/>
		<circle class="st1" cx="40.7" cy="95.4" r="14.9"/>
		<circle class="st1" cx="40.7" cy="95.4" r="9.2"/>
	</g>
	<g>
		<circle class="st1" cx="1" cy="95.4" r="19.9"/>
		<circle class="st1" cx="1" cy="95.9" r="14.9"/>
		<circle class="st1" cx="1" cy="95.9" r="9.2"/>
	</g>
	<g>
		<circle class="st1" cx="100.3" cy="105.1" r="19.9"/>
		<circle class="st1" cx="100.3" cy="105.6" r="14.9"/>
		<circle class="st1" cx="100.3" cy="105.6" r="9.2"/>
	</g>
	<g>
		<circle class="st1" cx="60.6" cy="105.1" r="19.9"/>
		<circle class="st1" cx="60.6" cy="105.6" r="14.9"/>
		<circle class="st1" cx="60.6" cy="105.6" r="9.2"/>
	</g>
	<g>
		<circle class="st1" cx="20.1" cy="105.1" r="19.9"/>
		<circle class="st1" cx="20.1" cy="105.6" r="14.9"/>
		<circle class="st1" cx="20.1" cy="105.6" r="9.2"/>
	</g>
	<g>
		<circle class="st1" cx="80.5" cy="117.3" r="19.9"/>
		<circle class="st1" cx="80.5" cy="117.8" r="14.9"/>
		<circle class="st1" cx="80.5" cy="117.8" r="9.2"/>
	</g>
	<g>
		<circle class="st1" cx="40" cy="117.3" r="19.9"/>
		<circle class="st1" cx="40" cy="117.8" r="14.9"/>
		<circle class="st1" cx="40" cy="117.8" r="9.2"/>
	</g>
	<g>
		<circle class="st1" cx="-2.2" cy="117.3" r="19.9"/>
		<circle class="st1" cx="-2.2" cy="117.8" r="14.9"/>
		<circle class="st1" cx="-2.2" cy="117.8" r="9.2"/>
	</g>
	<g>
		<circle class="st1" cx="121" cy="117.3" r="19.9"/>
		<circle class="st1" cx="121" cy="117.8" r="14.9"/>
		<circle class="st1" cx="121" cy="117.8" r="9.2"/>
	</g>
	<g>
		<circle class="st1" cx="20.1" cy="127.4" r="19.9"/>
		<circle class="st1" cx="20.1" cy="127.9" r="14.9"/>
		<circle class="st1" cx="20.1" cy="127.9" r="9.2"/>
	</g>
	<g>
		<circle class="st1" cx="60.2" cy="127.4" r="19.9"/>
		<circle class="st1" cx="60.2" cy="127.9" r="14.9"/>
		<circle class="st1" cx="60.2" cy="127.9" r="9.2"/>
	</g>
	<g>
		<circle class="st1" cx="100.3" cy="127.4" r="19.9"/>
		<circle class="st1" cx="100.3" cy="127.9" r="14.9"/>
		<circle class="st1" cx="100.3" cy="127.9" r="9.2"/>
	</g>
	<g>
		<circle class="st1" cx="20.4" cy="124.6" r="19.9"/>
		<circle class="st1" cx="20.4" cy="125.1" r="14.9"/>
		<circle class="st1" cx="20.4" cy="125.1" r="9.2"/>
	</g>
	<g>
		<circle class="st1" cx="60.6" cy="125.7" r="19.9"/>
		<circle class="st1" cx="60.6" cy="126.2" r="14.9"/>
		<circle class="st1" cx="60.6" cy="126.2" r="9.2"/>
	</g>
	<g>
		<circle class="st1" cx="99.9" cy="126.2" r="19.9"/>
		<circle class="st1" cx="99.9" cy="126.7" r="14.9"/>
		<circle class="st1" cx="99.9" cy="126.7" r="9.2"/>
	</g>
	<g>
		<circle class="st1" cx="119.8" cy="136.3" r="19.9"/>
		<circle class="st1" cx="119.8" cy="136.8" r="14.9"/>
		<circle class="st1" cx="119.8" cy="136.8" r="9.2"/>
	</g>
	<g>
		<circle class="st1" cx="80.4" cy="136.3" r="19.9"/>
		<circle class="st1" cx="80.4" cy="136.8" r="14.9"/>
		<circle class="st1" cx="80.4" cy="136.8" r="9.2"/>
	</g>
	<g>
		<circle class="st1" cx="40.7" cy="136.3" r="19.9"/>
		<circle class="st1" cx="40.7" cy="136.8" r="14.9"/>
		<circle class="st1" cx="40.7" cy="136.8" r="9.2"/>
	</g>
	<g>
		<circle class="st1" cx="0.6" cy="136.3" r="19.9"/>
		<circle class="st1" cx="0.6" cy="136.8" r="14.9"/>
		<circle class="st1" cx="0.6" cy="136.8" r="9.2"/>
	</g>
	<g>
		<circle class="st1" cx="20.4" cy="145" r="19.9"/>
		<circle class="st1" cx="20.4" cy="145.5" r="14.9"/>
		<circle class="st1" cx="20.4" cy="145.5" r="9.2"/>
	</g>
	<g>
		<circle class="st1" cx="60.6" cy="145.5" r="19.9"/>
		<circle class="st1" cx="60.6" cy="146" r="14.9"/>
		<circle class="st1" cx="60.6" cy="146" r="9.2"/>
	</g>
	<g>
		<circle class="st1" cx="99.9" cy="146.5" r="19.9"/>
		<circle class="st1" cx="99.9" cy="147.1" r="14.9"/>
		<circle class="st1" cx="99.9" cy="147.1" r="9.2"/>
	</g>
	<g>
		<circle class="st1" cx="119.8" cy="156.2" r="19.9"/>
		<circle class="st1" cx="119.8" cy="156.7" r="14.9"/>
		<circle class="st1" cx="119.8" cy="156.7" r="9.2"/>
	</g>
	<g>
		<circle class="st1" cx="80.4" cy="154.7" r="19.9"/>
		<circle class="st1" cx="80.4" cy="155.2" r="14.9"/>
		<circle class="st1" cx="80.4" cy="155.2" r="9.2"/>
	</g>
	<g>
		<circle class="st1" cx="40.3" cy="154.7" r="19.9"/>
		<circle class="st1" cx="40.3" cy="155.2" r="14.9"/>
		<circle class="st1" cx="40.3" cy="155.2" r="9.2"/>
	</g>
	<g>
		<circle class="st1" cx="0.6" cy="155.2" r="19.9"/>
		<circle class="st1" cx="0.6" cy="155.7" r="14.9"/>
		<circle class="st1" cx="0.6" cy="155.7" r="9.2"/>
	</g>
	<g>
		<circle class="st1" cx="99.9" cy="164.9" r="19.9"/>
		<circle class="st1" cx="99.9" cy="165.4" r="14.9"/>
		<circle class="st1" cx="99.9" cy="165.4" r="9.2"/>
	</g>
	<g>
		<circle class="st1" cx="60.2" cy="164.9" r="19.9"/>
		<circle class="st1" cx="60.2" cy="165.4" r="14.9"/>
		<circle class="st1" cx="60.2" cy="165.4" r="9.2"/>
	</g>
	<g>
		<circle class="st1" cx="19.7" cy="164.9" r="19.9"/>
		<circle class="st1" cx="19.7" cy="165.4" r="14.9"/>
		<circle class="st1" cx="19.7" cy="165.4" r="9.2"/>
	</g>
	<g>
		<circle class="st1" cx="80" cy="177.1" r="19.9"/>
		<circle class="st1" cx="80" cy="177.6" r="14.9"/>
		<circle class="st1" cx="80" cy="177.6" r="9.2"/>
	</g>
	<g>
		<circle class="st1" cx="39.5" cy="177.1" r="19.9"/>
		<circle class="st1" cx="39.5" cy="177.6" r="14.9"/>
		<circle class="st1" cx="39.5" cy="177.6" r="9.2"/>
	</g>
	<g>
		<circle class="st1" cx="-2.6" cy="177.1" r="19.9"/>
		<circle class="st1" cx="-2.6" cy="177.6" r="14.9"/>
		<circle class="st1" cx="-2.6" cy="177.6" r="9.2"/>
	</g>
	<g>
		<circle class="st1" cx="120.6" cy="177.1" r="19.9"/>
		<circle class="st1" cx="120.6" cy="177.6" r="14.9"/>
		<circle class="st1" cx="120.6" cy="177.6" r="9.2"/>
	</g>
	<g>
		<circle class="st1" cx="19.7" cy="187.2" r="19.9"/>
		<circle class="st1" cx="19.7" cy="187.7" r="14.9"/>
		<circle class="st1" cx="19.7" cy="187.7" r="9.2"/>
	</g>
	<g>
		<circle class="st1" cx="59.8" cy="187.2" r="19.9"/>
		<circle class="st1" cx="59.8" cy="187.7" r="14.9"/>
		<circle class="st1" cx="59.8" cy="187.7" r="9.2"/>
	</g>
	<g>
		<circle class="st1" cx="100.7" cy="188" r="19.9"/>
		<circle class="st1" cx="100.7" cy="188.5" r="14.9"/>
		<circle class="st1" cx="100.7" cy="188.5" r="9.2"/>
	</g>
</g>
</svg>
