<?xml version="1.0" encoding="utf-8"?>
<!-- Generator: Adobe Illustrator 26.0.1, SVG Export Plug-In . SVG Version: 6.00 Build 0)  -->
<svg version="1.1" id="Layer_1" xmlns="http://www.w3.org/2000/svg" xmlns:xlink="http://www.w3.org/1999/xlink" x="0px" y="0px"
	 viewBox="0 0 120 180" style="enable-background:new 0 0 120 180;" xml:space="preserve">
<style type="text/css">
	.st0{fill:#FFFFFF;}
	.st1{fill:#F2F2F2;}
	.st2{fill:url(#SVGID_1_);}
	.st3{fill:url(#SVGID_00000080929670747542080980000012424794963890641805_);}
	.st4{fill:url(#SVGID_00000051384632718936403640000015641169569651690429_);}
	.st5{fill:url(#SVGID_00000165202774862502843850000014435871910707840694_);}
	.st6{fill:url(#SVGID_00000106107712728905717820000011373574838342574743_);}
	.st7{fill:none;stroke:#FF767B;stroke-miterlimit:10;}
	.st8{fill:#002D00;}
	.st9{fill:url(#SVGID_00000029744936591279713620000007087233384604398481_);}
	.st10{fill:#FF6F00;}
	.st11{fill:url(#SVGID_00000034056582248223572560000012393964894107186874_);}
	.st12{fill:none;stroke:#011C00;stroke-miterlimit:10;}
	.st13{fill:url(#SVGID_00000020394753463294502510000003148351952500636304_);}
	.st14{fill:#FF767B;}
	.st15{fill:none;stroke:#FFFFFF;stroke-miterlimit:10;}
	.st16{fill:url(#SVGID_00000106115788310434315010000014546014298587506348_);}
	.st17{opacity:0.13;fill:#5BAA00;}
</style>
<g>
	<path class="st0" d="M14.1,90.1c-0.9,1.4-2.1,42.7,5.7,47.9c8.6,5.7,36.4,5.8,63.6,1.5c5.6-0.9,10-5.2,11-10.8
		c1.9-11.3,4.1-31.6-0.7-51C86.6,48.8,25,62.8,23.1,71.4C21.7,78,16.9,85.7,14.1,90.1z"/>
	<path class="st1" d="M88,138c0,0,16.9-3.9,18.9-11.7s-5.2-62.8-5.2-62.8l-46.4,1.7c0,0,25.6,0.1,31,15.3C91.7,95.6,88,138,88,138z"
		/>
	<linearGradient id="SVGID_1_" gradientUnits="userSpaceOnUse" x1="7.2617" y1="66.1681" x2="110.6862" y2="66.1681">
		<stop  offset="1.961183e-02" style="stop-color:#7CB100"/>
		<stop  offset="0.9988" style="stop-color:#F0EE7D"/>
	</linearGradient>
	<path class="st2" d="M22.3,55.3c0,0-20.9,29.1-13.4,34.4c0,0,0.7,13.1,13.4-9.7c0,0,11.2-14.9,29.1-13.1s29.1,10.5,29.1,10.5
		s8.7,4.5,9.4,4.5c0.7,0,3.3,3.7,4.8-4.1c0,0,4.1,0,5.6,1.5s4.1-1.5,4.1-1.5s7.5,1.1,6-11.2c0,0-2.6-5.2-4.9-5.6
		c0,0-2.6-8.2-4.5-9.7s-14.6-6.4-14.6-6.4S58.8,30.4,38,46.7C38,46.7,30.5,48.6,22.3,55.3z"/>
	
		<linearGradient id="SVGID_00000000194189603946058940000009577124971115795642_" gradientUnits="userSpaceOnUse" x1="38.5132" y1="73.9202" x2="76.628" y2="83.4489">
		<stop  offset="1.961183e-02" style="stop-color:#7CB100"/>
		<stop  offset="0.3473" style="stop-color:#A0C427"/>
		<stop  offset="0.9988" style="stop-color:#F0EE7D"/>
	</linearGradient>
	<path style="fill:url(#SVGID_00000000194189603946058940000009577124971115795642_);" d="M96.2,83.3c0,0,3.3-2.2,6.9,0.5
		c3.6,2.6,4.1-1.5,4.1-1.5S96,59.8,75.8,55.3S35.3,53.5,30,59.5c0,0-7.7,2-13.1,13.3s-7.6,25.6-5.2,21.4c2.4-4.1,8.4-30.1,32.7-29.8
		c24.3,0.3,33.5,2.1,42.2,11.8"/>
	
		<linearGradient id="SVGID_00000089539869584680220700000001256186172516239236_" gradientUnits="userSpaceOnUse" x1="34.2163" y1="76.5945" x2="67.0917" y2="84.8133">
		<stop  offset="1.961183e-02" style="stop-color:#7CB100"/>
		<stop  offset="0.3473" style="stop-color:#A0C427"/>
		<stop  offset="0.9988" style="stop-color:#F0EE7D"/>
	</linearGradient>
	<path style="fill:url(#SVGID_00000089539869584680220700000001256186172516239236_);" d="M19.1,74c0,0-13.1,18-7.1,21
		c0,0,17.6-26,34-27.2c16.4-1.2,31.4,1.9,41.8,13.6c0,0,6.8,8.2,5.6-0.1S70.6,60.5,60.2,59.4C49.7,58.3,26.9,66.1,19.1,74z"/>
	
		<linearGradient id="SVGID_00000023978569514593393830000016468017674517228218_" gradientUnits="userSpaceOnUse" x1="38.5321" y1="62.2694" x2="79.3328" y2="72.4696">
		<stop  offset="1.961183e-02" style="stop-color:#7CB100"/>
		<stop  offset="0.3473" style="stop-color:#A0C427"/>
		<stop  offset="0.9988" style="stop-color:#F0EE7D"/>
	</linearGradient>
	<path style="fill:url(#SVGID_00000023978569514593393830000016468017674517228218_);" d="M19.8,59.3c0,0-15,18-8.1,21
		c0,0,20.1-26,38.9-27.2C69.4,51.9,92,63.7,104,75.4c0,0,7.8,8.2,6.5-0.1S78.8,45.9,66.9,44.8C54.9,43.7,28.8,51.5,19.8,59.3z"/>
	
		<linearGradient id="SVGID_00000168797225162558962150000010832907356569117878_" gradientUnits="userSpaceOnUse" x1="43.1696" y1="57.6662" x2="84.0134" y2="67.8772">
		<stop  offset="1.961183e-02" style="stop-color:#7CB100"/>
		<stop  offset="0.3473" style="stop-color:#A0C427"/>
		<stop  offset="0.9988" style="stop-color:#F0EE7D"/>
	</linearGradient>
	<path style="fill:url(#SVGID_00000168797225162558962150000010832907356569117878_);" d="M24,54.1c0,0-15,20.8-8.1,24.2
		c0,0,20.1-30,38.9-31.4s41.4,12.2,53.4,25.7c0,0,7.8,9.5,6.5-0.1S83,38.6,71,37.3S33,45.1,24,54.1z"/>
	<path class="st7" d="M28.9,89.1c0,0,13.3,0.9,13.3,8.6s-1.6,14.8,3.2,15.1s14.1,4.2,14.8,6.1s-1.3,12-1.3,12s-12.7,0-31.5-4.6
		c-8-1.9-1.6-19.8-1.6-19.8C24.9,101.5,28.9,89.1,28.9,89.1z"/>
	<path class="st8" d="M28.9,89.1c-1,2.9-1.6,6-1.7,9c-0.5,8.8-7.2,26.5,0.3,28.3c8.4,2,35.4,8.3,41.2,1.5
		c5.8-6.8,10.2-20.6,9.5-29.7S72.7,78.7,55,77.2c-11.9-1-19,4-22,5.1C31.4,82.8,30,86,28.9,89.1z"/>
	
		<linearGradient id="SVGID_00000055672816570516290170000001988590584991291524_" gradientUnits="userSpaceOnUse" x1="23.4753" y1="109.9957" x2="60.3931" y2="109.9957">
		<stop  offset="0" style="stop-color:#FFFFFF"/>
		<stop  offset="1" style="stop-color:#FF767B"/>
	</linearGradient>
	<path style="fill:url(#SVGID_00000055672816570516290170000001988590584991291524_);" d="M28.9,89.1c0,0,13.3,0.9,13.3,8.6
		s-1.6,14.8,3.2,15.1s14.1,4.2,14.8,6.1s-1.3,12-1.3,12s-12.7,0-31.5-4.6c-8-1.9-1.6-19.8-1.6-19.8C24.9,101.5,28.9,89.1,28.9,89.1z
		"/>
	<g>
		<circle class="st10" cx="50.9" cy="108.8" r="3"/>
		<circle class="st10" cx="48" cy="113.7" r="3"/>
		<circle class="st10" cx="45.8" cy="107.5" r="3"/>
		<circle class="st10" cx="40.1" cy="109.2" r="3"/>
		<circle class="st10" cx="45.5" cy="111.2" r="3"/>
		<circle class="st10" cx="55" cy="108" r="3"/>
		<circle class="st10" cx="50.8" cy="112.2" r="3"/>
	</g>
	<g>
		<circle class="st10" cx="53.6" cy="101.6" r="3"/>
		<circle class="st10" cx="50.8" cy="106.6" r="3"/>
		<circle class="st10" cx="48.6" cy="100.4" r="3"/>
		<circle class="st10" cx="42.8" cy="102" r="3"/>
		<circle class="st10" cx="48.2" cy="104" r="3"/>
		<circle class="st10" cx="57.7" cy="100.8" r="3"/>
		<circle class="st10" cx="53.5" cy="105.1" r="3"/>
	</g>
	<g>
		<circle class="st10" cx="61.5" cy="111.4" r="3"/>
		<circle class="st10" cx="58.7" cy="116.4" r="3"/>
		<circle class="st10" cx="56.5" cy="110.2" r="3"/>
		<circle class="st10" cx="50.7" cy="111.8" r="3"/>
		<circle class="st10" cx="56.1" cy="113.8" r="3"/>
		<circle class="st10" cx="65.6" cy="110.6" r="3"/>
		<circle class="st10" cx="61.4" cy="114.8" r="3"/>
	</g>
	<g>
		<circle class="st10" cx="71.2" cy="113" r="3"/>
		<circle class="st10" cx="68.3" cy="118" r="3"/>
		<circle class="st10" cx="66.1" cy="111.8" r="3"/>
		<circle class="st10" cx="60.4" cy="113.4" r="3"/>
		<circle class="st10" cx="65.8" cy="115.4" r="3"/>
		<circle class="st10" cx="75.3" cy="112.2" r="3"/>
		<circle class="st10" cx="71.1" cy="116.5" r="3"/>
	</g>
	<g>
		<circle class="st10" cx="74.2" cy="99.2" r="3"/>
		<circle class="st10" cx="68.7" cy="97.5" r="3"/>
		<circle class="st10" cx="74.3" cy="94" r="3"/>
		<circle class="st10" cx="71.4" cy="88.8" r="3"/>
		<circle class="st10" cx="70.6" cy="94.5" r="3"/>
		<circle class="st10" cx="75.9" cy="103" r="3"/>
		<circle class="st10" cx="70.8" cy="99.9" r="3"/>
	</g>
	<g>
		<circle class="st10" cx="64" cy="101.5" r="3"/>
		<circle class="st10" cx="61.2" cy="106.5" r="3"/>
		<circle class="st10" cx="59" cy="100.2" r="3"/>
		<circle class="st10" cx="53.2" cy="101.9" r="3"/>
		<circle class="st10" cx="58.6" cy="103.9" r="3"/>
		<circle class="st10" cx="68.1" cy="100.7" r="3"/>
		<circle class="st10" cx="64" cy="104.9" r="3"/>
	</g>
	<g>
		<circle class="st10" cx="48.6" cy="102.2" r="3"/>
		<circle class="st10" cx="45.7" cy="107.1" r="3"/>
		<circle class="st10" cx="43.5" cy="100.9" r="3"/>
		<circle class="st10" cx="37.8" cy="102.6" r="3"/>
		<circle class="st10" cx="43.2" cy="104.6" r="3"/>
		<circle class="st10" cx="52.7" cy="101.4" r="3"/>
		<circle class="st10" cx="48.5" cy="105.6" r="3"/>
	</g>
	<g>
		
			<linearGradient id="SVGID_00000013904907919979578450000011685166773611900557_" gradientUnits="userSpaceOnUse" x1="82.6465" y1="-3267.7043" x2="95.447" y2="-3267.7043" gradientTransform="matrix(-0.9972 7.485379e-02 -7.485379e-02 -0.9972 -104.2045 -3182.105)">
			<stop  offset="6.047002e-03" style="stop-color:#002300"/>
			<stop  offset="1" style="stop-color:#C6FFC9"/>
		</linearGradient>
		<path style="fill:url(#SVGID_00000013904907919979578450000011685166773611900557_);" d="M52.8,88.9c0.6,0.1,5.4-1.5,5.5-3
			c0.1-1.5-2.9-8.8-4.3-8.8c-1.5-0.1-8.9,0.3-9,1.8c-0.1,1.5,2.3,8.6,3.2,9.3S52.8,88.9,52.8,88.9z"/>
		<path class="st12" d="M52.8,88.9c0.6,0.1,5.4-1.5,5.5-3c0.1-1.5-2.9-8.8-4.3-8.8c-1.5-0.1-8.9,0.3-9,1.8c-0.1,1.5,2.3,8.6,3.2,9.3
			S52.8,88.9,52.8,88.9z"/>
	</g>
	<g>
		
			<linearGradient id="SVGID_00000049902404527291677640000017841644082917776563_" gradientUnits="userSpaceOnUse" x1="-1396.968" y1="-745.4482" x2="-1384.1676" y2="-745.4482" gradientTransform="matrix(0.4847 -0.8747 0.8747 0.4847 1380.5642 -761.1777)">
			<stop  offset="6.047002e-03" style="stop-color:#002300"/>
			<stop  offset="1" style="stop-color:#C6FFC9"/>
		</linearGradient>
		<path style="fill:url(#SVGID_00000049902404527291677640000017841644082917776563_);" d="M49,91.6c-0.4,0.4-1.7,5.3-0.5,6.2
			c1.2,0.9,8.9,2.4,9.8,1.2c0.9-1.2,4.7-7.6,3.5-8.5c-1.2-0.9-8.4-2.8-9.5-2.4C51.1,88.6,49,91.6,49,91.6z"/>
		<path class="st12" d="M49,91.6c-0.4,0.4-1.7,5.3-0.5,6.2c1.2,0.9,8.9,2.4,9.8,1.2c0.9-1.2,4.7-7.6,3.5-8.5
			c-1.2-0.9-8.4-2.8-9.5-2.4C51.1,88.6,49,91.6,49,91.6z"/>
	</g>
	<g>
		<path class="st14" d="M65,112.5l-7.2-27.6c-0.3-1.3,0.4-2.6,1.7-2.9l6.3-1.6c1.3-0.3,2.6,0.4,2.9,1.7l7.2,27.6
			c0.3,1.3-0.4,2.6-1.7,2.9l-6.3,1.6C66.7,114.5,65.4,113.8,65,112.5z"/>
		<path class="st15" d="M68.2,80.9c0,0-1.7,14.3-0.1,17.2c1.6,3,7.9,12.7,7.9,12.7"/>
		<path class="st15" d="M64.9,80.6c0,0-1.4,15.3,0.2,18.5c1.6,3.2,8.2,13.8,8.2,13.8"/>
		<path class="st15" d="M62.2,81.3c0,0-1.4,15.3,0.2,18.5c1.6,3.2,8.2,13.8,8.2,13.8"/>
	</g>
	<g>
		<path class="st14" d="M57,124.6l7.1-9.7c0.5-0.8,1.6-0.9,2.4-0.4l6.4,4.7c0.8,0.5,0.9,1.6,0.4,2.4l-7.1,9.7
			c-0.5,0.8-1.6,0.9-2.4,0.4l-6.4-4.7C56.6,126.5,56.5,125.4,57,124.6z"/>
		<path class="st15" d="M73.7,120.5c0,0-7.9,1.9-8.1,3.6c-0.3,1.7-0.3,7.9-0.3,7.9"/>
		<path class="st15" d="M71.5,118.2c0,0-8.1,2.3-8.5,4.1c-0.3,1.8-0.6,8.4-0.6,8.4"/>
		<path class="st15" d="M69.1,116.5c0,0-8.1,2.3-8.5,4.1c-0.3,1.8-0.6,8.4-0.6,8.4"/>
	</g>
	<g>
		
			<linearGradient id="SVGID_00000181069335056413402980000009826148440389358263_" gradientUnits="userSpaceOnUse" x1="-183.8245" y1="86.5909" x2="-162.657" y2="86.5909" gradientTransform="matrix(0.9918 -0.1276 0.1276 0.9918 201.3874 -18.1488)">
			<stop  offset="6.047002e-03" style="stop-color:#002300"/>
			<stop  offset="1" style="stop-color:#C6FFC9"/>
		</linearGradient>
		<path style="fill:url(#SVGID_00000181069335056413402980000009826148440389358263_);" d="M38.2,80.3c-0.9-0.2-8.8,3-8.7,5.4
			c0,2.4,5.5,14.2,7.9,14.2s14.7-1.3,14.7-3.7c0-2.4-4.5-14-6.2-15C44.2,80.2,38.2,80.3,38.2,80.3z"/>
		<path class="st12" d="M38.2,80.3c-0.9-0.2-8.8,3-8.7,5.4c0,2.4,5.5,14.2,7.9,14.2s14.7-1.3,14.7-3.7c0-2.4-4.5-14-6.2-15
			C44.2,80.2,38.2,80.3,38.2,80.3z"/>
	</g>
	<g>
		<circle class="st10" cx="74.3" cy="109.4" r="1.7"/>
		<circle class="st10" cx="72.7" cy="112.2" r="1.7"/>
		<circle class="st10" cx="71.5" cy="108.7" r="1.7"/>
		<circle class="st10" cx="68.3" cy="109.7" r="1.7"/>
		<circle class="st10" cx="71.3" cy="110.8" r="1.7"/>
		<circle class="st10" cx="76.6" cy="109" r="1.7"/>
		<circle class="st10" cx="74.3" cy="111.3" r="1.7"/>
	</g>
	<path class="st17" d="M14.1,66.2c0,0,11.9-17.1,20.7-19.4s13.9-3.8,11.7,6.9c-2.1,10.7-9.4,16.8-9.4,16.8L12,94.9
		c0,0-6-7.3-4.4-11.9C9.9,76.4,14.1,66.2,14.1,66.2z"/>
</g>
</svg>
