<?xml version="1.0" encoding="utf-8"?>
<!-- Generator: Adobe Illustrator 26.0.1, SVG Export Plug-In . SVG Version: 6.00 Build 0)  -->
<svg version="1.1" id="Layer_1" xmlns="http://www.w3.org/2000/svg" xmlns:xlink="http://www.w3.org/1999/xlink" x="0px" y="0px"
	 viewBox="0 0 120 180" style="enable-background:new 0 0 120 180;" xml:space="preserve">
<style type="text/css">
	.st0{fill:#FFFFFF;}
	.st1{fill:#FFF3EB;}
	.st2{fill:#FF6F00;}
	.st3{fill:#FF5B00;}
	.st4{fill:none;stroke:#FFFFFF;stroke-miterlimit:10;}
	.st5{opacity:7.000000e-02;fill:#FFF3EB;}
</style>
<g>
	<path class="st0" d="M28.6,73.5c0,0,2.2,9.8,21.5,20.8c10,5.7,14.7,9.5,19.8,11.9c8.2,3.9,16.9,2.6,25.1-1.9
		c13-7.2-31.7-23.8-31.7-23.8S46.7,70.7,28.6,73.5z"/>
	<path class="st1" d="M28.6,73.5c0,0,25.2,19.4,27.1,19.7c1.9,0.4,22.9,12.3,26.2,12.3c3.2,0,6.3,1.9,6.3,1.9S37.6,74.1,28.6,73.5z"
		/>
	<path class="st1" d="M86.3,106.4c0,0,5.4-16.4,18.4-19.8"/>
	<path class="st2" d="M20.6,66.1c-3.2,3.1-0.8,8.4,3.6,8c4.9-0.4,10.9,0.6,17.6,4.7c19.3,11.8,41.6,25.9,41.6,25.9
		s14.8,8.4,17.2,7.8c1.3-0.3,5.4-0.3,9.2-0.2c3.3,0.1,5.6-3.1,4.5-6.2c-3.1-8.8-9.8-24.2-21.5-32.1c-16.9-11.5-25.5-16.6-47-18.7
		C35.7,54.4,27,59.9,20.6,66.1z"/>
	<path class="st3" d="M20.9,66.1c0,0,45,0.3,64.6,10.4S105,86.6,105,86.6s-2.6-7.7-17.6-16.3S65,57.5,53.9,56.4
		C42.9,55.3,33,53.5,20.9,66.1z"/>
	<path class="st4" d="M24.2,74.2c0,0,5.7-16.7,11.8-17.8"/>
	<path class="st4" d="M51,56.1c-14.1,4.7-17,19.3-17,19.3"/>
	<path class="st4" d="M41.8,78.9c0,0,9.3-21.8,21.4-20.5"/>
	<path class="st4" d="M49.8,83.8c0,0,0-19.1,22.3-22.1"/>
	<path class="st4" d="M57.6,88.6c0,0,8.9-26.5,25.4-21"/>
	<path class="st4" d="M68.9,93.9c0,0,5.7-20.9,23.9-19.8"/>
	<path class="st4" d="M78.2,101.5c0,0,5.1-20.6,21.7-21.1"/>
	<path class="st4" d="M95.5,111.1c0,0,0.6-14.4,13.5-17.2"/>
	<path class="st4" d="M104.7,112.4c0,0,1.3-6.7,8.2-9.9"/>
	<path class="st4" d="M86.3,106.4c0,0,5.1-21.7,18.6-19.8"/>
	<path class="st5" d="M86.3,80.6c1.6,1.2,14.6,8.8,19.2,13.7s-3,9.5-21.7,3c-18.7-6.5-24.6-25-24.6-25L86.3,80.6z"/>
	<path class="st5" d="M76.7,81.3c0.7,0.5,6.2,3.7,8.2,5.9c2,2.1-1.3,4.1-9.3,1.3S65.1,77.8,65.1,77.8L76.7,81.3z"/>
</g>
<g>
	<path class="st0" d="M14.7,91.5c0,0,2.5,9.4,21.6,19.2c9.9,5.1,14.5,8.6,19.6,10.7c8.1,3.4,16.4,1.9,24.1-2.9
		c12.2-7.5-31.5-21.7-31.5-21.7S32,88.2,14.7,91.5z"/>
	<path class="st1" d="M14.7,91.5c0,0,25.1,17.7,27,17.9s22.6,10.9,25.8,10.8c3.1-0.1,6.2,1.6,6.2,1.6S23.5,91.8,14.7,91.5z"/>
	<path class="st1" d="M71.8,121c0,0,4.5-16,16.9-19.9"/>
	<path class="st2" d="M6.7,84.8c-2.9,3.1-0.4,8.1,3.8,7.6c4.7-0.6,10.5,0.2,17.1,3.8c19.1,10.6,41.2,23.3,41.2,23.3
		s14.6,7.5,16.9,6.9c1.2-0.4,5.2-0.5,8.8-0.6c3.2-0.1,5.3-3.3,4.1-6.2c-3.3-8.3-10.5-22.9-22.1-30.1c-16.8-10.4-25.3-15-46.1-16.2
		C20.8,72.8,12.6,78.6,6.7,84.8z"/>
	<path class="st3" d="M7,84.8c0,0,43.5-1.5,62.7,7.4s19.3,9,19.3,9s-2.8-7.3-17.6-15S49.2,74.6,38.5,74C27.8,73.4,18.2,72.1,7,84.8z
		"/>
	<path class="st4" d="M10.5,92.4c0,0,4.8-16.4,10.7-17.6"/>
	<path class="st4" d="M35.7,73.9c-13.4,5.1-15.6,19.3-15.6,19.3"/>
	<path class="st4" d="M27.7,96.2c0,0,8-21.4,19.8-20.7"/>
	<path class="st4" d="M35.6,100.7c0,0-0.7-18.4,20.7-22.2"/>
	<path class="st4" d="M43.3,105c0,0,7.5-25.9,23.6-21.3"/>
	<path class="st4" d="M54.4,109.6c0,0,4.6-20.4,22.2-20"/>
	<path class="st4" d="M63.7,116.6c0,0,4-20.1,20.1-21.3"/>
	<path class="st4" d="M80.8,125.1c0,0,0-13.9,12.3-17.2"/>
	<path class="st4" d="M89.7,126c0,0,1-6.6,7.5-9.9"/>
	<path class="st4" d="M71.8,121c0,0,4-21.2,17.2-19.9"/>
	<path class="st5" d="M70.7,96.1c1.6,1.1,14.4,7.9,19.1,12.5s-2.5,9.3-20.8,3.7S44.1,89.3,44.1,89.3L70.7,96.1z"/>
	<path class="st5" d="M61.4,97.2c0.7,0.5,6.2,3.4,8.1,5.3c2,2-1.1,4-8.9,1.6c-7.8-2.4-10.6-9.9-10.6-9.9L61.4,97.2z"/>
</g>
</svg>
