<?xml version="1.0" encoding="utf-8"?>
<!-- Generator: Adobe Illustrator 26.0.1, SVG Export Plug-In . SVG Version: 6.00 Build 0)  -->
<svg version="1.1" id="Layer_1" xmlns="http://www.w3.org/2000/svg" xmlns:xlink="http://www.w3.org/1999/xlink" x="0px" y="0px"
	 viewBox="0 0 120 180" style="enable-background:new 0 0 120 180;" xml:space="preserve">
<style type="text/css">
	.st0{fill:url(#SVGID_1_);}
	.st1{fill:#FFFFFF;}
	.st2{fill:url(#SVGID_00000065760652371696214930000017616628108812109241_);}
	.st3{fill:none;stroke:#FC3B00;stroke-miterlimit:10;}
	.st4{fill:none;stroke:#FFA466;stroke-width:2;stroke-miterlimit:10;}
	.st5{fill:#E8E8E8;}
	.st6{fill:#002300;}
	.st7{fill:#001903;}
	.st8{fill:#002D01;}
	.st9{opacity:0.12;fill:#FFFFFF;}
	.st10{opacity:7.000000e-02;fill:#FFFFFF;}
	.st11{fill:url(#SVGID_00000026857553698579828400000002340077273173484704_);}
	.st12{fill:url(#SVGID_00000134213482764832583950000017960148075662351288_);}
	.st13{fill:url(#SVGID_00000135693387335005588590000006934163574545956255_);}
	.st14{fill:url(#SVGID_00000039838545085054523980000002884920697065076633_);}
</style>
<g>
	<linearGradient id="SVGID_1_" gradientUnits="userSpaceOnUse" x1="5.2739" y1="110.7934" x2="25.8823" y2="110.7934">
		<stop  offset="0" style="stop-color:#FF4100"/>
		<stop  offset="1" style="stop-color:#EF7E4B"/>
	</linearGradient>
	<polygon class="st0" points="5.3,102.1 25.9,115.9 25.9,119.5 5.3,105.8 	"/>
	<g>
		<path class="st1" d="M31,112.1c0,0,17-29.8,57-41.2c0,0,9.4,2.8-3.8,16.8C84.1,87.7,55.1,108,31,112.1z"/>
		
			<linearGradient id="SVGID_00000143602949827991895610000015504635705795709342_" gradientUnits="userSpaceOnUse" x1="103.8227" y1="79.5569" x2="4.0215" y2="92.3935">
			<stop  offset="0" style="stop-color:#FF4100"/>
			<stop  offset="1" style="stop-color:#EF7E4B"/>
		</linearGradient>
		<path style="fill:url(#SVGID_00000143602949827991895610000015504635705795709342_);" d="M25.9,117.1c0,0,39.9-45,75.8-43
			c0,0,6.4-11.4-15.8-19.8c0,0-22.7,2.9-28.4,4.8c-2.2,0.8-19.4,7.4-29.8,19.8S5.3,102.1,5.3,102.1L25.9,117.1z"/>
		<path class="st3" d="M8.3,103.9c0,0,38.1-53.1,82.9-47.7"/>
		<path class="st4" d="M93.6,57.5c-39.9-7.8-82.8,48.2-82.7,48.3"/>
		<path class="st3" d="M14.3,108.3c0,0,42.4-57.8,81.5-49.3"/>
		<path class="st4" d="M17.2,110.3c0,0,45.3-56.4,80.4-50"/>
		<path class="st4" d="M19.6,112.1C20,112.4,72.2,52,99.5,62.3"/>
		<path class="st3" d="M20.8,111.5c0,0,58.3-57.7,82.2-43.5"/>
		<path class="st3" d="M24.1,115.4c0,0,50.6-55.7,78.3-47.3"/>
		<path class="st4" d="M25.9,116.7c0,0,49-53.8,76.5-45.8"/>
		<path class="st4" d="M6.4,102.5c0,0,34.4-48.2,80.7-48.2"/>
		<path class="st5" d="M31,112.1c0,0,37-40.1,60.2-37.8C91.2,74.3,71.2,90.1,31,112.1z"/>
		<path class="st6" d="M39.7,67.4c0,0,22.5,2.9,18.8,21.8c-2.9,14.6-2.9,14.6-2.9,14.6s13.1-5.4,19.7-10.6c0,0-0.4-16.3-1.5-17.7
			c-1.1-1.4-6.7-12.1-18.2-16.6C55.7,59.1,44.9,63.1,39.7,67.4z"/>
		<path class="st7" d="M58.5,81.5c0,0,7.2-0.6,15.4-5.8c0,0,2.2,12.9,1.5,17.7c-0.7,4.7-19.7,10.6-19.7,10.6S59.6,88.9,58.5,81.5z"
			/>
		<path class="st8" d="M39.5,67.4c0,0,9.7-6.8,16-8.3c0,0,6.6,2.8,8.4,4.6C65.7,65.5,55.4,60.9,39.5,67.4z"/>
		<path class="st9" d="M91.3,57.8l3.5,7c0.8,1.6,0,3.5-1.5,3.6c-3.6,0.3-9.6,1.7-13.3,6.3c-0.8,1-6-8.3-8.4-12.6
			c-0.6-1.1-0.2-2.4,0.8-2.6l15.3-3.7C89.1,55.5,90.6,56.3,91.3,57.8z"/>
		<path class="st10" d="M85.6,59.3l1.4,3.6c0.3,0.8-0.3,1.7-1.2,1.7c-2.1,0-5.7,0.4-8.2,2.5c-0.5,0.4-2.8-4.3-3.8-6.6
			c-0.2-0.5,0.1-1.2,0.7-1.3l9.2-1.2C84.5,58,85.3,58.5,85.6,59.3z"/>
	</g>
	
		<linearGradient id="SVGID_00000062194187185152112060000007047101770997516186_" gradientUnits="userSpaceOnUse" x1="25.8823" y1="104.0304" x2="56.9648" y2="104.0304">
		<stop  offset="0" style="stop-color:#FF4100"/>
		<stop  offset="1" style="stop-color:#EF7E4B"/>
	</linearGradient>
	<path style="fill:url(#SVGID_00000062194187185152112060000007047101770997516186_);" d="M25.9,119.6L57,88.5
		c0,0-31.1,24.4-31.1,27.8C25.9,119.6,25.9,119.6,25.9,119.6z"/>
</g>
<g>
	
		<linearGradient id="SVGID_00000139279721302565537110000009318974846994714269_" gradientUnits="userSpaceOnUse" x1="16.76" y1="127.722" x2="37.3684" y2="127.722">
		<stop  offset="0" style="stop-color:#FF4100"/>
		<stop  offset="1" style="stop-color:#EF7E4B"/>
	</linearGradient>
	<polygon style="fill:url(#SVGID_00000139279721302565537110000009318974846994714269_);" points="16.8,119.1 37.4,132.8 
		37.4,136.4 16.8,122.7 	"/>
	<g>
		<path class="st1" d="M42.5,129c0,0,17-29.8,57-41.2c0,0,9.4,2.8-3.8,16.8C95.6,104.6,66.6,125,42.5,129z"/>
		
			<linearGradient id="SVGID_00000105409292100161590980000017255531712425960590_" gradientUnits="userSpaceOnUse" x1="115.3089" y1="96.4856" x2="15.5076" y2="109.3221">
			<stop  offset="0" style="stop-color:#FF4100"/>
			<stop  offset="1" style="stop-color:#EF7E4B"/>
		</linearGradient>
		<path style="fill:url(#SVGID_00000105409292100161590980000017255531712425960590_);" d="M37.4,134.1c0,0,39.9-45,75.8-43
			c0,0,6.4-11.4-15.8-19.8c0,0-22.7,2.9-28.4,4.8c-2.2,0.8-19.4,7.4-29.8,19.8s-22.4,23.2-22.4,23.2L37.4,134.1z"/>
		<path class="st3" d="M19.8,120.8c0,0,38.1-53.1,82.9-47.7"/>
		<path class="st4" d="M105.1,74.4c-39.9-7.8-82.8,48.2-82.7,48.3"/>
		<path class="st3" d="M25.8,125.2c0,0,42.4-57.8,81.5-49.3"/>
		<path class="st4" d="M28.7,127.3c0,0,45.3-56.4,80.4-50"/>
		<path class="st4" d="M31.1,129c0.4,0.3,52.6-60.1,79.9-49.8"/>
		<path class="st3" d="M32.3,128.4c0,0,58.3-57.7,82.2-43.5"/>
		<path class="st3" d="M35.6,132.3c0,0,50.6-55.7,78.3-47.3"/>
		<path class="st4" d="M37.4,133.6c0,0,49-53.8,76.5-45.8"/>
		<path class="st4" d="M17.9,119.4c0,0,34.4-48.2,80.7-48.2"/>
		<path class="st5" d="M42.5,129c0,0,37-40.1,60.2-37.8C102.7,91.3,82.7,107,42.5,129z"/>
		<path class="st6" d="M51.2,84.3c0,0,22.5,2.9,18.8,21.8c-2.9,14.6-2.9,14.6-2.9,14.6s13.1-5.4,19.7-10.6c0,0-0.4-16.3-1.5-17.7
			c-1.1-1.4-6.7-12.1-18.2-16.6C67.2,76,56.4,80,51.2,84.3z"/>
		<path class="st7" d="M70,98.4c0,0,7.2-0.6,15.4-5.8c0,0,2.2,12.9,1.5,17.7c-0.7,4.7-19.7,10.6-19.7,10.6S71.1,105.8,70,98.4z"/>
		<path class="st8" d="M51,84.3c0,0,9.7-6.8,16-8.3c0,0,6.6,2.8,8.4,4.6C77.2,82.5,66.8,77.8,51,84.3z"/>
		<path class="st9" d="M102.8,74.7l3.5,7c0.8,1.6,0,3.5-1.5,3.6c-3.6,0.3-9.6,1.7-13.3,6.3c-0.8,1-6-8.3-8.4-12.6
			C82.6,78,83,76.7,84,76.5l15.3-3.7C100.6,72.4,102.1,73.2,102.8,74.7z"/>
		<path class="st10" d="M97.1,76.2l1.4,3.6c0.3,0.8-0.3,1.7-1.2,1.7c-2.1,0-5.7,0.4-8.2,2.5c-0.5,0.4-2.8-4.3-3.8-6.6
			c-0.2-0.5,0.1-1.2,0.7-1.3l9.2-1.2C96,75,96.8,75.4,97.1,76.2z"/>
	</g>
	
		<linearGradient id="SVGID_00000161601595076868568730000012817818497817865119_" gradientUnits="userSpaceOnUse" x1="37.3684" y1="120.959" x2="68.451" y2="120.959">
		<stop  offset="0" style="stop-color:#FF4100"/>
		<stop  offset="1" style="stop-color:#EF7E4B"/>
	</linearGradient>
	<path style="fill:url(#SVGID_00000161601595076868568730000012817818497817865119_);" d="M37.4,136.5l31.1-31.1
		c0,0-31.1,24.4-31.1,27.8C37.4,136.5,37.4,136.5,37.4,136.5z"/>
</g>
</svg>
