<?xml version="1.0" encoding="utf-8"?>
<!-- Generator: Adobe Illustrator 26.0.1, SVG Export Plug-In . SVG Version: 6.00 Build 0)  -->
<svg version="1.1" xmlns="http://www.w3.org/2000/svg" xmlns:xlink="http://www.w3.org/1999/xlink" x="0px" y="0px"
	 viewBox="0 0 1920 1080" style="enable-background:new 0 0 1920 1080;" xml:space="preserve">
<style type="text/css">
	.st0{fill:#FFE9EB;}
	.st1{fill:#E5BC9A;}
	.st2{fill:#E2AC83;}
	.st3{fill:#422827;}
	.st4{fill:#3F1D1D;}
	.st5{fill:#3F2929;}
	.st6{fill:#FFFFFF;}
	.st7{fill:url(#SVGID_1_);}
	.st8{opacity:3.000000e-02;fill:#FFFFFF;}
</style>
<g id="background">
	<rect y="0.2" class="st0" width="1920" height="1079.8"/>
	<g>
		<path class="st1" d="M1587.5,109.3H350.9c-4.5,0-8.3-3.7-8.3-8.3v0c0-4.5,3.7-8.3,8.3-8.3h1236.5c4.5,0,8.3,3.7,8.3,8.3v0
			C1595.7,105.5,1592,109.3,1587.5,109.3z"/>
		<path class="st1" d="M1587.5,144.2H350.9c-4.5,0-8.3-3.7-8.3-8.3v0c0-4.5,3.7-8.3,8.3-8.3h1236.5c4.5,0,8.3,3.7,8.3,8.3v0
			C1595.7,140.4,1592,144.2,1587.5,144.2z"/>
		<path class="st1" d="M1587.5,179.1H350.9c-4.5,0-8.3-3.7-8.3-8.3v0c0-4.5,3.7-8.3,8.3-8.3h1236.5c4.5,0,8.3,3.7,8.3,8.3v0
			C1595.7,175.3,1592,179.1,1587.5,179.1z"/>
		<path class="st1" d="M1587.5,214H350.9c-4.5,0-8.3-3.7-8.3-8.3v0c0-4.5,3.7-8.3,8.3-8.3h1236.5c4.5,0,8.3,3.7,8.3,8.3v0
			C1595.7,210.2,1592,214,1587.5,214z"/>
		<path class="st1" d="M1587.5,248.8H350.9c-4.5,0-8.3-3.7-8.3-8.3v0c0-4.5,3.7-8.3,8.3-8.3h1236.5c4.5,0,8.3,3.7,8.3,8.3v0
			C1595.7,245.1,1592,248.8,1587.5,248.8z"/>
		<path class="st1" d="M1587.5,283.7H350.9c-4.5,0-8.3-3.7-8.3-8.3v0c0-4.5,3.7-8.3,8.3-8.3h1236.5c4.5,0,8.3,3.7,8.3,8.3v0
			C1595.7,280,1592,283.7,1587.5,283.7z"/>
		<path class="st1" d="M1587.5,318.6H350.9c-4.5,0-8.3-3.7-8.3-8.3v0c0-4.5,3.7-8.3,8.3-8.3h1236.5c4.5,0,8.3,3.7,8.3,8.3v0
			C1595.7,314.9,1592,318.6,1587.5,318.6z"/>
		<path class="st1" d="M1587.5,353.5H350.9c-4.5,0-8.3-3.7-8.3-8.3v0c0-4.5,3.7-8.3,8.3-8.3h1236.5c4.5,0,8.3,3.7,8.3,8.3v0
			C1595.7,349.8,1592,353.5,1587.5,353.5z"/>
		<path class="st1" d="M1587.5,388.4H350.9c-4.5,0-8.3-3.7-8.3-8.3v0c0-4.5,3.7-8.3,8.3-8.3h1236.5c4.5,0,8.3,3.7,8.3,8.3v0
			C1595.7,384.7,1592,388.4,1587.5,388.4z"/>
		<path class="st1" d="M1587.5,423.3H350.9c-4.5,0-8.3-3.7-8.3-8.3v0c0-4.5,3.7-8.3,8.3-8.3h1236.5c4.5,0,8.3,3.7,8.3,8.3v0
			C1595.7,419.6,1592,423.3,1587.5,423.3z"/>
		<path class="st1" d="M1587.5,458.4H350.9c-4.5,0-8.3-3.7-8.3-8.3v0c0-4.5,3.7-8.3,8.3-8.3h1236.5c4.5,0,8.3,3.7,8.3,8.3v0
			C1595.7,454.6,1592,458.4,1587.5,458.4z"/>
		<path class="st1" d="M1587.5,493.2H350.9c-4.5,0-8.3-3.7-8.3-8.3l0,0c0-4.5,3.7-8.3,8.3-8.3h1236.5c4.5,0,8.3,3.7,8.3,8.3l0,0
			C1595.7,489.5,1592,493.2,1587.5,493.2z"/>
		<path class="st1" d="M1587.5,528.1H350.9c-4.5,0-8.3-3.7-8.3-8.3v0c0-4.5,3.7-8.3,8.3-8.3h1236.5c4.5,0,8.3,3.7,8.3,8.3v0
			C1595.7,524.4,1592,528.1,1587.5,528.1z"/>
		<path class="st1" d="M1587.5,563H350.9c-4.5,0-8.3-3.7-8.3-8.3l0,0c0-4.5,3.7-8.3,8.3-8.3h1236.5c4.5,0,8.3,3.7,8.3,8.3l0,0
			C1595.7,559.3,1592,563,1587.5,563z"/>
		<path class="st1" d="M1587.5,597.9H350.9c-4.5,0-8.3-3.7-8.3-8.3v0c0-4.5,3.7-8.3,8.3-8.3h1236.5c4.5,0,8.3,3.7,8.3,8.3v0
			C1595.7,594.2,1592,597.9,1587.5,597.9z"/>
		<path class="st1" d="M1587.5,632.8H350.9c-4.5,0-8.3-3.7-8.3-8.3l0,0c0-4.5,3.7-8.3,8.3-8.3h1236.5c4.5,0,8.3,3.7,8.3,8.3l0,0
			C1595.7,629.1,1592,632.8,1587.5,632.8z"/>
		<path class="st1" d="M1587.5,667.7H350.9c-4.5,0-8.3-3.7-8.3-8.3v0c0-4.5,3.7-8.3,8.3-8.3h1236.5c4.5,0,8.3,3.7,8.3,8.3v0
			C1595.7,664,1592,667.7,1587.5,667.7z"/>
		<path class="st1" d="M1587.5,702.6H350.9c-4.5,0-8.3-3.7-8.3-8.3l0,0c0-4.5,3.7-8.3,8.3-8.3h1236.5c4.5,0,8.3,3.7,8.3,8.3l0,0
			C1595.7,698.9,1592,702.6,1587.5,702.6z"/>
		<path class="st1" d="M1587.5,737.5H350.9c-4.5,0-8.3-3.7-8.3-8.3v0c0-4.5,3.7-8.3,8.3-8.3h1236.5c4.5,0,8.3,3.7,8.3,8.3v0
			C1595.7,733.8,1592,737.5,1587.5,737.5z"/>
		<path class="st1" d="M1587.5,772.4H350.9c-4.5,0-8.3-3.7-8.3-8.3l0,0c0-4.5,3.7-8.3,8.3-8.3h1236.5c4.5,0,8.3,3.7,8.3,8.3l0,0
			C1595.7,768.7,1592,772.4,1587.5,772.4z"/>
		<path class="st1" d="M1587.5,807.3H350.9c-4.5,0-8.3-3.7-8.3-8.3v0c0-4.5,3.7-8.3,8.3-8.3h1236.5c4.5,0,8.3,3.7,8.3,8.3v0
			C1595.7,803.6,1592,807.3,1587.5,807.3z"/>
		<path class="st1" d="M1587.5,842.2H350.9c-4.5,0-8.3-3.7-8.3-8.3l0,0c0-4.5,3.7-8.3,8.3-8.3h1236.5c4.5,0,8.3,3.7,8.3,8.3l0,0
			C1595.7,838.5,1592,842.2,1587.5,842.2z"/>
		<path class="st1" d="M1587.5,877.1H350.9c-4.5,0-8.3-3.7-8.3-8.3v0c0-4.5,3.7-8.3,8.3-8.3h1236.5c4.5,0,8.3,3.7,8.3,8.3v0
			C1595.7,873.4,1592,877.1,1587.5,877.1z"/>
		<path class="st1" d="M1587.5,912H350.9c-4.5,0-8.3-3.7-8.3-8.3l0,0c0-4.5,3.7-8.3,8.3-8.3h1236.5c4.5,0,8.3,3.7,8.3,8.3l0,0
			C1595.7,908.3,1592,912,1587.5,912z"/>
		<path class="st1" d="M1587.5,946.9H350.9c-4.5,0-8.3-3.7-8.3-8.3v0c0-4.5,3.7-8.3,8.3-8.3h1236.5c4.5,0,8.3,3.7,8.3,8.3v0
			C1595.7,943.2,1592,946.9,1587.5,946.9z"/>
		<path class="st1" d="M1587.5,981.8H350.9c-4.5,0-8.3-3.7-8.3-8.3l0,0c0-4.5,3.7-8.3,8.3-8.3h1236.5c4.5,0,8.3,3.7,8.3,8.3l0,0
			C1595.7,978.1,1592,981.8,1587.5,981.8z"/>
		<path class="st1" d="M1587.5,1016.7H350.9c-4.5,0-8.3-3.7-8.3-8.3v0c0-4.5,3.7-8.3,8.3-8.3h1236.5c4.5,0,8.3,3.7,8.3,8.3v0
			C1595.7,1013,1592,1016.7,1587.5,1016.7z"/>
		<path class="st2" d="M444.1,1020.7h-1.6c-2.9,0-5.4-2.4-5.4-5.4v-922c0-2.9,2.4-5.4,5.4-5.4h1.6c2.9,0,5.4,2.4,5.4,5.4v922
			C449.5,1018.2,447.1,1020.7,444.1,1020.7z"/>
		<path class="st2" d="M1502.7,1021.2h-1.6c-2.9,0-5.4-2.4-5.4-5.4v-922c0-2.9,2.4-5.4,5.4-5.4h1.6c2.9,0,5.4,2.4,5.4,5.4v922
			C1508.1,1018.7,1505.7,1021.2,1502.7,1021.2z"/>
	</g>
</g>
<g id="Layer_2">
	<g>
		<path class="st3" d="M253.2,995.9c0,0-11.2,8-29.2,4.6l-55.8-837.8c0,0,7.3-3.4,11.5-1.2L253.2,995.9z"/>
		<polygon class="st4" points="168.3,162.6 236.7,1001.2 224,1000.5 		"/>
	</g>
	<g>
		<path class="st5" d="M192.7,999.3c0,0-12.3,6.3-29.6,0.2l68.4-836.9c0,0,7.7-2.2,11.5,0.5L192.7,999.3z"/>
		<polygon class="st4" points="231.6,162.6 175.6,1002 163.1,999.5 		"/>
	</g>
	<g>
		<circle class="st6" cx="1595.7" cy="912" r="146.6"/>
		<linearGradient id="SVGID_1_" gradientUnits="userSpaceOnUse" x1="1456.9796" y1="912.0293" x2="1734.5056" y2="912.0293">
			<stop  offset="0" style="stop-color:#3F2516"/>
			<stop  offset="1" style="stop-color:#2A1200"/>
		</linearGradient>
		<circle class="st7" cx="1595.7" cy="912" r="138.8"/>
	</g>
	
		<ellipse transform="matrix(0.9121 -0.4099 0.4099 0.9121 -146.8036 630.0434)" class="st8" cx="1396" cy="657.4" rx="23.3" ry="50.6"/>
</g>
</svg>
