<?xml version="1.0" encoding="utf-8"?>
<!-- Generator: Adobe Illustrator 26.0.1, SVG Export Plug-In . SVG Version: 6.00 Build 0)  -->
<svg version="1.1" xmlns="http://www.w3.org/2000/svg" xmlns:xlink="http://www.w3.org/1999/xlink" x="0px" y="0px"
	 viewBox="0 0 600 400" style="enable-background:new 0 0 600 400;" xml:space="preserve">
<style type="text/css">
	.st0{fill:#9BC617;}
	.st1{fill:#B6C174;}
	.st2{fill:none;}
	.st3{fill:#FFFFFF;}
	.st4{font-family:'Futura-Medium';}
	.st5{font-size:34.8798px;}
	.st6{fill:#FFCFCF;}
	.st7{fill:#CF4A52;}
	.st8{fill:#FF9799;}
	.st9{font-size:31.1804px;}
	#deckA, #deckB {cursor: pointer}
</style>
<g id="deckA" class="btns">
	<g>
		<path class="st0" d="M548.6,232.4c0,43.2-43.2,44-96.5,44s-103.6-0.8-103.6-44S398.7,120,452,120S548.6,189.2,548.6,232.4z"/>
		<path class="st1" d="M518.7,230.3c0,28.2-30.3,28.7-67.7,28.7s-72.6-0.5-72.6-28.7c0-28.2,35.2-73.4,72.6-73.4
			S518.7,202.1,518.7,230.3z"/>
		<rect x="266" y="191.1" class="st2" width="365" height="135.8"/>
		<text transform="matrix(1 0 0 1 376.8826 219.857)" class="st3 st4 st5">DESSERT</text>
	</g>
</g>
<g id="deckB" class="btns">
	<g>
		<g>
			<path class="st6" d="M56.1,201.3c0,0,56.5-29.6,84.8-29.6s102.3-1.9,118.9,19.1c0,0,3.3,21,5.8,26.8s-4.2,60.2-97.3,58.3
				C75.2,274,56.1,248.2,56.1,201.3z"/>
			<path class="st7" d="M256.1,186.5c0,0-6.1,8.4,5.5,22.1s23.1,14.8,23.1,14.8s-2.8-29.1-4.5-23c-1.7,6.1,28.9,2.7,28.9,2.7
				s3.1-13.3-10-17.7c-13.1-4.4-30.4-2.5-30.4-2.5L256.1,186.5z"/>
			<path class="st8" d="M77.9,197.8c-10.3,5.4-22.3,6.8-33.5,3.4c-10.1-3.1-18.3-8.8-10.7-18.9c15.2-20.2,73.1-45,123.4-44
				c0,0,61.1-1.6,103.1,28.4c4.9,3.5,9,8.2,11.7,13.6c3.8,7.7,5.2,17.2-11.9,16.5C233.5,195.9,138.1,166.6,77.9,197.8z"/>
			<g>
				<path class="st3" d="M52.3,166.9c17.5-3.1,32.5,10.2,32.1,27.9c-1.2-3.8-2.5-7.4-4.3-10.8C74.8,173.6,63.7,168.1,52.3,166.9
					L52.3,166.9z"/>
			</g>
			<g>
				<path class="st3" d="M84.4,151.6c18.3,1.9,31.2,18,23.1,35.8C110.4,168.6,101.1,158.5,84.4,151.6L84.4,151.6z"/>
			</g>
			<g>
				<path class="st3" d="M126.8,140.6c16.5,7.3,26,26.8,15.5,43C148,165.5,140.5,152.1,126.8,140.6L126.8,140.6z"/>
			</g>
			<g>
				<path class="st3" d="M157.1,138.4c13.3,5.5,23.5,20.2,16.9,34.5c-1.9,4.4-4.8,8.1-8.3,11.2c2.5-3.9,4.7-7.8,6.1-12
					C176.7,158.3,167.6,146.4,157.1,138.4L157.1,138.4z"/>
			</g>
			<g>
				<path class="st3" d="M195.3,141.7c13.7,12.1,13.5,33,0,45.2C204.7,171.6,205,157,195.3,141.7L195.3,141.7z"/>
			</g>
			<g>
				<path class="st3" d="M227.5,152.3c13.3,12.1,8.6,30.3-6.2,38.6C232.5,178.9,236.4,167.2,227.5,152.3L227.5,152.3z"/>
			</g>
		</g>
		<rect x="27.4" y="207.2" class="st2" width="277" height="103.1"/>
		<text transform="matrix(1 0 0 1 120.1665 232.9348)" class="st3 st4 st9">SUSHI</text>
	</g>
</g>
</svg>
