<?xml version="1.0" encoding="utf-8"?>
<!-- Generator: Adobe Illustrator 26.0.1, SVG Export Plug-In . SVG Version: 6.00 Build 0)  -->
<svg version="1.1" xmlns="http://www.w3.org/2000/svg" xmlns:xlink="http://www.w3.org/1999/xlink" x="0px" y="0px"
	 viewBox="0 0 1920 1080" style="enable-background:new 0 0 1920 1080;" xml:space="preserve">
<style type="text/css">
#begin, #begin-sign {
	cursor: pointer;
	}
	.st0{fill:url(#bg_00000135666433916505262220000017950817974690910106_);}
	.st1{fill:#E2CBAC;}
	.st2{fill:#C3905D;}
	.st3{fill:#C1844C;}
	.st4{clip-path:url(#SVGID_00000039840080763860554130000010926620161358906790_);}
	.st5{fill:#BE8A52;}
	.st6{fill:#BC8146;}
	.st7{fill:#9D6F57;}
	.st8{fill:#9B6249;}
	.st9{fill:none;stroke:#050030;stroke-width:3;stroke-miterlimit:10;}
	.st10{fill:#1F5566;}
	.st11{fill:#365767;}
	.st12{fill:#36576A;}
	.st13{clip-path:url(#SVGID_00000137851511213470224290000003007774566056688283_);}
	.st14{fill:#82523F;}
	.st15{fill:#E5D098;}
	.st16{fill:none;stroke:#E5D098;stroke-width:4;stroke-miterlimit:10;}
	.st17{fill:none;stroke:#1F5566;stroke-width:2;stroke-miterlimit:10;}
	.st18{fill:#1F5566;stroke:#1F5566;stroke-width:2;stroke-miterlimit:10;}
	.st19{fill:#FFE9EB;}
	.st20{fill:#734C3D;}
	.st21{fill:#889840;}
	.st22{fill:#567787;}
	.st23{fill:#427184;}
	.st24{filter:url(#AI_Shadow_1);}
	.st25{fill:#6E793F;}
	.st26{fill:#727272;}
	.st27{fill:#C6C28D;}
	.st28{fill:#979659;}
	.st29{fill:#5E5C2B;}
	.st30{fill:#C26E4D;}
	.st31{fill:#C16244;}
	.st32{fill:#CCA062;}
	.st33{opacity:0.22;}
	.st34{fill:#2B2B2B;}
	.st35{fill:#FFFFFF;}
	.st36{fill:#845E4C;}
	.st37{fill:#C2CECB;}
	.st38{fill:#DBDCDD;}
	.st39{fill:#CCD6D3;}
</style>
<filter  filterUnits="objectBoundingBox" id="AI_Shadow_1">
	<feGaussianBlur  in="SourceAlpha" result="blur" stdDeviation="2"></feGaussianBlur>
	<feOffset  dx="2" dy="2" in="blur" result="offsetBlurredAlpha"></feOffset>
	<feMerge>
		<feMergeNode  in="offsetBlurredAlpha"></feMergeNode>
		<feMergeNode  in="SourceGraphic"></feMergeNode>
	</feMerge>
</filter>
<g id="inspo">
</g>
<g id="splash">
	
		<linearGradient id="bg_00000080913851141540850940000011412582887460151471_" gradientUnits="userSpaceOnUse" x1="-3.0103" y1="540" x2="1929.9366" y2="540">
		<stop  offset="0" style="stop-color:#C1CDC6"/>
		<stop  offset="0.4566" style="stop-color:#9CBAC3"/>
		<stop  offset="0.8044" style="stop-color:#84AEC1"/>
	</linearGradient>
	<rect id="bg" x="-3" style="fill:url(#bg_00000080913851141540850940000011412582887460151471_);" width="1932.9" height="1080"/>
	<rect id="ground" x="-6.2" y="896" class="st1" width="1926.5" height="183.6"/>
	<g id="upper-half">
		<rect x="693.9" y="365.5" class="st2" width="578.8" height="241.8"/>
		<polygon class="st3" points="693.9,379.7 1272.7,607.4 1271.6,379.7 		"/>
	</g>
	<g id="fence">
		<g>
			<defs>
				<rect id="SVGID_1_" x="1.7" y="613.7" width="1929.6" height="288.8"/>
			</defs>
			<clipPath id="SVGID_00000134945251679404655780000012978971926235963569_">
				<use xlink:href="#SVGID_1_"  style="overflow:visible;"/>
			</clipPath>
			<g style="clip-path:url(#SVGID_00000134945251679404655780000012978971926235963569_);">
				<g>
					<rect x="1.7" y="613.7" class="st5" width="18.6" height="280.7"/>
				</g>
				<g>
					<rect x="45.2" y="613.7" class="st5" width="18.6" height="280.7"/>
				</g>
				<g>
					<rect x="88.8" y="613.7" class="st5" width="18.6" height="280.7"/>
				</g>
				<g>
					<rect x="132.4" y="613.7" class="st5" width="18.6" height="280.7"/>
				</g>
				<g>
					<rect x="175.9" y="613.7" class="st5" width="18.6" height="280.7"/>
				</g>
				<g>
					<rect x="219.5" y="613.7" class="st5" width="18.6" height="280.7"/>
				</g>
				<g>
					<rect x="263.1" y="613.7" class="st5" width="18.6" height="280.7"/>
				</g>
				<g>
					<rect x="306.6" y="613.7" class="st5" width="18.6" height="280.7"/>
				</g>
				<g>
					<rect x="350.2" y="613.7" class="st5" width="18.6" height="280.7"/>
				</g>
				<g>
					<rect x="393.8" y="613.7" class="st5" width="18.6" height="280.7"/>
				</g>
				<g>
					<rect x="437.4" y="613.7" class="st5" width="18.6" height="280.7"/>
				</g>
				<g>
					<rect x="480.9" y="613.7" class="st5" width="18.6" height="280.7"/>
				</g>
				<g>
					<rect x="524.5" y="613.7" class="st5" width="18.6" height="280.7"/>
				</g>
				<g>
					<rect x="568.1" y="613.7" class="st5" width="18.6" height="280.7"/>
				</g>
				<g>
					<rect x="611.6" y="613.7" class="st5" width="18.6" height="280.7"/>
				</g>
				<g>
					<rect x="655.2" y="613.7" class="st5" width="18.6" height="280.7"/>
				</g>
				<g>
					<rect x="698.8" y="613.7" class="st5" width="18.6" height="280.7"/>
				</g>
				<g>
					<rect x="742.3" y="613.7" class="st5" width="18.6" height="280.7"/>
				</g>
				<g>
					<rect x="785.9" y="613.7" class="st5" width="18.6" height="280.7"/>
				</g>
				<g>
					<rect x="829.5" y="613.7" class="st5" width="18.6" height="280.7"/>
				</g>
				<g>
					<rect x="873" y="613.7" class="st5" width="18.6" height="280.7"/>
				</g>
				<g>
					<rect x="916.6" y="613.7" class="st5" width="18.6" height="280.7"/>
				</g>
				<g>
					<rect x="960.2" y="613.7" class="st5" width="18.6" height="280.7"/>
				</g>
				<g>
					<rect x="1003.8" y="613.7" class="st5" width="18.6" height="280.7"/>
				</g>
				<g>
					<rect x="1047.3" y="613.7" class="st5" width="18.6" height="280.7"/>
				</g>
				<g>
					<rect x="1090.9" y="613.7" class="st5" width="18.6" height="280.7"/>
				</g>
				<g>
					<rect x="1134.5" y="613.7" class="st5" width="18.6" height="280.7"/>
				</g>
				<g>
					<rect x="1178" y="613.7" class="st5" width="18.6" height="280.7"/>
				</g>
				<g>
					<rect x="1221.6" y="613.7" class="st5" width="18.6" height="280.7"/>
				</g>
				<g>
					<rect x="1265.2" y="613.7" class="st5" width="18.6" height="280.7"/>
				</g>
				<g>
					<rect x="1308.7" y="613.7" class="st5" width="18.6" height="280.7"/>
				</g>
				<g>
					<rect x="1352.3" y="613.7" class="st5" width="18.6" height="280.7"/>
				</g>
				<g>
					<rect x="1395.9" y="613.7" class="st5" width="18.6" height="280.7"/>
				</g>
				<g>
					<rect x="1439.4" y="613.7" class="st5" width="18.6" height="280.7"/>
				</g>
				<g>
					<rect x="1483" y="613.7" class="st5" width="18.6" height="280.7"/>
				</g>
				<g>
					<rect x="1526.6" y="613.7" class="st5" width="18.6" height="280.7"/>
				</g>
				<g>
					<rect x="1570.2" y="613.7" class="st5" width="18.6" height="280.7"/>
				</g>
				<g>
					<rect x="1613.7" y="613.7" class="st5" width="18.6" height="280.7"/>
				</g>
				<g>
					<rect x="1657.3" y="613.7" class="st5" width="18.6" height="280.7"/>
				</g>
				<g>
					<rect x="1700.9" y="613.7" class="st5" width="18.6" height="280.7"/>
				</g>
				<g>
					<rect x="1744.4" y="613.7" class="st5" width="18.6" height="280.7"/>
				</g>
				<g>
					<rect x="1788" y="613.7" class="st5" width="18.6" height="280.7"/>
				</g>
				<g>
					<rect x="1831.6" y="613.7" class="st5" width="18.6" height="280.7"/>
				</g>
				<g>
					<rect x="1875.1" y="613.7" class="st5" width="18.6" height="280.7"/>
				</g>
				<g>
					<rect x="1918.7" y="613.7" class="st5" width="18.6" height="280.7"/>
				</g>
			</g>
		</g>
		<rect x="-8.7" y="607.2" class="st6" width="1937.4" height="7.6"/>
	</g>
	<g id="bottom-half">
		<rect id="base" x="631.2" y="620.9" class="st7" width="688.9" height="385.8"/>
		<polygon class="st8" points="630.2,701.7 1320.1,840.2 1321.1,701.7 		"/>
	</g>
	<path id="powerline2" class="st9 powerLine" d="M1.7,332.8c0,0,367.3,199.7,718.9-31.8"/>
	<path id="powerline1" class="st9 powerLine" d="M1.7,455.9c0,0,656.4,109.8,761.2-175"/>
	<path id="overhang" class="st10" d="M1321.1,701.7H630.2c-10.2,0-18.5-8.3-18.5-18.5v-27.9c0-10.2,8.3-18.5,18.5-18.5h690.9
		c10.2,0,18.5,8.3,18.5,18.5v27.9C1339.6,693.4,1331.3,701.7,1321.1,701.7z"/>
	<path id="roof1" class="st11" d="M574.7,642.7c0,0,5.4,22.1,36.8,14.1c0,0,22.1,7.4,32.8-1.3c0,0,14.7,9.4,31.5,0
		c0,0,20.7,10,32.8-1.3c0,0,20.1,11.4,38.8,0c0,0,22.1,10,36.8,0c0,0,23.4,12.9,37.5-2.9c0,0,20.7,17.2,38.8,0c0,0,18.1,15.2,40.2,0
		c0,0,20.1,13.2,38.1,0c0,0,24.1,17.2,40.8,0c0,0,16.1,14.5,36.1,0c0,0,18.7,14.5,38.8,0c0,0,16.1,13.2,34.8,0c0,0,21.4,13.8,42.2,0
		c0,0,20.1,13.2,32.8,0c0,0,23.6,13.6,39.5,0c0,0,22.1,15,44.5,0c0,0,11.6,8.7,26,7.2c18.7-1.9,24.3-8.6,24.3-8.6s19.2,9.7,23.2,6.5
		c0,0,6.5,2.8,21.7-6.5c0,0,26.7,4.1,33.1-7.1c0,0-60.9-26.6-102.2-44.9h-578L574.7,642.7z"/>
	<path id="trim" class="st12" d="M1321.2,1034.9H632c-5.3,0-9.6-4.3-9.6-9.6v-9c0-5.3,4.3-9.6,9.6-9.6h689.2c5.3,0,9.6,4.3,9.6,9.6
		v9C1330.8,1030.6,1326.5,1034.9,1321.2,1034.9z"/>
	<g>
		<defs>
			<rect id="SVGID_00000081610305413276863620000016259787828910015918_" x="1139.8" y="754.4" width="105.7" height="235.4"/>
		</defs>
		<clipPath id="SVGID_00000000914827506144458740000008094614440732449176_">
			<use xlink:href="#SVGID_00000081610305413276863620000016259787828910015918_"  style="overflow:visible;"/>
		</clipPath>
		<g id="door" style="clip-path:url(#SVGID_00000000914827506144458740000008094614440732449176_);">
			<g>
				<rect x="1139.8" y="754.4" class="st1" width="10.3" height="233.9"/>
			</g>
			<g>
				<rect x="1161.9" y="754.4" class="st1" width="10.3" height="233.9"/>
			</g>
			<g>
				<rect x="1184" y="754.4" class="st1" width="10.3" height="233.9"/>
			</g>
			<g>
				<rect x="1206.2" y="754.4" class="st1" width="10.3" height="233.9"/>
			</g>
			<g>
				<rect x="1228.3" y="754.4" class="st1" width="10.3" height="233.9"/>
			</g>
		</g>
	</g>
	<rect id="inside" x="702.3" y="751.3" class="st14" width="362.6" height="163.8"/>
	<g id="begin-sign">
		<path class="st15" d="M982,820.8H794.5c-4.2,0-7.7-3.4-7.7-7.7v-35.8c0-4.2,3.4-7.7,7.7-7.7H982c4.2,0,7.7,3.4,7.7,7.7v35.8
			C989.7,817.4,986.2,820.8,982,820.8z"/>
		<line class="st16" x1="834.6" y1="750.8" x2="834.6" y2="769.7"/>
		<line class="st16" x1="930.8" y1="750.8" x2="930.8" y2="769.7"/>
	</g>
	<g id="seat1">
		<ellipse class="st10" cx="756" cy="951.9" rx="48.1" ry="9.9"/>
		<line class="st17" x1="736.6" y1="954.3" x2="789.1" y2="1064.5"/>
		<line class="st17" x1="768.6" y1="953.7" x2="718.9" y2="1065.2"/>
	</g>
	<g id="seat2">
		<ellipse class="st10" cx="883.6" cy="951.9" rx="48.3" ry="9.9"/>
		<line class="st18" x1="866.2" y1="954.3" x2="918.7" y2="1064.5"/>
		<line class="st18" x1="898.2" y1="953.7" x2="848.5" y2="1065.2"/>
	</g>
	<g id="seat3">
		<ellipse class="st10" cx="1007.1" cy="951.9" rx="47.1" ry="9.7"/>
		<line class="st18" x1="989.7" y1="958.4" x2="1042.2" y2="1068.6"/>
		<line class="st18" x1="1021.7" y1="957.8" x2="972" y2="1069.3"/>
	</g>
	<path id="counter" class="st19" d="M1061.5,920.5H703.4c-5.2,0-9.5-4.3-9.5-9.5l0,0c0-5.2,4.3-9.5,9.5-9.5h358.1
		c5.2,0,9.5,4.3,9.5,9.5l0,0C1071,916.3,1066.7,920.5,1061.5,920.5z"/>
	<g id="welcome-sign">
		<path class="st19" d="M593.1,971.9h-57.5c-6.6,0-12-5.4-12-12V734.1c0-6.6,5.4-12,12-12h57.5c6.6,0,12,5.4,12,12v225.8
			C605.1,966.5,599.7,971.9,593.1,971.9z"/>
		<path class="st19" d="M634.3,759.3h-75.8c-1.6,0-2.9-1.3-2.9-2.9V748c0-1.6,1.3-2.9,2.9-2.9h75.8c1.6,0,2.9,1.3,2.9,2.9v8.4
			C637.2,758,635.9,759.3,634.3,759.3z"/>
		<path class="st19" d="M634.3,840.2h-75.8c-1.6,0-2.9-1.3-2.9-2.9v-8.4c0-1.6,1.3-2.9,2.9-2.9h75.8c1.6,0,2.9,1.3,2.9,2.9v8.4
			C637.2,838.9,635.9,840.2,634.3,840.2z"/>
		<path class="st19" d="M634.3,927.6h-75.8c-1.6,0-2.9-1.3-2.9-2.9v-8.4c0-1.6,1.3-2.9,2.9-2.9h75.8c1.6,0,2.9,1.3,2.9,2.9v8.4
			C637.2,926.3,635.9,927.6,634.3,927.6z"/>
	</g>
	<polygon id="trunk-small" class="st20" points="1820.4,1083.8 1833.4,691.9 1846.1,1084.2 	"/>
	<path id="tree-small" class="st21 tree" d="M1751.9,764.7h237.8c0,0,23.8-100-69.7-106.5c0,0-33.3-97.9-114.7-91.1s-81.3,73.2-73.2,90.8
		c0,0-75.7-19.7-90.6,28.7C1612.9,779.5,1751.9,764.7,1751.9,764.7z"/>
	<g id="roof">
		<path class="st22" d="M984.9,378.6h392.7c0,0,62.7-11.6,79.9-62.4c0,0-178.7,24.3-257.1-30s-226.8-179-226.8-179
			S777,275.9,741,285.2c0,0-85.3,51.9-231.9,29.9c0,0,23.5,61.2,70.5,63.5C626.7,380.9,984.9,378.6,984.9,378.6z"/>
		<path class="st23" d="M973.6,107.2l118.6,271.4l285.4,0c0,0,73.9-19.4,79.9-62.4c0,0-81.1,15.7-185.9-4.9c0,0-35.5,6.6-131.8-70
			L973.6,107.2z"/>
	</g>
	<polygon id="chopstick1" class="st20 eat" points="1204.7,332.4 1223.4,326.8 1271.6,553.1 	"/>
	<polygon id="chopstick1_00000143616062188808430990000015861880676620138640_" class="st20 eat" points="1290.7,358.7 1307.9,367.8 
		1183,562.5 	"/>
	<g id="bowl" class="st24 eat">
		<path class="st15" d="M1230.6,614.3c59.9,5.2,112.7-39.2,117.9-99.2l-217-18.7C1126.3,556.4,1170.7,609.1,1230.6,614.3z"/>
	</g>
	<polygon id="trunk-big" class="st20" points="1509.5,1026.6 1491.5,484.6 1473.9,1027.1 	"/>
	<path id="tree-big" class="st25 tree" d="M1604.2,585.2h-328.9c0,0-33-138.3,96.4-147.3c0,0,46.1-135.4,158.6-126
		c112.5,9.4,112.5,101.3,101.3,125.6c0,0,104.7-27.2,125.4,39.8C1796.4,605.7,1604.2,585.2,1604.2,585.2z"/>
	<circle id="sun" class="st15" cx="301.4" cy="257.1" r="108.5"/>
	<path id="lamppost" class="st26" d="M105.9,437.4l-12.7,608.9c0,0,5.8,5.1,11.4,0c5.6-5.1,6.3-608.9,6.3-608.9s16.6-2.1,15.4-27.2
		c-1.2-25.1-26-16.1-26-16.1s-12.6,5.7-5,26S105.9,437.4,105.9,437.4z"/>
	<ellipse id="lampost-light" class="st27" cx="109.7" cy="414.2" rx="8.1" ry="13.8"/>
	<path id="leaf1" class="st28 leaves" d="M323,875.8c0,0,17.6-133.5,69.3-112.8C444,783.8,323,875.8,323,875.8z"/>
	<path id="leaf2" class="st29 leaves" d="M319.9,867.6c0,0-81.3-130.4-51.7-146.1S319.9,867.6,319.9,867.6z"/>
	<g id="plant-pot">
		<polygon class="st30" points="282.1,875.8 295.9,965.8 369,965.8 382.2,875.8 		"/>
		<polygon class="st31" points="295.9,965.8 369,965.8 313.1,885.8 286,885.8 		"/>
		<path class="st32" d="M377.6,885.8H286c-4.3,0-7.7-3.5-7.7-7.7v-2.8c0-4.3,3.5-7.7,7.7-7.7h91.6c4.3,0,7.7,3.5,7.7,7.7v2.8
			C385.4,882.4,381.9,885.8,377.6,885.8z"/>
	</g>
	<path id="leaf3" class="st28 leaves" d="M322.8,873.7c0,0-51.6-237,5.2-200.7S322.8,873.7,322.8,873.7z"/>
	<g class="makiShadow st33">
		<path class="st34" d="M762.6,407.3l11.4-58.4l18.6,42.2l19.3-42.2l10.3,58.4h-8.4l-5.2-32.8l-16.1,35.3l-15.6-35.3l-5.8,32.8
			H762.6z"/>
		<path class="st34" d="M865.6,394.1h-23.2l-6,13.2h-8.8l26.9-57.7l25.9,57.7h-9L865.6,394.1z M862.3,386.4l-8.1-18.5l-8.4,18.5
			H862.3z"/>
		<path class="st34" d="M895.2,374.7l21.1-21.7h10.9l-24.5,24.6l24.7,29.7h-11l-19.5-24.2l-1.7,1.7v22.5H887V353h8.2V374.7z"/>
		<path class="st34" d="M942.9,353v54.3h-8.2V353H942.9z"/>
		<path class="st34" d="M976.3,407.3l11.4-58.4l18.6,42.2l19.3-42.2l10.3,58.4h-8.4l-5.2-32.8l-16.1,35.3l-15.6-35.3l-5.8,32.8
			H976.3z"/>
		<path class="st34" d="M1079.3,394.1h-23.2l-6,13.2h-8.8l26.9-57.7l25.9,57.7h-9L1079.3,394.1z M1076,386.4l-8.1-18.5l-8.4,18.5
			H1076z"/>
		<path class="st34" d="M1112.7,360.7v46.6h-8.2v-46.6H1092V353h33.1v7.7H1112.7z"/>
		<path class="st34" d="M1170.6,355.9v9.7c-4.7-4-9.6-5.9-14.7-5.9c-5.6,0-10.3,2-14.1,6c-3.8,4-5.8,8.9-5.8,14.6
			c0,5.7,1.9,10.5,5.8,14.4c3.8,3.9,8.6,5.9,14.1,5.9c2.9,0,5.3-0.5,7.3-1.4c1.1-0.5,2.3-1.1,3.5-1.9c1.2-0.8,2.5-1.8,3.8-2.9v9.9
			c-4.7,2.6-9.6,4-14.8,4c-7.8,0-14.4-2.7-19.9-8.1c-5.5-5.5-8.2-12-8.2-19.8c0-6.9,2.3-13.1,6.9-18.5c5.6-6.6,12.9-9.9,21.8-9.9
			C1161.4,352,1166.1,353.3,1170.6,355.9z"/>
		<path class="st34" d="M1190.7,374.2h23.4V353h8.2v54.3h-8.2v-25.3h-23.4v25.3h-8.2V353h8.2V374.2z"/>
	</g>
	<g id="makimatch">
		<path class="st35 tStyle" d="M759,407.3l11.4-58.4l18.6,42.2l19.3-42.2l10.3,58.4h-8.4l-5.2-32.8L789,409.8l-15.6-35.3l-5.8,32.8H759z"/>
		<path class="st35 tStyle" d="M862.1,394.1h-23.2l-6,13.2h-8.8l26.9-57.7l25.9,57.7h-9L862.1,394.1z M858.7,386.4l-8.1-18.5l-8.4,18.5
			H858.7z"/>
		<path class="st35 tStyle" d="M891.7,374.7l21.1-21.7h10.9l-24.5,24.6l24.7,29.7h-11l-19.5-24.2l-1.7,1.7v22.5h-8.2V353h8.2V374.7z"/>
		<path class="st35 tStyle" d="M939.4,353v54.3h-8.2V353H939.4z"/>
		<path class="st35 tStyle" d="M972.8,407.3l11.4-58.4l18.6,42.2l19.3-42.2l10.3,58.4h-8.4l-5.2-32.8l-16.1,35.3l-15.6-35.3l-5.8,32.8
			H972.8z"/>
		<path class="st35 tStyle" d="M1075.8,394.1h-23.2l-6,13.2h-8.8l26.9-57.7l25.9,57.7h-9L1075.8,394.1z M1072.4,386.4l-8.1-18.5l-8.4,18.5
			H1072.4z"/>
		<path class="st35 tStyle" d="M1109.2,360.7v46.6h-8.2v-46.6h-12.5V353h33.1v7.7H1109.2z"/>
		<path class="st35 tStyle" d="M1167.1,355.9v9.7c-4.7-4-9.6-5.9-14.7-5.9c-5.6,0-10.3,2-14.1,6c-3.8,4-5.8,8.9-5.8,14.6
			c0,5.7,1.9,10.5,5.8,14.4c3.8,3.9,8.6,5.9,14.1,5.9c2.9,0,5.3-0.5,7.3-1.4c1.1-0.5,2.3-1.1,3.5-1.9c1.2-0.8,2.5-1.8,3.8-2.9v9.9
			c-4.7,2.6-9.6,4-14.8,4c-7.8,0-14.4-2.7-19.9-8.1c-5.5-5.5-8.2-12-8.2-19.8c0-6.9,2.3-13.1,6.9-18.5c5.6-6.6,12.9-9.9,21.8-9.9
			C1157.8,352,1162.6,353.3,1167.1,355.9z"/>
		<path class="st35 tStyle" d="M1187.1,374.2h23.4V353h8.2v54.3h-8.2v-25.3h-23.4v25.3h-8.2V353h8.2V374.2z"/>
	</g>
	<g id="begin">
		<path class="st35" d="M846,805.3v-27.1h4.1c1.8,0,3.3,0.1,4.3,0.4c1.1,0.3,2,0.8,2.8,1.4c0.8,0.7,1.4,1.6,1.8,2.6
			c0.5,1,0.7,2.1,0.7,3.2c0,1.9-0.7,3.6-2.2,4.9c1.4,0.5,2.6,1.4,3.4,2.6c0.8,1.2,1.3,2.6,1.3,4.3c0,2.1-0.8,3.9-2.2,5.4
			c-0.9,0.9-1.9,1.5-3,1.9c-1.2,0.3-2.8,0.5-4.6,0.5H846z M850.1,789.8h1.3c1.5,0,2.6-0.3,3.3-1s1.1-1.7,1.1-3
			c0-1.3-0.4-2.2-1.1-2.9s-1.8-1-3.2-1h-1.4V789.8z M850.1,801.5h2.5c1.9,0,3.2-0.4,4.1-1.1c0.9-0.8,1.4-1.8,1.4-3
			c0-1.2-0.4-2.2-1.3-3c-0.9-0.8-2.4-1.2-4.6-1.2h-2.1V801.5z"/>
		<path class="st35" d="M882.2,797.7h-12.3c0.1,1.4,0.6,2.5,1.4,3.4c0.8,0.8,1.8,1.2,3.1,1.2c1,0,1.8-0.2,2.4-0.7
			c0.6-0.5,1.4-1.3,2.2-2.6l3.3,1.9c-0.5,0.9-1.1,1.6-1.6,2.3s-1.2,1.1-1.8,1.5s-1.4,0.7-2.1,0.9s-1.6,0.3-2.5,0.3
			c-2.6,0-4.6-0.8-6.2-2.5c-1.5-1.7-2.3-3.8-2.3-6.6c0-2.7,0.8-4.9,2.2-6.6c1.5-1.7,3.5-2.5,6-2.5c2.5,0,4.5,0.8,6,2.4
			c1.5,1.6,2.2,3.8,2.2,6.6L882.2,797.7z M878.1,794.4c-0.6-2.1-1.9-3.2-4-3.2c-0.5,0-0.9,0.1-1.4,0.2s-0.8,0.4-1.2,0.6
			s-0.6,0.6-0.9,1s-0.4,0.8-0.6,1.3H878.1z"/>
		<path class="st35" d="M903.1,804.9c0,0.8,0,1.5-0.1,2.1s-0.1,1.2-0.2,1.6c-0.3,1.3-0.8,2.4-1.7,3.3c-1.5,1.8-3.7,2.7-6.4,2.7
			c-2.3,0-4.2-0.6-5.6-1.8c-1.5-1.3-2.4-3-2.6-5.3h4c0.2,0.8,0.4,1.5,0.8,2c0.8,1.1,2,1.6,3.6,1.6c2.9,0,4.3-1.8,4.3-5.3v-2.4
			c-1.6,1.6-3.4,2.4-5.4,2.4c-2.3,0-4.2-0.8-5.7-2.5c-1.5-1.7-2.2-3.8-2.2-6.4c0-2.5,0.7-4.6,2.1-6.4c1.5-1.9,3.5-2.8,5.9-2.8
			c2.2,0,3.9,0.8,5.4,2.4v-1.9h4V804.9z M899.3,796.8c0-1.7-0.4-3-1.3-4c-0.9-1-2.1-1.5-3.5-1.5c-1.5,0-2.7,0.6-3.6,1.7
			c-0.8,1-1.2,2.3-1.2,3.9c0,1.6,0.4,2.8,1.2,3.8c0.9,1.1,2,1.6,3.6,1.6s2.7-0.6,3.6-1.7C898.8,799.6,899.3,798.3,899.3,796.8z"/>
		<path class="st35" d="M907.4,781.1c0-0.7,0.3-1.3,0.8-1.8s1.1-0.8,1.8-0.8c0.7,0,1.3,0.3,1.8,0.8c0.5,0.5,0.8,1.1,0.8,1.8
			s-0.3,1.3-0.8,1.8c-0.5,0.5-1.1,0.8-1.8,0.8s-1.3-0.3-1.8-0.8S907.4,781.8,907.4,781.1z M912,788.2v17.1h-4v-17.1H912z"/>
		<path class="st35" d="M917,788.2h4v1.6c1.4-1.4,2.9-2.1,4.7-2.1c2,0,3.5,0.6,4.7,1.9c1,1.1,1.4,2.8,1.4,5.2v10.5h-4v-9.6
			c0-1.7-0.2-2.9-0.7-3.5c-0.5-0.7-1.3-1-2.5-1c-1.3,0-2.2,0.4-2.8,1.3c-0.5,0.9-0.8,2.3-0.8,4.5v8.3h-4V788.2z"/>
	</g>
	<g id="window">
		<rect x="741.8" y="430.3" class="st36" width="241.5" height="132.2"/>
		<rect x="782.2" y="445.2" class="st37" width="127.6" height="107.8"/>
		<rect x="927.8" y="445.2" class="st37" width="20" height="107.8"/>
		<rect x="820.9" y="469.7" class="st38" width="16.1" height="70.3"/>
		<rect x="846" y="483.4" class="st38" width="8.1" height="46.5"/>
	</g>
	<g id="cloud-big" class="clouds">
		<path class="st37" d="M1509.5,273.9h393c0,0,27.4-126.3-138.2-98.8c0,0-53.6,5.5-61.6,38.4
			C1702.8,213.5,1508.1,177.8,1509.5,273.9z"/>
		<path class="st39" d="M1509.5,273.9c0,0,1.3-34.4,22.4-45.3s97.4-39.8,170.9-15.1c0,0,22.7-46.8,104.8-42.3v102.7H1509.5z"/>
	</g>
	<g id="cloud-small" class="clouds">
		<path class="st37" d="M1308,179.6h277.1c0,0,19.3-89.1-97.4-69.7c0,0-37.8,3.9-43.4,27.1C1444.2,137.1,1307,111.9,1308,179.6z"/>
		<path class="st39" d="M1307.9,179.6c0,0,0.8-23.2,13-30.7c12.2-7.4,35.6-24.8,123.3-11.9c0,0,5.6-34,81.7-29.9l-45.3,72.4H1307.9z
			"/>
	</g>
	<g id="welcome">
		<path class="st10" d="M551.6,748.1l5.9,15.1l6.2-16.2l5.9,16.2l6.3-15.1h3.7l-10.1,24.1l-5.8-16l-6.1,16l-9.6-24.1H551.6z"/>
		<path class="st10" d="M570.4,794.3h-10.2c0.1,1.2,0.5,2.1,1.1,2.8c0.7,0.7,1.5,1,2.6,1c0.8,0,1.5-0.2,2-0.6
			c0.5-0.4,1.1-1.1,1.8-2.2l2.8,1.6c-0.4,0.7-0.9,1.4-1.4,1.9s-1,1-1.5,1.3s-1.1,0.6-1.8,0.7s-1.3,0.2-2.1,0.2
			c-2.1,0-3.8-0.7-5.1-2.1c-1.3-1.4-1.9-3.2-1.9-5.5c0-2.3,0.6-4.1,1.9-5.5c1.3-1.4,2.9-2.1,5-2.1c2.1,0,3.8,0.7,5,2
			c1.2,1.3,1.8,3.2,1.8,5.5L570.4,794.3z M567,791.6c-0.5-1.8-1.6-2.6-3.3-2.6c-0.4,0-0.8,0.1-1.1,0.2s-0.7,0.3-1,0.5
			s-0.5,0.5-0.7,0.8s-0.4,0.7-0.5,1.1H567z"/>
		<path class="st10" d="M565.3,805.9v24.7H562v-24.7H565.3z"/>
		<path class="st10" d="M569.7,847v4.4c-0.8-0.9-1.4-1.5-2-1.9c-0.6-0.4-1.3-0.5-2.1-0.5c-1.2,0-2.3,0.4-3.1,1.3s-1.2,2-1.2,3.3
			c0,1.3,0.4,2.4,1.2,3.3c0.8,0.9,1.8,1.3,3.1,1.3c0.8,0,1.5-0.2,2.1-0.5c0.6-0.3,1.3-1,2.1-1.9v4.4c-1.3,0.7-2.7,1-4,1
			c-2.2,0-4.1-0.7-5.5-2.1c-1.5-1.4-2.2-3.2-2.2-5.3s0.8-3.9,2.3-5.4s3.3-2.2,5.5-2.2C567.1,846,568.4,846.4,569.7,847z"/>
		<path class="st10" d="M556,883.4c0-2.1,0.7-3.8,2.2-5.3s3.3-2.2,5.4-2.2c2.1,0,3.9,0.7,5.4,2.2c1.5,1.5,2.2,3.2,2.2,5.4
			c0,2.1-0.7,3.9-2.2,5.4c-1.5,1.4-3.3,2.2-5.5,2.2c-2.1,0-3.9-0.7-5.4-2.2C556.8,887.4,556,885.6,556,883.4z M559.4,883.5
			c0,1.4,0.4,2.6,1.1,3.4c0.8,0.8,1.8,1.3,3.1,1.3c1.3,0,2.3-0.4,3.1-1.2s1.2-1.9,1.2-3.3s-0.4-2.5-1.2-3.3
			c-0.8-0.8-1.8-1.3-3.1-1.3c-1.3,0-2.3,0.4-3.1,1.3S559.4,882.2,559.4,883.5z"/>
		<path class="st10" d="M553.9,906.4h3.3v1.3c0.6-0.7,1.2-1.1,1.6-1.3c0.5-0.2,1.1-0.4,1.8-0.4c1.6,0,2.9,0.7,3.8,2.1
			c1-1.4,2.4-2.1,4.2-2.1c3.2,0,4.8,1.9,4.8,5.8v8.8h-3.3v-7.9c0-1.4-0.2-2.3-0.5-2.9c-0.3-0.6-0.9-0.9-1.7-0.9c-0.9,0-1.6,0.3-2,1
			s-0.6,1.8-0.6,3.3v7.4H562v-7.9c0-2.5-0.7-3.8-2.2-3.8c-0.9,0-1.6,0.3-2,1s-0.6,1.8-0.6,3.3v7.4h-3.3V906.4z"/>
		<path class="st10" d="M570.4,944.3h-10.2c0.1,1.2,0.5,2.1,1.1,2.8c0.7,0.7,1.5,1,2.6,1c0.8,0,1.5-0.2,2-0.6
			c0.5-0.4,1.1-1.1,1.8-2.2l2.8,1.6c-0.4,0.7-0.9,1.4-1.4,1.9s-1,1-1.5,1.3s-1.1,0.6-1.8,0.7s-1.3,0.2-2.1,0.2
			c-2.1,0-3.8-0.7-5.1-2.1c-1.3-1.4-1.9-3.2-1.9-5.5c0-2.3,0.6-4.1,1.9-5.5c1.3-1.4,2.9-2.1,5-2.1c2.1,0,3.8,0.7,5,2
			c1.2,1.3,1.8,3.2,1.8,5.5L570.4,944.3z M567,941.6c-0.5-1.8-1.6-2.6-3.3-2.6c-0.4,0-0.8,0.1-1.1,0.2s-0.7,0.3-1,0.5
			s-0.5,0.5-0.7,0.8s-0.4,0.7-0.5,1.1H567z"/>
	</g>
</g>
</svg>
