<?xml version="1.0" encoding="utf-8"?>
<!-- Generator: Adobe Illustrator 26.0.1, SVG Export Plug-In . SVG Version: 6.00 Build 0)  -->
<svg version="1.1" xmlns="http://www.w3.org/2000/svg" xmlns:xlink="http://www.w3.org/1999/xlink" x="0px" y="0px"
	 viewBox="0 0 400 400" style="enable-background:new 0 0 400 400;" xml:space="preserve">
<style type="text/css">
	.st0{fill:#EDDDCA;}
	.st1{fill:#FFEBEB;}
	.st2{fill:#042B00;}
	.st3{fill:#FF767B;}
	.st4{fill:none;stroke:#FFFFFF;stroke-miterlimit:10;}
	.st5{fill:url(#SVGID_1_);}
	.st6{fill:url(#SVGID_00000101078122654334344070000015847694954513105541_);}
	.st7{fill:url(#SVGID_00000072242602979906847200000015942877623763555770_);}
	.st8{fill:url(#SVGID_00000109719654277927642940000002519885575447305355_);}
	.st9{fill:url(#SVGID_00000062913648076886761810000008409676257008326017_);}
	.st10{fill:url(#SVGID_00000129207117602525103240000001286619568703275673_);}
	.st11{fill:url(#SVGID_00000127739963719233648090000012368771926533281435_);}
	.st12{fill:url(#SVGID_00000020381241318893926700000000782971371400387727_);}
	.st13{fill:url(#SVGID_00000047057385914629448480000014298032585564999814_);}
	.st14{fill:url(#SVGID_00000100353130195592631790000001418784832276944813_);}
	.st15{fill:url(#SVGID_00000062904765716048802620000003070697955157727110_);}
	.st16{fill:url(#SVGID_00000107570703810370388580000006833953950764361134_);}
	.st17{fill:url(#SVGID_00000080193964830013026220000007763132418371179199_);}
	.st18{fill:#FFFFFF;}
	.st19{fill:none;}
	.st20{font-family:'Futura-CondensedMedium';}
	.st21{font-size:80px;}
</style>
<g id="Layer_1">
	<rect class="st0" width="400" height="400"/>
</g>
<g id="Layer_2">
	<ellipse class="st1" cx="238.7" cy="229.6" rx="145.6" ry="20.8"/>
	<path class="st2" d="M93.1,229.6V400h291.2V229.6C384.3,229.6,252.6,276.7,93.1,229.6z"/>
	<g>
		<path class="st3" d="M305.8,236.4l-42.9,3.9c-2.4,0.2-6.9-1.7-10-4.4l-19.8-16.6c-3.1-2.6-3.7-4.9-1.4-5.2l42.9-3.9
			c2.4-0.2,6.9,1.7,10,4.4l19.8,16.6C307.6,233.8,308.2,236.1,305.8,236.4z"/>
		<path class="st4" d="M230.1,215c0,0,35,10.1,38,7.9c2.9-2.2,9.8-12.2,9.8-12.2"/>
		<path class="st4" d="M236.8,222.4c0,0,36.6,10,40,7.7c3.3-2.3,11.5-12.4,11.5-12.4"/>
		<path class="st4" d="M244.7,229c0,0,36.6,10,40,7.7c3.3-2.3,11.5-12.4,11.5-12.4"/>
	</g>
	
		<linearGradient id="SVGID_1_" gradientUnits="userSpaceOnUse" x1="180.9764" y1="226.2929" x2="250.1168" y2="226.2929" gradientTransform="matrix(1 0 2.2212 1 -502.6474 0)">
		<stop  offset="1.961183e-02" style="stop-color:#7CB100"/>
		<stop  offset="0.3473" style="stop-color:#A0C427"/>
		<stop  offset="0.9988" style="stop-color:#F0EE7D"/>
	</linearGradient>
	<path class="st5" d="M248,236.7h-41.8c-3,0-8.3-2.5-11.7-5.5l-10.8-9.7c-3.4-3-3.7-5.5-0.6-5.5h41.8c3,0,8.3,2.5,11.7,5.5l10.8,9.7
		C250.8,234.2,251,236.7,248,236.7z"/>
	<g>
		
			<linearGradient id="SVGID_00000163054201881835265230000007998704129710699434_" gradientUnits="userSpaceOnUse" x1="2288.76" y1="2485.8328" x2="2301.7932" y2="2485.8328" gradientTransform="matrix(0.9866 -0.1631 0.1631 0.9866 -2428.0879 -1849.4623)">
			<stop  offset="0" style="stop-color:#FF4100"/>
			<stop  offset="1" style="stop-color:#EF7E4B"/>
		</linearGradient>
		<path style="fill:url(#SVGID_00000163054201881835265230000007998704129710699434_);" d="M248.6,227.7c0.6,3.4-1.9,6.7-5.4,7.3
			c-3.6,0.6-6.9-1.7-7.5-5.1s1.9-6.7,5.4-7.3C244.7,222,248,224.3,248.6,227.7z"/>
		
			<linearGradient id="SVGID_00000124121120538624398630000016776645297623378054_" gradientUnits="userSpaceOnUse" x1="2299.1941" y1="2487.0508" x2="2312.2273" y2="2487.0508" gradientTransform="matrix(0.9866 -0.1631 0.1631 0.9866 -2428.0879 -1849.4623)">
			<stop  offset="0" style="stop-color:#FF4100"/>
			<stop  offset="1" style="stop-color:#EF7E4B"/>
		</linearGradient>
		<path style="fill:url(#SVGID_00000124121120538624398630000016776645297623378054_);" d="M259.1,227.2c0.6,3.4-1.9,6.7-5.4,7.3
			c-3.6,0.6-6.9-1.7-7.5-5.1c-0.6-3.4,1.9-6.7,5.4-7.3C255.1,221.5,258.5,223.8,259.1,227.2z"/>
		
			<linearGradient id="SVGID_00000000185576914622824050000014124255951163726485_" gradientUnits="userSpaceOnUse" x1="2296.9387" y1="2479.1455" x2="2304.6797" y2="2479.1455" gradientTransform="matrix(0.9866 -0.1631 0.1631 0.9866 -2428.0879 -1849.4623)">
			<stop  offset="0" style="stop-color:#FF4100"/>
			<stop  offset="1" style="stop-color:#EF7E4B"/>
		</linearGradient>
		<path style="fill:url(#SVGID_00000000185576914622824050000014124255951163726485_);" d="M250.2,220.6c0.3,2-1.1,4-3.2,4.3
			c-2.1,0.3-4.1-1-4.4-3s1.1-4,3.2-4.3C247.9,217.3,249.9,218.6,250.2,220.6z"/>
	</g>
	<g>
		
			<linearGradient id="SVGID_00000157305973950678801280000017427904593070296224_" gradientUnits="userSpaceOnUse" x1="2303.6099" y1="2482.9844" x2="2316.6431" y2="2482.9844" gradientTransform="matrix(0.9866 -0.1631 0.1631 0.9866 -2428.0879 -1849.4623)">
			<stop  offset="0" style="stop-color:#FF4100"/>
			<stop  offset="1" style="stop-color:#EF7E4B"/>
		</linearGradient>
		<path style="fill:url(#SVGID_00000157305973950678801280000017427904593070296224_);" d="M262.7,222.5c0.6,3.4-1.9,6.7-5.4,7.3
			c-3.6,0.6-6.9-1.7-7.5-5.1c-0.6-3.4,1.9-6.7,5.4-7.3C258.8,216.7,262.2,219,262.7,222.5z"/>
		
			<linearGradient id="SVGID_00000007415848240521000540000004200714690032860043_" gradientUnits="userSpaceOnUse" x1="2314.0437" y1="2484.2021" x2="2327.0769" y2="2484.2021" gradientTransform="matrix(0.9866 -0.1631 0.1631 0.9866 -2428.0879 -1849.4623)">
			<stop  offset="0" style="stop-color:#FF4100"/>
			<stop  offset="1" style="stop-color:#EF7E4B"/>
		</linearGradient>
		<path style="fill:url(#SVGID_00000007415848240521000540000004200714690032860043_);" d="M273.2,222c0.6,3.4-1.9,6.7-5.4,7.3
			c-3.6,0.6-6.9-1.7-7.5-5.1c-0.6-3.4,1.9-6.7,5.4-7.3S272.7,218.5,273.2,222z"/>
		
			<linearGradient id="SVGID_00000027574370944061335040000012487839279389973133_" gradientUnits="userSpaceOnUse" x1="2311.7883" y1="2476.2969" x2="2319.5293" y2="2476.2969" gradientTransform="matrix(0.9866 -0.1631 0.1631 0.9866 -2428.0879 -1849.4623)">
			<stop  offset="0" style="stop-color:#FF4100"/>
			<stop  offset="1" style="stop-color:#EF7E4B"/>
		</linearGradient>
		<path style="fill:url(#SVGID_00000027574370944061335040000012487839279389973133_);" d="M264.4,215.4c0.3,2-1.1,4-3.2,4.3
			c-2.1,0.3-4.1-1-4.4-3c-0.3-2,1.1-4,3.2-4.3C262.1,212,264,213.4,264.4,215.4z"/>
	</g>
	<g>
		
			<linearGradient id="SVGID_00000085223603012168114290000015942922020987032993_" gradientUnits="userSpaceOnUse" x1="2305.0852" y1="2492.3381" x2="2318.1184" y2="2492.3381" gradientTransform="matrix(0.9866 -0.1631 0.1631 0.9866 -2428.0879 -1849.4623)">
			<stop  offset="0" style="stop-color:#FF4100"/>
			<stop  offset="1" style="stop-color:#EF7E4B"/>
		</linearGradient>
		<path style="fill:url(#SVGID_00000085223603012168114290000015942922020987032993_);" d="M265.7,231.5c0.6,3.4-1.9,6.7-5.4,7.3
			s-6.9-1.7-7.5-5.1c-0.6-3.4,1.9-6.7,5.4-7.3C261.8,225.7,265.2,228,265.7,231.5z"/>
		
			<linearGradient id="SVGID_00000183970982122810160020000001165076231901763005_" gradientUnits="userSpaceOnUse" x1="2315.5193" y1="2493.5559" x2="2328.5525" y2="2493.5559" gradientTransform="matrix(0.9866 -0.1631 0.1631 0.9866 -2428.0879 -1849.4623)">
			<stop  offset="0" style="stop-color:#FF4100"/>
			<stop  offset="1" style="stop-color:#EF7E4B"/>
		</linearGradient>
		<path style="fill:url(#SVGID_00000183970982122810160020000001165076231901763005_);" d="M276.2,231c0.6,3.4-1.9,6.7-5.4,7.3
			s-6.9-1.7-7.5-5.1c-0.6-3.4,1.9-6.7,5.4-7.3C272.3,225.2,275.7,227.5,276.2,231z"/>
		
			<linearGradient id="SVGID_00000149378226220370032040000013498116017399794315_" gradientUnits="userSpaceOnUse" x1="2313.2639" y1="2485.6509" x2="2321.0049" y2="2485.6509" gradientTransform="matrix(0.9866 -0.1631 0.1631 0.9866 -2428.0879 -1849.4623)">
			<stop  offset="0" style="stop-color:#FF4100"/>
			<stop  offset="1" style="stop-color:#EF7E4B"/>
		</linearGradient>
		<path style="fill:url(#SVGID_00000149378226220370032040000013498116017399794315_);" d="M267.4,224.4c0.3,2-1.1,4-3.2,4.3
			c-2.1,0.3-4.1-1-4.4-3c-0.3-2,1.1-4,3.2-4.3C265,221,267,222.4,267.4,224.4z"/>
	</g>
	<g>
		
			<linearGradient id="SVGID_00000008843540228867453100000010760433731579934648_" gradientUnits="userSpaceOnUse" x1="2292.9827" y1="2505.3" x2="2306.0159" y2="2505.3" gradientTransform="matrix(0.9059 0.4235 -0.4235 0.9059 -782.3193 -3013.104)">
			<stop  offset="0" style="stop-color:#FF4100"/>
			<stop  offset="1" style="stop-color:#EF7E4B"/>
		</linearGradient>
		<path style="fill:url(#SVGID_00000008843540228867453100000010760433731579934648_);" d="M246.1,233.1c-1.5,3.1-5.3,4.5-8.6,2.9
			c-3.3-1.5-4.7-5.3-3.2-8.4c1.5-3.1,5.3-4.5,8.6-2.9S247.6,230,246.1,233.1z"/>
		
			<linearGradient id="SVGID_00000085958023342637367010000004356267564248733877_" gradientUnits="userSpaceOnUse" x1="2303.4167" y1="2506.5178" x2="2316.45" y2="2506.5178" gradientTransform="matrix(0.9059 0.4235 -0.4235 0.9059 -782.3193 -3013.104)">
			<stop  offset="0" style="stop-color:#FF4100"/>
			<stop  offset="1" style="stop-color:#EF7E4B"/>
		</linearGradient>
		<path style="fill:url(#SVGID_00000085958023342637367010000004356267564248733877_);" d="M255.1,238.6c-1.5,3.1-5.3,4.5-8.6,2.9
			s-4.7-5.3-3.2-8.4c1.5-3.1,5.3-4.5,8.6-2.9S256.5,235.5,255.1,238.6z"/>
		
			<linearGradient id="SVGID_00000060745668658992508110000014628788556951067560_" gradientUnits="userSpaceOnUse" x1="2301.1614" y1="2498.6128" x2="2308.9023" y2="2498.6128" gradientTransform="matrix(0.9059 0.4235 -0.4235 0.9059 -782.3193 -3013.104)">
			<stop  offset="0" style="stop-color:#FF4100"/>
			<stop  offset="1" style="stop-color:#EF7E4B"/>
		</linearGradient>
		<path style="fill:url(#SVGID_00000060745668658992508110000014628788556951067560_);" d="M251.5,228.2c-0.9,1.9-3.1,2.6-5.1,1.7
			s-2.8-3.2-1.9-5c0.9-1.9,3.1-2.6,5.1-1.7C251.5,224.1,252.3,226.4,251.5,228.2z"/>
	</g>
	<circle cx="127.2" cy="301.5" r="9.4"/>
	<circle class="st18" cx="130" cy="298.7" r="4.9"/>
	<circle cx="357" cy="300.1" r="9.4"/>
	<circle class="st18" cx="355.3" cy="298.7" r="5.4"/>
	<path d="M260.6,309.6c0,3.1-6.6,11.1-16.2,11.1s-15.5-8-15.5-11.1s5.8,5.5,15.5,5.5S260.6,306.5,260.6,309.6z"/>
	<ellipse class="st3" cx="132" cy="322.3" rx="17.3" ry="3.4"/>
	<ellipse class="st3" cx="355.3" cy="325.7" rx="17.3" ry="3.4"/>
	<rect x="37" y="93.9" class="st19" width="247" height="81.9"/>
	<text transform="matrix(1 0 0 1 37.0218 160.2557)" class="st3 st20 st21">WINNER!</text>
	<circle class="st18" cx="277.9" cy="160.8" r="14.7"/>
	<circle class="st18" cx="41.6" cy="77.3" r="11.3"/>
	<circle class="st18" cx="112.2" cy="205.6" r="5.6"/>
</g>
</svg>
